<svg width="76" height="75" viewBox="0 0 76 75" fill="none" xmlns="http://www.w3.org/2000/svg">
<g clip-path="url(#clip0_2128_6054)">
<path d="M72.5993 5.21313H4.0664C2.33613 5.21313 0.921509 6.61606 0.921509 8.35803V57.6007C0.921509 59.3427 2.33613 60.7456 4.0664 60.7456H28.6878L27.5771 65.5623H25.0285C23.4735 65.5623 21.0301 67.3745 21.0301 69.6075H55.6473C55.6473 67.3745 53.2039 65.5623 51.649 65.5623H49.1003L47.9897 60.7456H72.5993C74.3413 60.7456 75.7442 59.3427 75.7442 57.6007V8.35803C75.7442 6.61606 74.3413 5.21313 72.5993 5.21313ZM71.1964 52.5268H5.48102V10.1584H71.1964V52.5268Z" fill="#1C1C1C"/>
<path d="M21.9071 31.9502H12.8699C12.9985 34.3936 13.9805 36.6266 15.5237 38.3452L21.9071 31.9502ZM22.7371 20.9138C17.4177 21.2061 13.1622 25.4616 12.8699 30.7811H22.7371V20.9138Z" fill="#1C1C1C"/>
<path d="M23.3217 41.8401C28.8164 41.8401 33.3407 37.573 33.7498 32.1836H40.6824V42.4246C40.6824 42.8806 41.0448 43.243 41.5008 43.243H55.6348V47.3113C55.6348 47.6387 55.892 47.8959 56.2193 47.8959H64.0988C64.4262 47.8959 64.6834 47.6387 64.6834 47.3113V37.5262C64.6834 37.1989 64.4262 36.9417 64.0988 36.9417H56.2193C55.892 36.9417 55.6348 37.1989 55.6348 37.5262V41.5946H42.3308V20.189H46.9954V24.2573C46.9954 24.5847 47.2526 24.8419 47.5799 24.8419H55.4594C55.7868 24.8419 56.044 24.5847 56.044 24.2573V14.4722C56.044 14.1449 55.7868 13.8877 55.4594 13.8877H47.5799C47.2526 13.8877 46.9954 14.1449 46.9954 14.4722V18.5406H41.5124C41.0565 18.5406 40.6941 18.903 40.6941 19.3589V30.5352H33.7615C33.3523 25.3329 29.1437 21.1944 23.9063 20.9021V31.3536C23.9063 31.5055 23.8478 31.6575 23.7309 31.7744L16.3424 39.1513C18.2012 40.823 20.6446 41.8401 23.3217 41.8401ZM58.0548 39.2682H62.2985C62.6258 39.2682 62.883 39.5254 62.883 39.8527C62.883 40.18 62.6258 40.4372 62.2985 40.4372H58.0548C57.7274 40.4372 57.4702 40.18 57.4702 39.8527C57.4702 39.5254 57.7274 39.2682 58.0548 39.2682ZM58.0548 41.8401H62.2985C62.6258 41.8401 62.883 42.0973 62.883 42.4246C62.883 42.752 62.6258 43.0092 62.2985 43.0092H58.0548C57.7274 43.0092 57.4702 42.752 57.4702 42.4246C57.4702 42.109 57.7274 41.8401 58.0548 41.8401ZM58.0548 44.4121H62.2985C62.6258 44.4121 62.883 44.6693 62.883 44.9966C62.883 45.3239 62.6258 45.5811 62.2985 45.5811H58.0548C57.7274 45.5811 57.4702 45.3239 57.4702 44.9966C57.4702 44.6809 57.7274 44.4121 58.0548 44.4121ZM49.4037 16.2141H53.6474C53.9747 16.2141 54.2319 16.4713 54.2319 16.7987C54.2319 17.126 53.9747 17.3832 53.6474 17.3832H49.4037C49.0763 17.3832 48.8191 17.126 48.8191 16.7987C48.8191 16.4713 49.0763 16.2141 49.4037 16.2141ZM49.4037 18.7861H53.6474C53.9747 18.7861 54.2319 19.0433 54.2319 19.3706C54.2319 19.698 53.9747 19.9552 53.6474 19.9552H49.4037C49.0763 19.9552 48.8191 19.698 48.8191 19.3706C48.8191 19.0433 49.0763 18.7861 49.4037 18.7861ZM49.4037 21.358H53.6474C53.9747 21.358 54.2319 21.6152 54.2319 21.9426C54.2319 22.2699 53.9747 22.5271 53.6474 22.5271H49.4037C49.0763 22.5271 48.8191 22.2699 48.8191 21.9426C48.8191 21.6152 49.0763 21.358 49.4037 21.358Z" fill="#1C1C1C"/>
</g>
<defs>
<clipPath id="clip0_2128_6054">
<rect width="74.8227" height="74.8227" fill="white" transform="translate(0.921387)"/>
</clipPath>
</defs>
</svg>
