<svg width="76" height="75" viewBox="0 0 76 75" fill="none" xmlns="http://www.w3.org/2000/svg">
<g clip-path="url(#clip0_2128_5754)">
<path d="M72.4259 5.21313H3.89294C2.16266 5.21313 0.748047 6.61606 0.748047 8.35803V57.6007C0.748047 59.3427 2.16266 60.7456 3.89294 60.7456H28.5143L27.4036 65.5623H24.855C23.3001 65.5623 20.8567 67.3745 20.8567 69.6075H55.4739C55.4739 67.3745 53.0304 65.5623 51.4755 65.5623H48.9269L47.8162 60.7456H72.4259C74.1678 60.7456 75.5708 59.3427 75.5708 57.6007V8.35803C75.5708 6.61606 74.1678 5.21313 72.4259 5.21313ZM71.0229 52.5268H5.30756V10.1584H71.0229V52.5268Z" fill="#4E5BBF"/>
<path d="M21.7336 31.9502H12.6964C12.825 34.3936 13.8071 36.6266 15.3503 38.3452L21.7336 31.9502ZM22.5637 20.9138C17.2442 21.2061 12.9887 25.4616 12.6964 30.7811H22.5637V20.9138Z" fill="#4E5BBF"/>
<path d="M23.1483 41.8401C28.6429 41.8401 33.1672 37.573 33.5764 32.1836H40.5089V42.4246C40.5089 42.8806 40.8714 43.243 41.3273 43.243H55.4613V47.3113C55.4613 47.6387 55.7185 47.8959 56.0459 47.8959H63.9254C64.2527 47.8959 64.5099 47.6387 64.5099 47.3113V37.5262C64.5099 37.1989 64.2527 36.9417 63.9254 36.9417H56.0459C55.7185 36.9417 55.4613 37.1989 55.4613 37.5262V41.5946H42.1573V20.189H46.8219V24.2573C46.8219 24.5847 47.0791 24.8419 47.4064 24.8419H55.286C55.6133 24.8419 55.8705 24.5847 55.8705 24.2573V14.4722C55.8705 14.1449 55.6133 13.8877 55.286 13.8877H47.4064C47.0791 13.8877 46.8219 14.1449 46.8219 14.4722V18.5406H41.339C40.883 18.5406 40.5206 18.903 40.5206 19.3589V30.5352H33.5881C33.1789 25.3329 28.9702 21.1944 23.7328 20.9021V31.3536C23.7328 31.5055 23.6744 31.6575 23.5575 31.7744L16.1689 39.1513C18.0278 40.823 20.4711 41.8401 23.1483 41.8401ZM57.8813 39.2682H62.125C62.4523 39.2682 62.7095 39.5254 62.7095 39.8527C62.7095 40.18 62.4523 40.4372 62.125 40.4372H57.8813C57.554 40.4372 57.2968 40.18 57.2968 39.8527C57.2968 39.5254 57.554 39.2682 57.8813 39.2682ZM57.8813 41.8401H62.125C62.4523 41.8401 62.7095 42.0973 62.7095 42.4246C62.7095 42.752 62.4523 43.0092 62.125 43.0092H57.8813C57.554 43.0092 57.2968 42.752 57.2968 42.4246C57.2968 42.109 57.554 41.8401 57.8813 41.8401ZM57.8813 44.4121H62.125C62.4523 44.4121 62.7095 44.6693 62.7095 44.9966C62.7095 45.3239 62.4523 45.5811 62.125 45.5811H57.8813C57.554 45.5811 57.2968 45.3239 57.2968 44.9966C57.2968 44.6809 57.554 44.4121 57.8813 44.4121ZM49.2302 16.2141H53.4739C53.8012 16.2141 54.0584 16.4713 54.0584 16.7987C54.0584 17.126 53.8012 17.3832 53.4739 17.3832H49.2302C48.9029 17.3832 48.6457 17.126 48.6457 16.7987C48.6457 16.4713 48.9029 16.2141 49.2302 16.2141ZM49.2302 18.7861H53.4739C53.8012 18.7861 54.0584 19.0433 54.0584 19.3706C54.0584 19.698 53.8012 19.9552 53.4739 19.9552H49.2302C48.9029 19.9552 48.6457 19.698 48.6457 19.3706C48.6457 19.0433 48.9029 18.7861 49.2302 18.7861ZM49.2302 21.358H53.4739C53.8012 21.358 54.0584 21.6152 54.0584 21.9426C54.0584 22.2699 53.8012 22.5271 53.4739 22.5271H49.2302C48.9029 22.5271 48.6457 22.2699 48.6457 21.9426C48.6457 21.6152 48.9029 21.358 49.2302 21.358Z" fill="#4E5BBF"/>
</g>
<defs>
<clipPath id="clip0_2128_5754">
<rect width="74.8227" height="74.8227" fill="white" transform="translate(0.748047)"/>
</clipPath>
</defs>
</svg>
