<svg width="80" height="79" viewBox="0 0 80 79" fill="none" xmlns="http://www.w3.org/2000/svg">
<path d="M48.3718 16.638V8.32302H32.5734V16.638H48.3718ZM8.87578 29.1104V66.5277C8.87578 68.8144 10.6531 70.6852 12.8254 70.6852H68.1199C70.2922 70.6852 72.0695 68.8144 72.0695 66.5277V29.1104C72.0695 26.8238 70.2922 24.9529 68.1199 24.9529H12.8254C10.6531 24.9529 8.87578 26.8238 8.87578 29.1104ZM72.0695 16.638C76.4535 16.638 79.9687 20.3381 79.9687 24.9529V70.6852C79.9687 75.3 76.4535 79.0002 72.0695 79.0002H8.87578C4.49171 79.0002 0.976562 75.3 0.976562 70.6852L1.01606 24.9529C1.01606 20.3381 4.49171 16.638 8.87578 16.638H24.6742V8.32302C24.6742 3.70821 28.1894 0.00805664 32.5734 0.00805664H48.3718C52.7559 0.00805664 56.2711 3.70821 56.2711 8.32302V16.638H72.0695Z" fill="#4654B7"/>
</svg>
