<svg width="80" height="79" viewBox="0 0 80 79" fill="none" xmlns="http://www.w3.org/2000/svg">
<path d="M47.7024 16.638V8.32302H31.904V16.638H47.7024ZM8.20634 29.1104V66.5277C8.20634 68.8144 9.98366 70.6852 12.1559 70.6852H67.4504C69.6227 70.6852 71.4 68.8144 71.4 66.5277V29.1104C71.4 26.8238 69.6227 24.9529 67.4504 24.9529H12.1559C9.98366 24.9529 8.20634 26.8238 8.20634 29.1104ZM71.4 16.638C75.7841 16.638 79.2993 20.3381 79.2993 24.9529V70.6852C79.2993 75.3 75.7841 79.0002 71.4 79.0002H8.20634C3.82228 79.0002 0.307129 75.3 0.307129 70.6852L0.346625 24.9529C0.346625 20.3381 3.82228 16.638 8.20634 16.638H24.0048V8.32302C24.0048 3.70821 27.5199 0.00805664 31.904 0.00805664H47.7024C52.0865 0.00805664 55.6016 3.70821 55.6016 8.32302V16.638H71.4Z" fill="#1C1C1C"/>
</svg>
