<svg width="75" height="75" viewBox="0 0 75 75" fill="none" xmlns="http://www.w3.org/2000/svg">
<path d="M70.3 68H3.7C1.66007 68 0 66.305 0 64.2222V49.1111C0 48.7771 0.12994 48.4568 0.361235 48.2207C0.59253 47.9845 0.906233 47.8519 1.23333 47.8519C1.56043 47.8519 1.87414 47.9845 2.10543 48.2207C2.33673 48.4568 2.46667 48.7771 2.46667 49.1111V64.2222C2.46667 64.9148 3.02167 65.4815 3.7 65.4815H70.3C70.9783 65.4815 71.5333 64.9148 71.5333 64.2222V49.1111C71.5333 48.7771 71.6633 48.4568 71.8946 48.2207C72.1259 47.9845 72.4396 47.8519 72.7667 47.8519C73.0938 47.8519 73.4075 47.9845 73.6388 48.2207C73.8701 48.4568 74 48.7771 74 49.1111V64.2222C74 66.305 72.3399 68 70.3 68ZM50.5667 10.0741C50.2396 10.0741 49.9259 9.9414 49.6946 9.70525C49.4633 9.46909 49.3333 9.14879 49.3333 8.81481V3.77778C49.3333 3.08519 48.7783 2.51852 48.1 2.51852H25.9C25.2217 2.51852 24.6667 3.08519 24.6667 3.77778V8.81481C24.6667 9.14879 24.5367 9.46909 24.3054 9.70525C24.0741 9.9414 23.7604 10.0741 23.4333 10.0741C23.1062 10.0741 22.7925 9.9414 22.5612 9.70525C22.3299 9.46909 22.2 9.14879 22.2 8.81481V3.77778C22.2 1.69496 23.8601 0 25.9 0H48.1C50.1399 0 51.8 1.69496 51.8 3.77778V8.81481C51.8 9.14879 51.6701 9.46909 51.4388 9.70525C51.2075 9.9414 50.8938 10.0741 50.5667 10.0741ZM65.3667 47.8519H60.4333C60.1062 47.8519 59.7925 47.7192 59.5612 47.483C59.3299 47.2469 59.2 46.9266 59.2 46.5926C59.2 46.2586 59.3299 45.9383 59.5612 45.7022C59.7925 45.466 60.1062 45.3333 60.4333 45.3333H65.3667C68.7682 45.3333 71.5333 42.5101 71.5333 39.037V15.1111H6.16667C5.83957 15.1111 5.52586 14.9784 5.29457 14.7423C5.06327 14.5061 4.93333 14.1858 4.93333 13.8519C4.93333 13.5179 5.06327 13.1976 5.29457 12.9614C5.52586 12.7253 5.83957 12.5926 6.16667 12.5926H72.7667C73.0938 12.5926 73.4075 12.7253 73.6388 12.9614C73.8701 13.1976 74 13.5179 74 13.8519V39.037C74 43.8978 70.1273 47.8519 65.3667 47.8519Z" fill="#1C1C1C"/>
<path d="M13.3913 48.125H8.52174C3.82261 48.125 0 44.2981 0 39.5938V15.2188C0 14.8955 0.12826 14.5855 0.356566 14.357C0.584871 14.1284 0.894519 14 1.21739 14C1.54026 14 1.84991 14.1284 2.07822 14.357C2.30652 14.5855 2.43478 14.8955 2.43478 15.2188V39.5938C2.43478 42.9551 5.16417 45.6875 8.52174 45.6875H13.3913C13.7142 45.6875 14.0238 45.8159 14.2521 46.0445C14.4804 46.273 14.6087 46.583 14.6087 46.9062C14.6087 47.2295 14.4804 47.5395 14.2521 47.768C14.0238 47.9966 13.7142 48.125 13.3913 48.125ZM45.0435 48.125H28C27.6771 48.125 27.3675 47.9966 27.1392 47.768C26.9109 47.5395 26.7826 47.2295 26.7826 46.9062C26.7826 46.583 26.9109 46.273 27.1392 46.0445C27.3675 45.8159 27.6771 45.6875 28 45.6875H45.0435C45.3663 45.6875 45.676 45.8159 45.9043 46.0445C46.1326 46.273 46.2609 46.583 46.2609 46.9062C46.2609 47.2295 46.1326 47.5395 45.9043 47.768C45.676 47.9966 45.3663 48.125 45.0435 48.125ZM20.6957 53C18.6821 53 17.0435 51.3596 17.0435 49.3438V42.0312C17.0435 41.708 17.1717 41.398 17.4 41.1695C17.6283 40.9409 17.938 40.8125 18.2609 40.8125H23.1304C23.4533 40.8125 23.763 40.9409 23.9913 41.1695C24.2196 41.398 24.3478 41.708 24.3478 42.0312V49.3438C24.3478 51.3596 22.7092 53 20.6957 53ZM19.4783 43.25V49.3438C19.4783 50.0141 20.0261 50.5625 20.6957 50.5625C21.3652 50.5625 21.913 50.0141 21.913 49.3438V43.25H19.4783ZM52.3478 53C50.3343 53 48.6956 51.3596 48.6956 49.3438V42.0312C48.6956 41.708 48.8239 41.398 49.0522 41.1695C49.2805 40.9409 49.5902 40.8125 49.913 40.8125H54.7826C55.1055 40.8125 55.4151 40.9409 55.6434 41.1695C55.8717 41.398 56 41.708 56 42.0312V49.3438C56 51.3596 54.3614 53 52.3478 53ZM51.1304 43.25V49.3438C51.1304 50.0141 51.6783 50.5625 52.3478 50.5625C53.0174 50.5625 53.5652 50.0141 53.5652 49.3438V43.25H51.1304Z" fill="#1C1C1C"/>
</svg>
