<svg width="110" height="68" viewBox="0 0 110 68" fill="none" xmlns="http://www.w3.org/2000/svg">
<path d="M0 15.8956C0 10.3316 0 7.54963 1.08282 5.42447C2.0353 3.55513 3.55513 2.0353 5.42447 1.08282C7.54963 0 10.3316 0 15.8956 0H53.4377C59.0017 0 61.7837 0 63.9089 1.08282C65.7782 2.0353 67.298 3.55513 68.2505 5.42447C69.3333 7.54963 69.3333 10.3316 69.3333 15.8956V52.1044C69.3333 57.6684 69.3333 60.4504 68.2505 62.5755C67.298 64.4449 65.7782 65.9647 63.9089 66.9172C61.7837 68 59.0017 68 53.4377 68H15.8956C10.3316 68 7.54963 68 5.42447 66.9172C3.55513 65.9647 2.0353 64.4449 1.08282 62.5755C0 60.4504 0 57.6684 0 52.1044V15.8956Z" fill="#4856BE"/>
<path d="M26.9367 34.749H26.9046C26.5921 34.7522 26.2833 34.8173 25.9961 34.9406C25.7089 35.0639 25.449 35.243 25.2315 35.4674C24.7874 35.9228 24.5481 36.5231 24.5558 37.1584C24.5636 37.7937 24.8189 38.388 25.2743 38.8315C25.717 39.2659 26.3129 39.5086 26.9331 39.5072H26.9652C27.2777 39.504 27.5866 39.4389 27.8737 39.3156C28.1609 39.1923 28.4208 39.0132 28.6383 38.7888C29.0825 38.3334 29.3217 37.7331 29.314 37.0978C29.3063 36.4625 29.051 35.8682 28.5956 35.4247C28.1528 34.9903 27.5569 34.7476 26.9367 34.749ZM27.7887 37.9599C27.6797 38.0723 27.5495 38.162 27.4056 38.2238C27.2617 38.2855 27.1069 38.3181 26.9504 38.3197H26.9343C26.6239 38.3203 26.3258 38.1988 26.1043 37.9813C25.8757 37.7587 25.7481 37.4618 25.7445 37.143C25.7409 36.8241 25.8603 36.5237 26.0823 36.2957C26.1913 36.1833 26.3216 36.0936 26.4655 36.0318C26.6094 35.9701 26.7641 35.9375 26.9207 35.9359H26.9367C27.2471 35.9353 27.5453 36.0569 27.7667 36.2743C27.9953 36.497 28.123 36.7938 28.1265 37.1127C28.1301 37.4315 28.0108 37.7319 27.7887 37.9599Z" fill="white"/>
<path d="M32.2998 38.7476C32.3777 38.7466 32.4547 38.7302 32.5264 38.6995C32.5981 38.6687 32.6629 38.6241 32.7174 38.5683C32.7718 38.5124 32.8147 38.4464 32.8436 38.374C32.8725 38.3015 32.8868 38.2241 32.8858 38.1461L32.8585 36.014C32.8565 35.8579 32.793 35.7088 32.6819 35.5991C32.5707 35.4894 32.4209 35.4279 32.2647 35.428H32.257L31.4881 35.438C31.4377 35.3058 31.3818 35.1756 31.3207 35.048L31.8568 34.4975C31.9113 34.4418 31.9543 34.3758 31.9832 34.3034C32.0122 34.2309 32.0266 34.1535 32.0256 34.0756C32.0246 33.9976 32.0082 33.9206 31.9774 33.8489C31.9466 33.7772 31.902 33.7124 31.8461 33.658L30.3196 32.1701C30.2068 32.0601 30.0551 31.9995 29.8976 32.0015C29.7402 32.0035 29.59 32.068 29.48 32.1807L28.9439 32.7311C28.8146 32.673 28.6829 32.6205 28.549 32.5738L28.5395 31.8049C28.5386 31.7269 28.5222 31.6499 28.4915 31.5783C28.4607 31.5067 28.4161 31.4418 28.3602 31.3875C28.3047 31.3326 28.2387 31.2894 28.1662 31.2604C28.0937 31.2315 28.0161 31.2173 27.9381 31.2189L25.8059 31.2462C25.7279 31.2472 25.6509 31.2635 25.5793 31.2943C25.5076 31.3251 25.4427 31.3697 25.3883 31.4255C25.3339 31.4814 25.291 31.5474 25.2621 31.6198C25.2332 31.6923 25.2189 31.7697 25.2199 31.8476L25.23 32.6165C25.0976 32.6664 24.9674 32.7221 24.8399 32.7834L24.2895 32.2472C24.1746 32.1405 24.0241 32.0804 23.8673 32.0786C23.7894 32.0794 23.7123 32.0957 23.6407 32.1265C23.569 32.1573 23.5042 32.2019 23.4499 32.2579L21.9614 33.7851C21.9069 33.8409 21.8639 33.9069 21.8349 33.9794C21.806 34.0519 21.7916 34.1293 21.7926 34.2073C21.7936 34.2854 21.8099 34.3624 21.8407 34.4341C21.8715 34.5058 21.9162 34.5708 21.9721 34.6252L22.5231 35.1614C22.4647 35.2903 22.4122 35.4219 22.3657 35.5556L21.5968 35.5645C21.5189 35.5655 21.4418 35.5819 21.3702 35.6127C21.2985 35.6434 21.2336 35.688 21.1792 35.7439C21.1248 35.7997 21.0819 35.8657 21.053 35.9382C21.0241 36.0106 21.0098 36.088 21.0108 36.166L21.0381 38.2975C21.0423 38.6253 21.3243 38.8765 21.6396 38.8836L22.4085 38.8735C22.4589 39.0059 22.5148 39.1359 22.5759 39.2636L22.0398 39.814C21.9853 39.8698 21.9423 39.9358 21.9134 40.0082C21.8844 40.0806 21.87 40.158 21.871 40.236C21.872 40.314 21.8884 40.391 21.9191 40.4626C21.9499 40.5343 21.9946 40.5992 22.0504 40.6535L23.577 42.1415C23.6898 42.2513 23.8465 42.3089 23.9991 42.3101C24.0771 42.3093 24.1541 42.293 24.2258 42.2622C24.2974 42.2314 24.3623 42.1868 24.4165 42.1308L24.9527 41.5804C25.0821 41.6386 25.2134 41.6908 25.3475 41.7377L25.357 42.5066C25.358 42.5846 25.3743 42.6616 25.4051 42.7332C25.4359 42.8048 25.4805 42.8697 25.5364 42.9241C25.6468 43.0325 25.7954 43.0933 25.9502 43.0933H25.9579L28.0901 43.066C28.168 43.0649 28.2451 43.0486 28.3167 43.0178C28.3884 42.987 28.4533 42.9425 28.5077 42.8866C28.5621 42.8308 28.605 42.7647 28.6339 42.6923C28.6628 42.6199 28.6771 42.5425 28.6761 42.4645L28.666 41.6956C28.799 41.6457 28.9284 41.5899 29.0561 41.5287L29.6065 42.0649C29.7187 42.1747 29.8565 42.2311 30.0287 42.2335C30.1066 42.2327 30.1837 42.2164 30.2553 42.1856C30.327 42.1549 30.3918 42.1102 30.4461 42.0542L31.9346 40.5271C31.9891 40.4712 32.0321 40.4052 32.061 40.3327C32.09 40.2603 32.1044 40.1828 32.1034 40.1048C32.1024 40.0268 32.0861 39.9497 32.0553 39.878C32.0245 39.8063 31.9798 39.7414 31.9239 39.6869L31.3729 39.1508C31.4311 39.0219 31.4839 38.8901 31.5303 38.7565L32.2998 38.7476ZM31.0784 37.5755C30.9466 37.5771 30.819 37.6226 30.7159 37.7047C30.6128 37.7869 30.54 37.901 30.509 38.0292C30.4283 38.3613 30.3009 38.6803 30.1308 38.9768C30.0654 39.0911 30.0398 39.2238 30.0581 39.3542C30.0764 39.4845 30.1374 39.6051 30.2317 39.697L30.6699 40.1239L30.0109 40.8008L29.5727 40.3733C29.4781 40.2815 29.3557 40.2236 29.2248 40.2088C29.0938 40.1939 28.9616 40.223 28.8489 40.2914C28.5567 40.4686 28.2411 40.6041 27.9114 40.6939C27.7844 40.7285 27.6725 40.8043 27.5933 40.9095C27.5141 41.0146 27.472 41.143 27.4738 41.2746L27.4815 41.8868L26.5368 41.8992L26.5291 41.2871C26.5275 41.1554 26.482 41.0279 26.4 40.9249C26.318 40.8218 26.2041 40.7489 26.0761 40.7177C25.7438 40.6368 25.4246 40.5094 25.1279 40.3395C25.0135 40.274 24.8808 40.2484 24.7503 40.2666C24.6199 40.2847 24.4991 40.3456 24.407 40.4398L23.9795 40.878L23.3033 40.2189L23.7302 39.7807C23.8221 39.6865 23.8801 39.5644 23.895 39.4336C23.91 39.3028 23.881 39.1707 23.8127 39.0581C23.6353 38.7658 23.4998 38.45 23.4101 38.12C23.3758 37.9928 23.3001 37.8807 23.1949 37.8013C23.0898 37.722 22.9612 37.6799 22.8294 37.6818L22.2173 37.6895L22.2048 36.7449L22.817 36.7372C22.9488 36.7356 23.0763 36.6901 23.1795 36.608C23.2826 36.5258 23.3554 36.4117 23.3864 36.2835C23.4671 35.9516 23.5942 35.6328 23.7646 35.3359C23.83 35.2217 23.8556 35.0889 23.8373 34.9586C23.819 34.8282 23.758 34.7076 23.6637 34.6157L23.2255 34.1888L23.8845 33.5119L24.3227 33.9394C24.4171 34.0315 24.5395 34.0896 24.6706 34.1044C24.8016 34.1193 24.9339 34.09 25.0465 34.0214C25.3387 33.8441 25.6543 33.7086 25.984 33.6188C26.111 33.5842 26.2229 33.5084 26.3021 33.4033C26.3813 33.2982 26.4234 33.1697 26.4216 33.0381L26.4139 32.426L27.3586 32.4135L27.3663 33.0256C27.3679 33.1574 27.4133 33.2848 27.4954 33.3879C27.5774 33.491 27.6913 33.5638 27.8193 33.595C28.1516 33.6759 28.4708 33.8033 28.7675 33.9733C29.0027 34.1075 29.2989 34.0671 29.4884 33.8729L29.9159 33.4347L30.5921 34.0938L30.1652 34.532C30.0733 34.6262 30.0153 34.7484 30.0004 34.8792C29.9854 35.01 30.0144 35.142 30.0827 35.2546C30.2602 35.5467 30.395 35.862 30.4853 36.1927C30.5559 36.4534 30.8065 36.6333 31.0659 36.6309L31.6781 36.6232L31.6906 37.5678L31.0784 37.5755ZM42.343 34.7487C42.0305 34.7519 41.7217 34.817 41.4345 34.9403C41.1473 35.0636 40.8874 35.2427 40.6699 35.4671C40.2257 35.9225 39.9864 36.5228 39.9942 37.1581C40.0019 37.7935 40.2572 38.3878 40.7126 38.8313C41.1554 39.2657 41.7513 39.5084 42.3715 39.507H42.4036C42.7161 39.5039 43.025 39.4388 43.3122 39.3154C43.5994 39.1921 43.8593 39.013 44.0768 38.7886C44.5209 38.3332 44.7602 37.7329 44.7525 37.0976C44.7448 36.4623 44.4894 35.8679 44.034 35.4244C43.578 34.9803 42.9481 34.7493 42.343 34.7487ZM43.2265 37.9597C43.1175 38.0721 42.9873 38.1618 42.8434 38.2236C42.6995 38.2853 42.5448 38.3179 42.3882 38.3195H42.3721C42.0617 38.3201 41.7636 38.1985 41.5421 37.9811C41.3135 37.7584 41.1858 37.4615 41.1823 37.1427C41.1787 36.8239 41.298 36.5234 41.5201 36.2954C41.6291 36.183 41.7594 36.0933 41.9033 36.0316C42.0472 35.9698 42.2019 35.9372 42.3585 35.9356H42.3745C42.6849 35.935 42.9831 36.0566 43.2046 36.274C43.4332 36.4967 43.5608 36.7936 43.5644 37.1124C43.5679 37.4313 43.4486 37.7317 43.2265 37.9597Z" fill="white"/>
<path d="M45.4655 42.2332C45.5435 42.2324 45.6205 42.2161 45.6922 42.1853C45.7638 42.1546 45.8286 42.1099 45.8829 42.0539L47.3714 40.5268C47.4259 40.471 47.4689 40.405 47.4978 40.3325C47.5268 40.26 47.5412 40.1826 47.5402 40.1046C47.5392 40.0265 47.5228 39.9495 47.492 39.8778C47.4612 39.8061 47.4166 39.7411 47.3607 39.6867L46.8097 39.1506C46.8679 39.0217 46.9208 38.8899 46.9671 38.7563L47.7359 38.7462C47.8139 38.7452 47.8909 38.7289 47.9626 38.6981C48.0342 38.6673 48.0991 38.6227 48.1535 38.5669C48.2079 38.511 48.2508 38.445 48.2797 38.3726C48.3086 38.3002 48.323 38.2228 48.322 38.1448L48.2946 36.0133C48.2926 35.8572 48.2292 35.7081 48.118 35.5984C48.0069 35.4888 47.8571 35.4273 47.7009 35.4273H47.6932L46.9243 35.4374C46.8739 35.3051 46.818 35.175 46.7569 35.0473L47.293 34.4969C47.3475 34.4411 47.3905 34.3751 47.4194 34.3027C47.4484 34.2303 47.4628 34.1529 47.4618 34.0749C47.4608 33.9969 47.4444 33.9199 47.4136 33.8483C47.3828 33.7766 47.3382 33.7118 47.2823 33.6574L45.7559 32.1695C45.7001 32.1149 45.6341 32.0719 45.5617 32.0429C45.4893 32.0139 45.4119 31.9995 45.3339 32.0005C45.2559 32.0015 45.1788 32.0178 45.1072 32.0487C45.0355 32.0795 44.9707 32.1242 44.9163 32.1802L44.3802 32.7306C44.2509 32.6724 44.1192 32.62 43.9853 32.5732L43.9758 31.8043C43.9749 31.7264 43.9586 31.6494 43.9278 31.5778C43.897 31.5061 43.8524 31.4413 43.7965 31.3869C43.7411 31.3319 43.6751 31.2887 43.6026 31.2597C43.5301 31.2307 43.4525 31.2167 43.3744 31.2183L41.2423 31.2456C41.1643 31.2466 41.0873 31.263 41.0157 31.2938C40.944 31.3245 40.8791 31.3691 40.8247 31.425C40.7703 31.4808 40.7274 31.5468 40.6985 31.6193C40.6696 31.6917 40.6553 31.7691 40.6563 31.8471L40.6664 32.616C40.534 32.6658 40.4038 32.7215 40.2763 32.7828L39.7259 32.2467C39.6111 32.1398 39.4606 32.0797 39.3038 32.078C39.2258 32.0789 39.1488 32.0952 39.0771 32.1259C39.0055 32.1567 38.9407 32.2014 38.8864 32.2573L37.3979 33.7844C37.3434 33.8403 37.3004 33.9063 37.2715 33.9788C37.2425 34.0512 37.2281 34.1287 37.2291 34.2067C37.2301 34.2847 37.2464 34.3618 37.2772 34.4335C37.308 34.5052 37.3527 34.5701 37.4086 34.6246L37.9596 35.1607C37.9012 35.2897 37.8487 35.4212 37.8022 35.5549L37.0333 35.565C36.9554 35.566 36.8784 35.5824 36.8067 35.6132C36.7351 35.6439 36.6702 35.6885 36.6158 35.7444C36.5613 35.8002 36.5185 35.8662 36.4896 35.9387C36.4607 36.0111 36.4463 36.0885 36.4473 36.1665L36.4746 38.2986C36.4767 38.4547 36.5401 38.6037 36.6513 38.7134C36.7624 38.8231 36.9122 38.8846 37.0684 38.8846H37.0761L37.845 38.8745C37.8954 39.0069 37.9513 39.1369 38.0124 39.2646L37.4763 39.815C37.4218 39.8707 37.3788 39.9367 37.3499 40.0091C37.3209 40.0816 37.3065 40.159 37.3075 40.2369C37.3085 40.3149 37.3249 40.3919 37.3557 40.4636C37.3865 40.5352 37.4311 40.6001 37.487 40.6545L39.0134 42.1424C39.1263 42.2522 39.2842 42.3098 39.4356 42.311C39.5136 42.3102 39.5906 42.2939 39.6622 42.2631C39.7339 42.2323 39.7987 42.1877 39.853 42.1317L40.3891 41.5813C40.5186 41.6395 40.6498 41.6917 40.7839 41.7386L40.7934 42.5075C40.7953 42.6636 40.8587 42.8127 40.9699 42.9223C41.0811 43.032 41.231 43.0933 41.3872 43.0929H41.3949L43.527 43.0656C43.605 43.0646 43.682 43.0483 43.7536 43.0175C43.8253 42.9867 43.8902 42.9421 43.9446 42.8863C43.999 42.8304 44.0419 42.7644 44.0708 42.692C44.0997 42.6196 44.114 42.5422 44.113 42.4642L44.1029 41.6953C44.2359 41.6454 44.3653 41.5896 44.493 41.5285L45.0434 42.0646C45.1562 42.1744 45.2945 42.2308 45.4655 42.2332ZM44.2858 40.2911C43.9936 40.4684 43.678 40.6039 43.3483 40.6937C43.2213 40.7283 43.1094 40.8041 43.0302 40.9092C42.951 41.0143 42.909 41.1427 42.9107 41.2743L42.9184 41.8865L41.9738 41.8989L41.9661 41.2868C41.9644 41.1551 41.919 41.0277 41.837 40.9246C41.755 40.8215 41.641 40.7486 41.5131 40.7174C41.1808 40.6365 40.8616 40.5092 40.5649 40.3392C40.4506 40.2738 40.3178 40.2482 40.1873 40.2663C40.0569 40.2845 39.9362 40.3454 39.8441 40.4396L39.4166 40.8777L38.7403 40.2187L39.1672 39.7805C39.2591 39.6863 39.3171 39.5641 39.3321 39.4333C39.347 39.3025 39.318 39.1705 39.2497 39.0579C39.0724 38.7656 38.9369 38.4498 38.8472 38.1199C38.813 37.994 38.7384 37.883 38.6349 37.8038C38.5313 37.7246 38.4046 37.6817 38.2742 37.6817H38.2665L37.6544 37.6894L37.6419 36.7448L38.2541 36.7371C38.3859 36.7355 38.5134 36.69 38.6165 36.6079C38.7196 36.5257 38.7924 36.4116 38.8234 36.2834C38.9042 35.9515 39.0313 35.6327 39.2017 35.3358C39.2671 35.2216 39.2926 35.0889 39.2744 34.9585C39.2561 34.8281 39.195 34.7075 39.1007 34.6157L38.6625 34.1888L39.3216 33.5119L39.7598 33.9394C39.8542 34.0315 39.9765 34.0895 40.1076 34.1044C40.2387 34.1192 40.3709 34.09 40.4835 34.0213C40.7757 33.8441 41.0913 33.7086 41.421 33.6188C41.548 33.5842 41.6599 33.5084 41.7391 33.4033C41.8183 33.2981 41.8603 33.1697 41.8586 33.0381L41.8509 32.426L42.7955 32.4135L42.8032 33.0256C42.8049 33.1574 42.8503 33.2848 42.9323 33.3879C43.0143 33.4909 43.1283 33.5638 43.2562 33.595C43.5885 33.6759 43.9077 33.8032 44.2044 33.9732C44.4396 34.1074 44.7358 34.067 44.9252 33.8729L45.3527 33.4347L46.029 34.0938L45.6021 34.5319C45.5102 34.6262 45.4522 34.7483 45.4372 34.8791C45.4223 35.0099 45.4512 35.142 45.5195 35.2545C45.6971 35.5466 45.8319 35.8619 45.9221 36.1926C45.9928 36.4532 46.2071 36.6331 46.5028 36.6308L47.1149 36.6231L47.1274 37.5677L46.5152 37.5754C46.3834 37.577 46.2559 37.6224 46.1528 37.7046C46.0497 37.7867 45.9769 37.9009 45.9458 38.029C45.8651 38.3611 45.7378 38.6802 45.5676 38.9766C45.5022 39.0909 45.4767 39.2236 45.4949 39.354C45.5132 39.4843 45.5743 39.6049 45.6686 39.6968L46.1067 40.1237L45.4477 40.8005L45.0095 40.3731C44.9151 40.281 44.7927 40.2229 44.6617 40.2081C44.5306 40.1932 44.3984 40.2225 44.2858 40.2911ZM36.3143 23.5491C35.859 23.105 35.2355 22.8806 34.6234 22.874C34.3109 22.8772 34.002 22.9423 33.7149 23.0656C33.4277 23.1889 33.1678 23.368 32.9503 23.5924C32.5061 24.0478 32.2669 24.6481 32.2746 25.2834C32.2823 25.9187 32.5376 26.513 32.993 26.9565C33.4358 27.3909 34.0317 27.6336 34.6519 27.6322H34.684C34.9965 27.629 35.3053 27.5639 35.5925 27.4406C35.8797 27.3173 36.1396 27.1382 36.3571 26.9138C36.8012 26.4584 37.0405 25.8581 37.0328 25.2228C37.025 24.5875 36.7697 23.9932 36.3143 23.5491ZM35.5075 26.0849C35.3984 26.1973 35.2682 26.287 35.1243 26.3488C34.9804 26.4105 34.8257 26.4431 34.6691 26.4447C34.3711 26.4323 34.0504 26.3289 33.8225 26.1069C33.5939 25.8842 33.4662 25.5874 33.4627 25.2685C33.4591 24.9497 33.5784 24.6493 33.8005 24.4213C33.9095 24.3089 34.0397 24.2192 34.1836 24.1574C34.3275 24.0957 34.4822 24.0631 34.6388 24.0615H34.6549C34.9653 24.0609 35.2634 24.1825 35.4849 24.3999C35.7135 24.6226 35.8411 24.9194 35.8447 25.2383C35.8483 25.5571 35.7295 25.8569 35.5075 26.0849Z" fill="white"/>
<path d="M37.3258 30.1904C37.4386 30.3002 37.596 30.3483 37.748 30.359C37.8259 30.3582 37.903 30.3419 37.9746 30.3111C38.0463 30.2803 38.1111 30.2357 38.1654 30.1797L39.6539 28.6526C39.7084 28.5967 39.7514 28.5307 39.7803 28.4582C39.8093 28.3858 39.8237 28.3083 39.8227 28.2303C39.8217 28.1522 39.8054 28.0752 39.7746 28.0035C39.7438 27.9318 39.6991 27.8668 39.6432 27.8124L39.0922 27.2763C39.1504 27.1474 39.2032 27.0156 39.2496 26.882L40.0185 26.8719C40.0964 26.8709 40.1734 26.8545 40.2451 26.8238C40.3168 26.793 40.3816 26.7484 40.4361 26.6926C40.4905 26.6367 40.5334 26.5707 40.5623 26.4983C40.5912 26.4258 40.6055 26.3484 40.6045 26.2704L40.5772 24.1389C40.5736 23.9819 40.5086 23.8326 40.3961 23.723C40.2837 23.6134 40.1327 23.5523 39.9757 23.5528L39.2068 23.5629C39.1564 23.4307 39.1005 23.3005 39.0394 23.1728L39.5755 22.6224C39.63 22.5666 39.673 22.5007 39.7019 22.4282C39.7309 22.3558 39.7453 22.2784 39.7443 22.2004C39.7433 22.1225 39.7269 22.0454 39.6961 21.9738C39.6654 21.9021 39.6207 21.8373 39.5648 21.7829L38.0383 20.2949C37.9255 20.1851 37.7527 20.115 37.6161 20.1263C37.5382 20.1271 37.4611 20.1434 37.3895 20.1742C37.3179 20.205 37.253 20.2496 37.1987 20.3056L36.6626 20.856C36.5333 20.7979 36.4016 20.7454 36.2677 20.6987L36.2582 19.9298C36.2574 19.8518 36.2412 19.7748 36.2105 19.7031C36.1798 19.6314 36.1353 19.5665 36.0794 19.512C36.0236 19.4576 35.9576 19.4147 35.8852 19.3858C35.8128 19.357 35.7353 19.3427 35.6574 19.3438L33.5252 19.3711C33.4472 19.3721 33.3702 19.3884 33.2986 19.4192C33.2269 19.45 33.162 19.4946 33.1076 19.5504C33.0532 19.6063 33.0103 19.6723 32.9814 19.7447C32.9525 19.8171 32.9382 19.8946 32.9392 19.9725L32.9493 20.7414C32.8169 20.7913 32.6867 20.847 32.5592 20.9083L32.0088 20.3721C31.954 20.3162 31.8882 20.2723 31.8155 20.2432C31.7428 20.2142 31.6648 20.2007 31.5866 20.2035C31.5086 20.2043 31.4316 20.2206 31.36 20.2514C31.2883 20.2822 31.2235 20.3268 31.1692 20.3828L29.6807 21.9099C29.6262 21.9658 29.5832 22.0318 29.5542 22.1043C29.5253 22.1767 29.5109 22.2542 29.5119 22.3322C29.5129 22.4103 29.5292 22.4873 29.56 22.559C29.5908 22.6307 29.6355 22.6957 29.6914 22.7501L30.2424 23.2863C30.184 23.4152 30.1315 23.5468 30.085 23.6805L29.3161 23.6906C29.2381 23.6916 29.1611 23.708 29.0895 23.7387C29.0178 23.7695 28.9529 23.8141 28.8985 23.8699C28.8441 23.9258 28.8012 23.9918 28.7723 24.0642C28.7434 24.1367 28.7291 24.2141 28.7301 24.2921L28.7574 26.4242C28.7594 26.5803 28.8229 26.7294 28.934 26.8391C29.0451 26.9488 29.195 27.0103 29.3512 27.0103H29.3589L30.1278 27.0002C30.1782 27.1326 30.2341 27.2626 30.2952 27.3903L29.7591 27.9407C29.7046 27.9964 29.6616 28.0624 29.6327 28.1349C29.6037 28.2073 29.5893 28.2847 29.5903 28.3627C29.5913 28.4406 29.6076 28.5177 29.6384 28.5893C29.6692 28.661 29.7139 28.7258 29.7697 28.7802L31.2963 30.2682C31.4085 30.378 31.5468 30.4273 31.7184 30.4368C31.7964 30.436 31.8734 30.4197 31.9451 30.3889C32.0167 30.3581 32.0816 30.3135 32.1358 30.2575L32.672 29.7071C32.8014 29.7653 32.9327 29.8175 33.0668 29.8644L33.0763 30.6333C33.0782 30.7892 33.1415 30.9381 33.2524 31.0477C33.3633 31.1573 33.513 31.2188 33.6689 31.2188H33.6766L35.8088 31.1914C35.8867 31.1904 35.9638 31.1741 36.0354 31.1433C36.1071 31.1125 36.172 31.0679 36.2264 31.0121C36.2808 30.9562 36.3237 30.8902 36.3526 30.8178C36.3815 30.7454 36.3958 30.6679 36.3948 30.59L36.3847 29.8211C36.5177 29.7712 36.6472 29.7154 36.7748 29.6542L37.3258 30.1904ZM35.6301 28.8188C35.5031 28.8534 35.3912 28.9292 35.312 29.0343C35.2328 29.1395 35.1907 29.2679 35.1925 29.3995L35.2002 30.0117L34.2555 30.0241L34.2478 29.412C34.2462 29.2803 34.2008 29.1528 34.1187 29.0497C34.0367 28.9467 33.9228 28.8738 33.7948 28.8426C33.4625 28.7617 33.1433 28.6343 32.8466 28.4643C32.7322 28.3989 32.5995 28.3733 32.469 28.3914C32.3386 28.4096 32.2178 28.4705 32.1257 28.5647L31.6982 29.0029L31.022 28.3438L31.4489 27.9056C31.5408 27.8114 31.5988 27.6892 31.6137 27.5584C31.6287 27.4276 31.5997 27.2956 31.5314 27.183C31.354 26.8907 31.2185 26.5749 31.1288 26.2449C31.0582 25.9837 30.8064 25.7919 30.5482 25.8067L29.936 25.8144L29.9235 24.8698L30.5357 24.8621C30.6675 24.8605 30.795 24.815 30.8982 24.7329C31.0013 24.6507 31.0741 24.5366 31.1051 24.4084C31.1858 24.0765 31.3129 23.7577 31.4833 23.4608C31.5487 23.3466 31.5743 23.2138 31.556 23.0834C31.5377 22.9531 31.4767 22.8325 31.3824 22.7406L30.9442 22.3137L31.6032 21.6368L32.0414 22.0643C32.2356 22.2531 32.5337 22.287 32.7652 22.1463C33.0574 21.969 33.373 21.8335 33.7027 21.7437C33.8297 21.7091 33.9416 21.6333 34.0208 21.5282C34.1 21.4231 34.1421 21.2946 34.1403 21.163L34.1326 20.5508L35.0773 20.5384L35.085 21.1505C35.0866 21.2823 35.1321 21.4097 35.2141 21.5128C35.2961 21.6158 35.41 21.6887 35.538 21.7199C35.8703 21.8008 36.1895 21.9282 36.4862 22.0982C36.7214 22.2323 37.0177 22.192 37.2071 21.9978L37.6346 21.5596L38.3108 22.2187L37.8839 22.6569C37.792 22.7511 37.734 22.8733 37.7191 23.0041C37.7041 23.1349 37.7331 23.2669 37.8014 23.3795C37.9789 23.6716 38.1137 23.9869 38.204 24.3176C38.274 24.5788 38.5074 24.7445 38.7847 24.7558L39.3968 24.7481L39.4093 25.6927L38.7971 25.7004C38.6653 25.702 38.5378 25.7475 38.4346 25.8296C38.3315 25.9118 38.2587 26.0259 38.2277 26.1541C38.147 26.4862 38.0196 26.8052 37.8495 27.1017C37.7841 27.2159 37.7585 27.3487 37.7768 27.4791C37.7951 27.6094 37.8561 27.73 37.9504 27.8219L38.3886 28.2488L37.7296 28.9257L37.2914 28.4982C37.197 28.4061 37.0746 28.348 36.9435 28.3332C36.8125 28.3184 36.6802 28.3476 36.5676 28.4163C36.2757 28.5941 35.96 28.7297 35.6301 28.8188ZM18.6642 37.5196C18.5618 37.1555 18.4717 36.7879 18.3941 36.4176L17.2321 36.6611C17.3147 37.0559 17.412 37.4525 17.5207 37.8408L18.6642 37.5196ZM19.4266 39.653C19.2754 39.3067 19.136 38.9554 19.0086 38.5997L17.8906 39.0004C18.0266 39.3798 18.1768 39.7593 18.3377 40.128L19.4266 39.653ZM20.4734 41.661C20.2765 41.3387 20.0905 41.0098 19.9159 40.6748L18.8626 41.2234C19.0478 41.5797 19.2485 41.9353 19.4611 42.2815L20.4734 41.661ZM18.1993 35.3002C18.1475 34.9256 18.1087 34.5493 18.083 34.1721L16.8978 34.2546C16.9263 34.6566 16.9679 35.0633 17.0237 35.4635L18.1993 35.3002ZM21.785 43.5106C21.5457 43.2178 21.3164 42.917 21.0974 42.6087L20.129 43.295C20.3612 43.6222 20.6088 43.9476 20.8653 44.2617L21.785 43.5106ZM27.5212 16.679C27.1525 16.8405 26.7844 17.0174 26.4263 17.2045L26.9762 18.2566C27.3111 18.0815 27.6519 17.918 27.998 17.7662L27.5212 16.679ZM16.8545 33V33.038L18.042 33C18.042 32.6313 18.0539 32.2649 18.0776 31.9022L16.8925 31.825C16.867 32.2161 16.8543 32.608 16.8545 33ZM25.9905 18.8159L25.3689 17.8042C25.0233 18.0161 24.6825 18.2418 24.3559 18.4739L25.0435 19.4417C25.3493 19.225 25.6675 19.0142 25.9905 18.8159ZM29.8832 50.1623C30.2732 50.271 30.6711 50.3666 31.0647 50.4473L31.3034 49.2842C30.933 49.208 30.5652 49.1192 30.2008 49.0182L29.8832 50.1623ZM18.3074 25.9415L19.3975 26.4123C19.546 26.0686 19.7092 25.7236 19.8832 25.3858L18.8281 24.8419C18.6422 25.2024 18.4685 25.5692 18.3074 25.9415ZM23.4439 46.8326C23.7574 47.0879 24.084 47.3349 24.4129 47.5665L25.0969 46.5957C24.7877 46.3775 24.4859 46.149 24.1921 45.9105L23.4439 46.8326ZM26.4905 48.8294L27.0367 47.7749C26.7002 47.6014 26.3701 47.4158 26.0469 47.2185L25.43 48.2333C25.7738 48.4428 26.1312 48.6429 26.4905 48.8294ZM27.5901 49.3513C27.9588 49.5116 28.34 49.6612 28.723 49.7966L29.1196 48.6768C28.7624 48.5506 28.4096 48.412 28.0621 48.2612L27.5901 49.3513ZM20.8225 21.7918L21.7446 22.5399C21.9833 22.2454 22.2339 21.9574 22.4892 21.6831L21.6193 20.8744C21.343 21.1707 21.0772 21.4767 20.8225 21.7918ZM40.1788 17.3108C40.5321 17.4348 40.8877 17.5738 41.2374 17.724L41.7059 16.6327C41.3334 16.4724 40.9556 16.3248 40.573 16.1903L40.1788 17.3108ZM24.1416 20.1299L23.3887 19.2108C23.0764 19.4673 22.7682 19.7368 22.4755 20.0123L23.2884 20.8774C23.5627 20.6203 23.8495 20.3692 24.1416 20.1299ZM17.0124 30.6161L18.1892 30.7734C18.2385 30.4023 18.3021 30.0265 18.3775 29.6548L17.2143 29.4179C17.1336 29.8157 17.0653 30.2183 17.0124 30.6161ZM17.4993 28.2352L18.6441 28.5516C18.7432 28.1924 18.8578 27.8278 18.9837 27.4692L17.8633 27.0756C17.7291 27.4579 17.6077 27.8447 17.4993 28.2352ZM19.4231 23.7803L20.439 24.396C20.6349 24.0718 20.8445 23.7523 21.06 23.446L20.0892 22.762C19.8583 23.0903 19.6338 23.4329 19.4231 23.7803ZM23.3359 45.1659C23.0591 44.9077 22.7909 44.6404 22.5319 44.3644L21.6657 45.176C21.9406 45.4699 22.2303 45.7585 22.526 46.034L23.3359 45.1659ZM52.3162 35.4237L51.1394 35.2628C51.0886 35.6376 51.0248 36.0105 50.9482 36.3808L52.1114 36.6213C52.1921 36.2288 52.261 35.8257 52.3162 35.4237ZM51.824 37.8028L50.6804 37.4828C50.5785 37.847 50.4642 38.2076 50.3378 38.564L51.4571 38.9613C51.5907 38.5836 51.7141 38.1935 51.824 37.8028ZM49.8902 42.253L48.8754 41.6355C48.6789 41.9585 48.4712 42.2746 48.2526 42.5831L49.221 43.2701C49.4556 42.9388 49.6788 42.5996 49.8902 42.253ZM52.4795 32.9863L52.4789 32.924H51.2914L51.292 33C51.292 33.3812 51.2795 33.7594 51.254 34.1347L52.4391 34.2142C52.4662 33.8055 52.4796 33.396 52.4795 32.9863ZM51.0106 40.0941L49.9216 39.6215C49.771 39.9687 49.6082 40.3105 49.4336 40.6463L50.4875 41.1938C50.6739 40.8351 50.8502 40.4652 51.0106 40.0941ZM49.8931 26.3144C50.0469 26.6641 50.1876 27.018 50.3123 27.3653L51.4303 26.9651C51.2934 26.5837 51.1431 26.2072 50.9797 25.8364L49.8931 26.3144ZM51.1293 30.6636C51.1816 31.0359 51.2207 31.4123 51.2486 31.7923L52.4326 31.7062C52.4037 31.3023 52.3611 30.8995 52.3049 30.4985L51.1293 30.6636ZM48.4871 44.2391L47.5662 43.4892C47.3257 43.7843 47.0752 44.0717 46.8199 44.3436L47.6873 45.1553C47.9611 44.8637 48.23 44.555 48.4871 44.2391ZM48.8416 24.3075C49.0387 24.6287 49.2275 24.96 49.4015 25.2925L50.453 24.7415C50.2653 24.3824 50.0649 24.0301 49.8521 23.6853L48.8416 24.3075ZM50.6614 28.4459C50.763 28.8034 50.855 29.1739 50.934 29.5473L52.0959 29.3009C52.0114 28.9046 51.914 28.5111 51.8038 28.1212L50.6614 28.4459ZM28.6487 16.2295L29.0501 17.3476C29.4058 17.2199 29.7686 17.1035 30.1296 17.0014L29.8072 15.8584C29.42 15.9683 29.0299 16.093 28.6487 16.2295ZM33.4777 16.4172C33.8552 16.3905 34.2334 16.3765 34.6118 16.375L34.607 15.1875C34.2009 15.1887 33.7924 15.2041 33.3928 15.2326L33.4777 16.4172ZM32.349 16.5353L32.1851 15.3597C31.7867 15.4149 31.3836 15.485 30.9875 15.5687L31.231 16.7307C31.6013 16.6528 31.9742 16.5876 32.349 16.5353ZM39.4134 15.8264C39.0226 15.7192 38.6283 15.6249 38.2313 15.5437L37.995 16.7075C38.3619 16.7817 38.733 16.8708 39.0982 16.9711L39.4134 15.8264ZM36.8752 16.5205L37.0307 15.3437C36.6292 15.2906 36.226 15.251 35.8218 15.2249L35.7464 16.41C36.1199 16.4338 36.4999 16.4706 36.8752 16.5205ZM33.5519 49.5882C33.1745 49.5634 32.7981 49.5257 32.4232 49.4754L32.2641 50.6522C32.6613 50.7056 33.068 50.7466 33.473 50.7739L33.5519 49.5882ZM46.8288 46.0144L46.0183 45.1469C45.742 45.4051 45.4571 45.6539 45.1639 45.8927L45.9144 46.8136C46.2281 46.5576 46.5331 46.291 46.8288 46.0144ZM46.7789 19.9387L45.9708 20.8091C46.2481 21.0662 46.5188 21.3352 46.7759 21.6089L47.641 20.7949C47.3632 20.5 47.0757 20.2145 46.7789 19.9387ZM45.8598 19.1431C45.5445 18.8878 45.2205 18.6434 44.8884 18.4104L44.2068 19.3829C44.5167 19.6008 44.8219 19.83 45.1117 20.0658L45.8598 19.1431ZM42.8085 17.1528L42.2646 18.2085C42.5989 18.3807 42.9326 18.5671 43.2556 18.7625L43.8701 17.746C43.5229 17.5365 43.1689 17.3387 42.8085 17.1528ZM47.5252 22.4609C47.7663 22.7548 47.9985 23.0577 48.2146 23.3617L49.1818 22.6729C48.9468 22.343 48.7006 22.0212 48.4438 21.7081L47.5252 22.4609ZM41.7771 49.337C42.1483 49.1751 42.5139 49.0006 42.8732 48.8139L42.3258 47.7606C41.9909 47.9346 41.6465 48.0991 41.3027 48.2487L41.7771 49.337ZM34.6878 50.8125C35.0927 50.8119 35.4974 50.7979 35.9014 50.7703L35.8201 49.5858C35.4448 49.6113 35.0666 49.6244 34.6854 49.625L34.6878 50.8125ZM43.3126 47.2031L43.9307 48.2172C44.2765 48.006 44.6151 47.7832 44.946 47.5493L44.2608 46.5797C43.9491 46.7999 43.6302 47.0095 43.3126 47.2031ZM37.1097 50.6457C37.5081 50.591 37.9112 50.5222 38.3079 50.4396L38.0668 49.2771C37.6969 49.3537 37.3205 49.4184 36.9488 49.4694L37.1097 50.6457ZM39.1688 49.0081L39.4888 50.1517C39.8794 50.0424 40.266 49.9194 40.6478 49.7829L40.2488 48.6643C39.8944 48.7914 39.5304 48.9072 39.1688 49.0081Z" fill="white"/>
</svg>
