<svg width="110" height="68" viewBox="0 0 110 68" fill="none" xmlns="http://www.w3.org/2000/svg">
<path d="M0 15.8956C0 10.3316 0 7.54963 1.08282 5.42447C2.0353 3.55513 3.55513 2.0353 5.42447 1.08282C7.54963 0 10.3316 0 15.8956 0H53.4377C59.0017 0 61.7837 0 63.9089 1.08282C65.7782 2.0353 67.298 3.55513 68.2505 5.42447C69.3333 7.54963 69.3333 10.3316 69.3333 15.8956V52.1044C69.3333 57.6684 69.3333 60.4504 68.2505 62.5755C67.298 64.4449 65.7782 65.9647 63.9089 66.9172C61.7837 68 59.0017 68 53.4377 68H15.8956C10.3316 68 7.54963 68 5.42447 66.9172C3.55513 65.9647 2.0353 64.4449 1.08282 62.5755C0 60.4504 0 57.6684 0 52.1044V15.8956Z" fill="#4856BE"/>
<path d="M52.3373 17.7188L34.8691 33.8432" stroke="white" stroke-width="2.17825" stroke-miterlimit="10" stroke-linecap="round" stroke-linejoin="round"/>
<path d="M46.3066 33.8438C46.3066 40.1605 41.1859 45.2813 34.8691 45.2813C28.5524 45.2813 23.4316 40.1605 23.4316 33.8438C23.4316 27.527 28.5524 22.4062 34.8691 22.4062C41.1859 22.4062 46.3066 27.527 46.3066 33.8438Z" stroke="white" stroke-width="4" stroke-miterlimit="10" stroke-linecap="round" stroke-linejoin="round"/>
<path d="M34.8689 40.5621C38.5795 40.5621 41.5875 37.5541 41.5875 33.8435C41.5875 30.133 38.5795 27.125 34.8689 27.125C31.1584 27.125 28.1504 30.133 28.1504 33.8435C28.1504 37.5541 31.1584 40.5621 34.8689 40.5621Z" stroke="white" stroke-width="2" stroke-miterlimit="10" stroke-linecap="round" stroke-linejoin="round"/>
<path d="M24.1191 49.9686L26.8066 44.5938" stroke="white" stroke-width="2.17825" stroke-miterlimit="10" stroke-linecap="round" stroke-linejoin="round"/>
<path d="M45.6191 49.9686L42.9316 44.5938" stroke="white" stroke-width="2.17825" stroke-miterlimit="10" stroke-linecap="round" stroke-linejoin="round"/>
<path d="M52.3379 13.6875V17.7186H56.369" stroke="white" stroke-width="2.17825" stroke-miterlimit="10" stroke-linecap="round" stroke-linejoin="round"/>
<path d="M48.3066 17.7188V21.7499H52.3378" stroke="white" stroke-width="2.17825" stroke-miterlimit="10" stroke-linecap="round" stroke-linejoin="round"/>
</svg>
