<svg width="110" height="68" viewBox="0 0 110 68" fill="none" xmlns="http://www.w3.org/2000/svg">
<path d="M0 15.8956C0 10.3316 0 7.54963 1.08282 5.42447C2.0353 3.55513 3.55513 2.0353 5.42447 1.08282C7.54963 0 10.3316 0 15.8956 0H53.4377C59.0017 0 61.7837 0 63.9089 1.08282C65.7782 2.0353 67.298 3.55513 68.2505 5.42447C69.3333 7.54963 69.3333 10.3316 69.3333 15.8956V52.1044C69.3333 57.6684 69.3333 60.4504 68.2505 62.5755C67.298 64.4449 65.7782 65.9647 63.9089 66.9172C61.7837 68 59.0017 68 53.4377 68H15.8956C10.3316 68 7.54963 68 5.42447 66.9172C3.55513 65.9647 2.0353 64.4449 1.08282 62.5755C0 60.4504 0 57.6684 0 52.1044V15.8956Z" fill="#4856BE"/>
<path d="M38.2 23.7368V20.3684H31.8V23.7368H38.2ZM22.2 28.7895V43.9474C22.2 44.8737 22.92 45.6316 23.8 45.6316H46.2C47.08 45.6316 47.8 44.8737 47.8 43.9474V28.7895C47.8 27.8632 47.08 27.1053 46.2 27.1053H23.8C22.92 27.1053 22.2 27.8632 22.2 28.7895ZM47.8 23.7368C49.576 23.7368 51 25.2358 51 27.1053V45.6316C51 47.5011 49.576 49 47.8 49H22.2C20.424 49 19 47.5011 19 45.6316L19.016 27.1053C19.016 25.2358 20.424 23.7368 22.2 23.7368H28.6V20.3684C28.6 18.4989 30.024 17 31.8 17H38.2C39.976 17 41.4 18.4989 41.4 20.3684V23.7368H47.8Z" fill="white"/>
</svg>
