<svg width="110" height="68" viewBox="0 0 110 68" fill="none" xmlns="http://www.w3.org/2000/svg">
<path d="M0 15.8956C0 10.3316 0 7.54963 1.08282 5.42447C2.0353 3.55513 3.55513 2.0353 5.42447 1.08282C7.54963 0 10.3316 0 15.8956 0H54.5044C60.0684 0 62.8504 0 64.9755 1.08282C66.8449 2.0353 68.3647 3.55513 69.3172 5.42447C70.4 7.54963 70.4 10.3316 70.4 15.8956V52.1044C70.4 57.6684 70.4 60.4504 69.3172 62.5755C68.3647 64.4449 66.8449 65.9647 64.9755 66.9172C62.8504 68 60.0684 68 54.5044 68H15.8956C10.3316 68 7.54963 68 5.42447 66.9172C3.55513 65.9647 2.0353 64.4449 1.08282 62.5755C0 60.4504 0 57.6684 0 52.1044V15.8956Z" fill="#4856BE"/>
<g clip-path="url(#clip0_142_14668)">
<path d="M50.1882 20.2295H20.8782C20.1382 20.2295 19.5332 20.8295 19.5332 21.5745V42.6345C19.5332 43.3795 20.1382 43.9795 20.8782 43.9795H31.4082L30.9332 46.0395H29.8432C29.1782 46.0395 28.1332 46.8145 28.1332 47.7695H42.9382C42.9382 46.8145 41.8932 46.0395 41.2282 46.0395H40.1382L39.6632 43.9795H50.1882C50.9332 43.9795 51.5332 43.3795 51.5332 42.6345V21.5745C51.5332 20.8295 50.9332 20.2295 50.1882 20.2295ZM49.5882 40.4645H21.4832V22.3445H49.5882V40.4645Z" fill="white"/>
<path d="M28.5079 31.6652H24.6431C24.6981 32.7101 25.1181 33.6651 25.778 34.4001L28.5079 31.6652ZM28.8629 26.9453C26.588 27.0703 24.7681 28.8903 24.6431 31.1652H28.8629V26.9453Z" fill="white"/>
<path d="M29.1133 35.895C31.4632 35.895 33.3982 34.0701 33.5732 31.7652H36.5381V36.145C36.5381 36.34 36.6931 36.495 36.8881 36.495H42.9329V38.235C42.9329 38.375 43.0429 38.485 43.1829 38.485H46.5528C46.6928 38.485 46.8028 38.375 46.8028 38.235V34.0501C46.8028 33.9101 46.6928 33.8001 46.5528 33.8001H43.1829C43.0429 33.8001 42.9329 33.9101 42.9329 34.0501V35.7901H37.2431V26.6353H39.238V28.3753C39.238 28.5153 39.348 28.6253 39.488 28.6253H42.8579C42.9979 28.6253 43.1079 28.5153 43.1079 28.3753V24.1904C43.1079 24.0504 42.9979 23.9404 42.8579 23.9404H39.488C39.348 23.9404 39.238 24.0504 39.238 24.1904V25.9304H36.8931C36.6981 25.9304 36.5431 26.0854 36.5431 26.2804V31.0602H33.5782C33.4032 28.8353 31.6032 27.0653 29.3633 26.9403V31.4102C29.3633 31.4752 29.3383 31.5402 29.2883 31.5902L26.1284 34.7451C26.9234 35.4601 27.9684 35.895 29.1133 35.895ZM43.9678 34.7951H45.7828C45.9228 34.7951 46.0328 34.9051 46.0328 35.0451C46.0328 35.1851 45.9228 35.2951 45.7828 35.2951H43.9678C43.8279 35.2951 43.7179 35.1851 43.7179 35.0451C43.7179 34.9051 43.8279 34.7951 43.9678 34.7951ZM43.9678 35.895H45.7828C45.9228 35.895 46.0328 36.005 46.0328 36.145C46.0328 36.285 45.9228 36.395 45.7828 36.395H43.9678C43.8279 36.395 43.7179 36.285 43.7179 36.145C43.7179 36.01 43.8279 35.895 43.9678 35.895ZM43.9678 36.995H45.7828C45.9228 36.995 46.0328 37.105 46.0328 37.245C46.0328 37.385 45.9228 37.495 45.7828 37.495H43.9678C43.8279 37.495 43.7179 37.385 43.7179 37.245C43.7179 37.11 43.8279 36.995 43.9678 36.995ZM40.268 24.9354H42.0829C42.2229 24.9354 42.3329 25.0454 42.3329 25.1854C42.3329 25.3254 42.2229 25.4354 42.0829 25.4354H40.268C40.128 25.4354 40.018 25.3254 40.018 25.1854C40.018 25.0454 40.128 24.9354 40.268 24.9354ZM40.268 26.0354H42.0829C42.2229 26.0354 42.3329 26.1454 42.3329 26.2854C42.3329 26.4253 42.2229 26.5353 42.0829 26.5353H40.268C40.128 26.5353 40.018 26.4253 40.018 26.2854C40.018 26.1454 40.128 26.0354 40.268 26.0354ZM40.268 27.1353H42.0829C42.2229 27.1353 42.3329 27.2453 42.3329 27.3853C42.3329 27.5253 42.2229 27.6353 42.0829 27.6353H40.268C40.128 27.6353 40.018 27.5253 40.018 27.3853C40.018 27.2453 40.128 27.1353 40.268 27.1353Z" fill="white"/>
</g>
<defs>
<clipPath id="clip0_142_14668">
<rect width="32" height="32" fill="white" transform="translate(19.5332 18)"/>
</clipPath>
</defs>
</svg>
