<svg width="110" height="68" viewBox="0 0 110 68" fill="none" xmlns="http://www.w3.org/2000/svg">
<path d="M0 15.8956C0 10.3316 0 7.54963 1.08282 5.42447C2.0353 3.55513 3.55513 2.0353 5.42447 1.08282C7.54963 0 10.3316 0 15.8956 0H54.5044C60.0684 0 62.8504 0 64.9755 1.08282C66.8449 2.0353 68.3647 3.55513 69.3172 5.42447C70.4 7.54963 70.4 10.3316 70.4 15.8956V52.1044C70.4 57.6684 70.4 60.4504 69.3172 62.5755C68.3647 64.4449 66.8449 65.9647 64.9755 66.9172C62.8504 68 60.0684 68 54.5044 68H15.8956C10.3316 68 7.54963 68 5.42447 66.9172C3.55513 65.9647 2.0353 64.4449 1.08282 62.5755C0 60.4504 0 57.6684 0 52.1044V15.8956Z" fill="#4856BE"/>
<g clip-path="url(#clip0_142_14660)">
<path d="M40.4951 47.9997H42.2169H43.1889L43.1821 46.941L42.8966 46.7988L40.4951 47.9997Z" fill="white"/>
<path d="M42.4906 34.2406L40.3564 38.3574L35.5829 39.0136C35.4988 39.025 35.4197 39.059 35.3547 39.1117C35.2896 39.1645 35.2412 39.2338 35.215 39.3118C35.1888 39.3898 35.1858 39.4733 35.2064 39.5528C35.227 39.6324 35.2703 39.7048 35.3314 39.7617L38.7841 42.9685L38.0342 47.1246L37.9685 47.4877C37.954 47.568 37.963 47.6506 37.9945 47.7262C38.026 47.8019 38.0788 47.8675 38.1469 47.9157C38.2149 47.9639 38.2956 47.9928 38.3798 47.9991C38.464 48.0054 38.5483 47.9889 38.6233 47.9514L42.8961 45.8121L43.2382 45.9849L47.1689 47.9536C47.2439 47.9911 47.3282 48.0076 47.4124 48.0013C47.4966 47.995 47.5772 47.9661 47.6453 47.9179C47.7134 47.8697 47.7662 47.8041 47.7977 47.7284C47.8292 47.6528 47.8382 47.5702 47.8237 47.4899L47.0081 42.9685L50.4608 39.7661C50.5219 39.7091 50.5652 39.6368 50.5858 39.5572C50.6064 39.4777 50.6034 39.3941 50.5772 39.3161C50.551 39.2381 50.5026 39.1688 50.4375 39.1161C50.3725 39.0634 50.2934 39.0294 50.2093 39.018L45.4358 38.3617L43.3016 34.2406C43.2695 34.1793 43.222 34.1266 43.1634 34.0875C43.0868 34.0306 42.9928 33.9998 42.8961 34C42.812 33.9998 42.7296 34.0223 42.658 34.0648C42.5863 34.1072 42.5284 34.1681 42.4906 34.2406ZM43.1702 35.9556L44.7244 38.9545C44.7572 39.0174 44.8052 39.0717 44.8643 39.1128C44.9235 39.154 44.9921 39.1807 45.0642 39.1908L49.1558 39.7573L46.2106 42.4982C46.1575 42.5478 46.1177 42.6092 46.0948 42.6771C46.0719 42.745 46.0665 42.8172 46.0792 42.8875L46.777 46.768L43.2382 44.9962L43.1091 44.9328C43.0446 44.9006 42.9732 44.8837 42.9006 44.8837C42.8281 44.8837 42.7566 44.9006 42.6922 44.9328L39.0243 46.768L39.7243 42.8875C39.737 42.8172 39.7316 42.745 39.7087 42.6771C39.6858 42.6092 39.6461 42.5478 39.5929 42.4982L36.6477 39.7573L40.7212 39.1908C40.7933 39.1807 40.8619 39.154 40.921 39.1128C40.9802 39.0717 41.0282 39.0174 41.061 38.9545L42.8961 35.4153L43.1702 35.9556Z" fill="white"/>
<path d="M41.2101 41.8573C41.1732 41.808 41.126 41.7667 41.0717 41.7359C41.0173 41.7052 40.9568 41.6858 40.8942 41.6789C40.8316 41.672 40.7682 41.6778 40.708 41.6959C40.6479 41.714 40.5923 41.744 40.5448 41.784C40.4973 41.8241 40.459 41.8732 40.4323 41.9283C40.4057 41.9835 40.3912 42.0433 40.3898 42.1042C40.3885 42.165 40.4003 42.2255 40.4245 42.2816C40.4487 42.3378 40.4848 42.3885 40.5305 42.4304L41.7017 43.7429C41.7802 43.8308 41.8915 43.885 42.0113 43.8936C42.1311 43.9022 42.2496 43.8645 42.3406 43.7888L46.1309 40.6367C46.2067 40.5576 46.2496 40.4542 46.2513 40.3464C46.2529 40.2386 46.2133 40.1339 46.14 40.0526C46.0667 39.9713 45.9649 39.9189 45.8541 39.9056C45.7433 39.8923 45.6313 39.919 45.5396 39.9805L42.0869 42.8351L41.2101 41.8573ZM35.4533 38.1562L39.7579 37.5612L40.2405 36.625H24.7056V44.4997H37.5875L37.8141 43.277L34.7035 40.3961C34.5215 40.2255 34.3926 40.009 34.3314 39.7713C34.2703 39.5336 34.2792 39.2841 34.3572 39.0511C34.4352 38.818 34.5792 38.6107 34.773 38.4526C34.9667 38.2944 35.2024 38.1918 35.4533 38.1562Z" fill="white"/>
<path d="M22.5059 48H37.1327C37.0564 47.7895 37.0369 47.5636 37.0761 47.3438L37.4295 45.375H24.7284C24.4881 45.375 24.2576 45.2828 24.0876 45.1187C23.9177 44.9546 23.8222 44.7321 23.8222 44.5V36.625C23.8222 36.3929 23.9177 36.1704 24.0876 36.0063C24.2576 35.8422 24.4881 35.75 24.7284 35.75H40.6943L41.6798 33.8491C41.793 33.6312 41.9668 33.4481 42.1817 33.3202C42.3965 33.1923 42.6441 33.1247 42.8965 33.125V24.375H21.5996V47.125C21.5996 47.3571 21.6951 47.5796 21.865 47.7437C22.035 47.9078 22.2655 48 22.5059 48ZM24.5449 26.125H40.3386C40.4588 26.125 40.574 26.1711 40.659 26.2531C40.744 26.3352 40.7917 26.4465 40.7917 26.5625C40.7917 26.6785 40.744 26.7898 40.659 26.8719C40.574 26.9539 40.4588 27 40.3386 27H24.5449C24.4247 27 24.3095 26.9539 24.2245 26.8719C24.1395 26.7898 24.0918 26.6785 24.0918 26.5625C24.0918 26.4465 24.1395 26.3352 24.2245 26.2531C24.3095 26.1711 24.4247 26.125 24.5449 26.125ZM24.5449 27.875H40.3386C40.4588 27.875 40.574 27.9211 40.659 28.0031C40.744 28.0852 40.7917 28.1965 40.7917 28.3125C40.7917 28.4285 40.744 28.5398 40.659 28.6219C40.574 28.7039 40.4588 28.75 40.3386 28.75H24.5449C24.4247 28.75 24.3095 28.7039 24.2245 28.6219C24.1395 28.5398 24.0918 28.4285 24.0918 28.3125C24.0918 28.1965 24.1395 28.0852 24.2245 28.0031C24.3095 27.9211 24.4247 27.875 24.5449 27.875ZM24.5449 29.625H40.3386C40.4588 29.625 40.574 29.6711 40.659 29.7531C40.744 29.8352 40.7917 29.9465 40.7917 30.0625C40.7917 30.1785 40.744 30.2898 40.659 30.3719C40.574 30.4539 40.4588 30.5 40.3386 30.5H24.5449C24.4247 30.5 24.3095 30.4539 24.2245 30.3719C24.1395 30.2898 24.0918 30.1785 24.0918 30.0625C24.0918 29.9465 24.1395 29.8352 24.2245 29.7531C24.3095 29.6711 24.4247 29.625 24.5449 29.625ZM24.5449 31.375H40.3386C40.4588 31.375 40.574 31.4211 40.659 31.5031C40.744 31.5852 40.7917 31.6965 40.7917 31.8125C40.7917 31.9285 40.744 32.0398 40.659 32.1219C40.574 32.2039 40.4588 32.25 40.3386 32.25H24.5449C24.4247 32.25 24.3095 32.2039 24.2245 32.1219C24.1395 32.0398 24.0918 31.9285 24.0918 31.8125C24.0918 31.6965 24.1395 31.5852 24.2245 31.5031C24.3095 31.4211 24.4247 31.375 24.5449 31.375ZM24.5449 33.125H40.3386C40.4588 33.125 40.574 33.1711 40.659 33.2531C40.744 33.3352 40.7917 33.4465 40.7917 33.5625C40.7917 33.6785 40.744 33.7898 40.659 33.8719C40.574 33.9539 40.4588 34 40.3386 34H24.5449C24.4247 34 24.3095 33.9539 24.2245 33.8719C24.1395 33.7898 24.0918 33.6785 24.0918 33.5625C24.0918 33.4465 24.1395 33.3352 24.2245 33.2531C24.3095 33.1711 24.4247 33.125 24.5449 33.125ZM42.8965 21.3125C42.8965 20.9674 42.7558 20.6362 42.5048 20.3906C42.2537 20.1449 41.9126 20.0046 41.5552 20H22.9409C22.5835 20.0046 22.2424 20.1449 21.9913 20.3906C21.7403 20.6362 21.5996 20.9674 21.5996 21.3125V23.5H42.8965V21.3125ZM37.6198 22.1875H36.2605C36.1403 22.1875 36.025 22.1414 35.9401 22.0594C35.8551 21.9773 35.8073 21.866 35.8073 21.75C35.8073 21.634 35.8551 21.5227 35.9401 21.4406C36.025 21.3586 36.1403 21.3125 36.2605 21.3125H37.6198C37.74 21.3125 37.8553 21.3586 37.9403 21.4406C38.0252 21.5227 38.073 21.634 38.073 21.75C38.073 21.866 38.0252 21.9773 37.9403 22.0594C37.8553 22.1414 37.74 22.1875 37.6198 22.1875ZM40.7917 22.1875H39.4323C39.3122 22.1875 39.1969 22.1414 39.1119 22.0594C39.027 21.9773 38.9792 21.866 38.9792 21.75C38.9792 21.634 39.027 21.5227 39.1119 21.4406C39.1969 21.3586 39.3122 21.3125 39.4323 21.3125H40.7917C40.9119 21.3125 41.0272 21.3586 41.1121 21.4406C41.1971 21.5227 41.2448 21.634 41.2448 21.75C41.2448 21.866 41.1971 21.9773 41.1121 22.0594C41.0272 22.1414 40.9119 22.1875 40.7917 22.1875Z" fill="white"/>
</g>
<defs>
<clipPath id="clip0_142_14660">
<rect width="29" height="28" fill="white" transform="translate(21.5996 20)"/>
</clipPath>
</defs>
</svg>
