<svg width="110" height="68" viewBox="0 0 110 68" fill="none" xmlns="http://www.w3.org/2000/svg">
<path d="M-0.000488281 15.8956C-0.000488281 10.3316 -0.000488281 7.54963 1.08233 5.42447C2.03481 3.55513 3.55464 2.0353 5.42398 1.08282C7.54914 0 10.3311 0 15.8951 0H54.5039C60.0679 0 62.8499 0 64.975 1.08282C66.8444 2.0353 68.3642 3.55513 69.3167 5.42447C70.3995 7.54963 70.3995 10.3316 70.3995 15.8956V52.1044C70.3995 57.6684 70.3995 60.4504 69.3167 62.5755C68.3642 64.4449 66.8444 65.9647 64.975 66.9172C62.8499 68 60.0679 68 54.5039 68H15.8951C10.3311 68 7.54914 68 5.42398 66.9172C3.55464 65.9647 2.03481 64.4449 1.08233 62.5755C-0.000488281 60.4504 -0.000488281 57.6684 -0.000488281 52.1044V15.8956Z" fill="#4856BE"/>
<path d="M26.333 20.874C26.1589 20.874 25.992 20.9432 25.869 21.0663C25.7459 21.1893 25.6768 21.3562 25.6768 21.5303V26.7801C25.6768 26.9541 25.7459 27.1212 25.869 27.2442C25.992 27.3673 26.1589 27.4363 26.333 27.4363H48.6448C48.8188 27.4363 48.9857 27.3673 49.1088 27.2442C49.2319 27.1212 49.301 26.9541 49.301 26.7801V21.5303C49.301 21.3562 49.2319 21.1893 49.1088 21.0663C48.9857 20.9432 48.8188 20.874 48.6448 20.874H26.333ZM26.9892 22.1865H47.9885V26.1239H26.9892V22.1865Z" fill="white"/>
<path fill-rule="evenodd" clip-rule="evenodd" d="M29.6147 23.499V24.8115H38.802V23.499H29.6147Z" fill="white"/>
<path d="M45.3657 24.1562C45.3657 24.3303 45.2965 24.4972 45.1735 24.6203C45.0504 24.7433 44.8835 24.8125 44.7095 24.8125C44.5354 24.8125 44.3685 24.7433 44.2454 24.6203C44.1224 24.4972 44.0532 24.3303 44.0532 24.1562C44.0532 23.9822 44.1224 23.8153 44.2454 23.6922C44.3685 23.5691 44.5354 23.5 44.7095 23.5C44.8835 23.5 45.0504 23.5691 45.1735 23.6922C45.2965 23.8153 45.3657 23.9822 45.3657 24.1562Z" fill="white"/>
<path d="M26.333 30.0615C26.1589 30.0615 25.992 30.1307 25.869 30.2538C25.7459 30.3768 25.6768 30.5437 25.6768 30.7178V35.9676C25.6768 36.1416 25.7459 36.3087 25.869 36.4317C25.992 36.5548 26.1589 36.6238 26.333 36.6238H48.6448C48.8188 36.6238 48.9857 36.5548 49.1088 36.4317C49.2319 36.3087 49.301 36.1416 49.301 35.9676V30.7178C49.301 30.5437 49.2319 30.3768 49.1088 30.2538C48.9857 30.1307 48.8188 30.0615 48.6448 30.0615H26.333ZM26.9892 31.374H47.9885V35.3114H26.9892V31.374Z" fill="white"/>
<path fill-rule="evenodd" clip-rule="evenodd" d="M29.6147 32.6865V33.999H38.802V32.6865H29.6147Z" fill="white"/>
<path d="M45.3657 33.3437C45.3657 33.5178 45.2965 33.6847 45.1735 33.8078C45.0504 33.9308 44.8835 34 44.7095 34C44.5354 34 44.3685 33.9308 44.2454 33.8078C44.1224 33.6847 44.0532 33.5178 44.0532 33.3437C44.0532 33.1697 44.1224 33.0028 44.2454 32.8797C44.3685 32.7566 44.5354 32.6875 44.7095 32.6875C44.8835 32.6875 45.0504 32.7566 45.1735 32.8797C45.2965 33.0028 45.3657 33.1697 45.3657 33.3437Z" fill="white"/>
<path d="M26.333 39.249C26.1589 39.249 25.992 39.3182 25.869 39.4413C25.7459 39.5643 25.6768 39.7312 25.6768 39.9053V45.1551C25.6768 45.3291 25.7459 45.4962 25.869 45.6192C25.992 45.7423 26.1589 45.8113 26.333 45.8113H48.6448C48.8188 45.8113 48.9857 45.7423 49.1088 45.6192C49.2319 45.4962 49.301 45.3291 49.301 45.1551V39.9053C49.301 39.7312 49.2319 39.5643 49.1088 39.4413C48.9857 39.3182 48.8188 39.249 48.6448 39.249H26.333ZM26.9892 40.5615H47.9885V44.4989H26.9892V40.5615Z" fill="white"/>
<path fill-rule="evenodd" clip-rule="evenodd" d="M29.6147 41.874V43.1865H38.802V41.874H29.6147Z" fill="white"/>
<path d="M45.3657 42.5312C45.3657 42.7053 45.2965 42.8722 45.1735 42.9953C45.0504 43.1183 44.8835 43.1875 44.7095 43.1875C44.5354 43.1875 44.3685 43.1183 44.2454 42.9953C44.1224 42.8722 44.0532 42.7053 44.0532 42.5312C44.0532 42.3572 44.1224 42.1903 44.2454 42.0672C44.3685 41.9441 44.5354 41.875 44.7095 41.875C44.8835 41.875 45.0504 41.9441 45.1735 42.0672C45.2965 42.1903 45.3657 42.3572 45.3657 42.5312Z" fill="white"/>
<path fill-rule="evenodd" clip-rule="evenodd" d="M20.4268 23.499V43.1859H21.7392V23.499H20.4268Z" fill="white"/>
<path fill-rule="evenodd" clip-rule="evenodd" d="M20.4268 23.499V24.8115H25.6766V23.499H20.4268ZM20.4268 41.8734V43.1859H25.6766V41.8734H20.4268ZM20.4268 32.6862V33.9987H25.6766V32.6862H20.4268Z" fill="white"/>
</svg>
