<svg width="73" height="73" viewBox="0 0 73 73" fill="none" xmlns="http://www.w3.org/2000/svg">
<path d="M52.4688 2.28125H20.5312C18.7178 2.28667 16.9803 3.00944 15.698 4.29172C14.4157 5.574 13.6929 7.31159 13.6875 9.125V63.875C13.6929 65.6884 14.4157 67.426 15.698 68.7083C16.9803 69.9906 18.7178 70.7133 20.5312 70.7188H52.4688C54.2822 70.7133 56.0197 69.9906 57.302 68.7083C58.5843 67.426 59.3071 65.6884 59.3125 63.875V9.125C59.3071 7.31159 58.5843 5.574 57.302 4.29172C56.0197 3.00944 54.2822 2.28667 52.4688 2.28125ZM27.375 61.5938H22.8125C22.2075 61.5938 21.6272 61.3534 21.1994 60.9256C20.7716 60.4978 20.5312 59.9175 20.5312 59.3125C20.5312 58.7075 20.7716 58.1272 21.1994 57.6994C21.6272 57.2716 22.2075 57.0312 22.8125 57.0312H27.375C27.98 57.0312 28.5603 57.2716 28.9881 57.6994C29.4159 58.1272 29.6562 58.7075 29.6562 59.3125C29.6562 59.9175 29.4159 60.4978 28.9881 60.9256C28.5603 61.3534 27.98 61.5938 27.375 61.5938ZM27.375 52.4688H22.8125C22.2075 52.4688 21.6272 52.2284 21.1994 51.8006C20.7716 51.3728 20.5312 50.7925 20.5312 50.1875C20.5312 49.5825 20.7716 49.0022 21.1994 48.5744C21.6272 48.1466 22.2075 47.9062 22.8125 47.9062H27.375C27.98 47.9062 28.5603 48.1466 28.9881 48.5744C29.4159 49.0022 29.6562 49.5825 29.6562 50.1875C29.6562 50.7925 29.4159 51.3728 28.9881 51.8006C28.5603 52.2284 27.98 52.4688 27.375 52.4688ZM27.375 43.3438H22.8125C22.2075 43.3438 21.6272 43.1034 21.1994 42.6756C20.7716 42.2478 20.5312 41.6675 20.5312 41.0625C20.5312 40.4575 20.7716 39.8772 21.1994 39.4494C21.6272 39.0216 22.2075 38.7812 22.8125 38.7812H27.375C27.98 38.7812 28.5603 39.0216 28.9881 39.4494C29.4159 39.8772 29.6562 40.4575 29.6562 41.0625C29.6562 41.6675 29.4159 42.2478 28.9881 42.6756C28.5603 43.1034 27.98 43.3438 27.375 43.3438ZM27.375 34.2188H22.8125C22.2075 34.2188 21.6272 33.9784 21.1994 33.5506C20.7716 33.1228 20.5312 32.5425 20.5312 31.9375C20.5312 31.3325 20.7716 30.7522 21.1994 30.3244C21.6272 29.8966 22.2075 29.6562 22.8125 29.6562H27.375C27.98 29.6562 28.5603 29.8966 28.9881 30.3244C29.4159 30.7522 29.6562 31.3325 29.6562 31.9375C29.6562 32.5425 29.4159 33.1228 28.9881 33.5506C28.5603 33.9784 27.98 34.2188 27.375 34.2188ZM38.7812 61.5938H34.2188C33.6137 61.5938 33.0335 61.3534 32.6057 60.9256C32.1778 60.4978 31.9375 59.9175 31.9375 59.3125C31.9375 58.7075 32.1778 58.1272 32.6057 57.6994C33.0335 57.2716 33.6137 57.0312 34.2188 57.0312H38.7812C39.3863 57.0312 39.9665 57.2716 40.3943 57.6994C40.8222 58.1272 41.0625 58.7075 41.0625 59.3125C41.0625 59.9175 40.8222 60.4978 40.3943 60.9256C39.9665 61.3534 39.3863 61.5938 38.7812 61.5938ZM38.7812 52.4688H34.2188C33.6137 52.4688 33.0335 52.2284 32.6057 51.8006C32.1778 51.3728 31.9375 50.7925 31.9375 50.1875C31.9375 49.5825 32.1778 49.0022 32.6057 48.5744C33.0335 48.1466 33.6137 47.9062 34.2188 47.9062H38.7812C39.3863 47.9062 39.9665 48.1466 40.3943 48.5744C40.8222 49.0022 41.0625 49.5825 41.0625 50.1875C41.0625 50.7925 40.8222 51.3728 40.3943 51.8006C39.9665 52.2284 39.3863 52.4688 38.7812 52.4688ZM38.7812 43.3438H34.2188C33.6137 43.3438 33.0335 43.1034 32.6057 42.6756C32.1778 42.2478 31.9375 41.6675 31.9375 41.0625C31.9375 40.4575 32.1778 39.8772 32.6057 39.4494C33.0335 39.0216 33.6137 38.7812 34.2188 38.7812H38.7812C39.3863 38.7812 39.9665 39.0216 40.3943 39.4494C40.8222 39.8772 41.0625 40.4575 41.0625 41.0625C41.0625 41.6675 40.8222 42.2478 40.3943 42.6756C39.9665 43.1034 39.3863 43.3438 38.7812 43.3438ZM38.7812 34.2188H34.2188C33.6137 34.2188 33.0335 33.9784 32.6057 33.5506C32.1778 33.1228 31.9375 32.5425 31.9375 31.9375C31.9375 31.3325 32.1778 30.7522 32.6057 30.3244C33.0335 29.8966 33.6137 29.6562 34.2188 29.6562H38.7812C39.3863 29.6562 39.9665 29.8966 40.3943 30.3244C40.8222 30.7522 41.0625 31.3325 41.0625 31.9375C41.0625 32.5425 40.8222 33.1228 40.3943 33.5506C39.9665 33.9784 39.3863 34.2188 38.7812 34.2188ZM50.1875 61.5938H45.625C45.02 61.5938 44.4397 61.3534 44.0119 60.9256C43.5841 60.4978 43.3438 59.9175 43.3438 59.3125C43.3438 58.7075 43.5841 58.1272 44.0119 57.6994C44.4397 57.2716 45.02 57.0312 45.625 57.0312H50.1875C50.7925 57.0312 51.3728 57.2716 51.8006 57.6994C52.2284 58.1272 52.4688 58.7075 52.4688 59.3125C52.4688 59.9175 52.2284 60.4978 51.8006 60.9256C51.3728 61.3534 50.7925 61.5938 50.1875 61.5938ZM50.1875 52.4688H45.625C45.02 52.4688 44.4397 52.2284 44.0119 51.8006C43.5841 51.3728 43.3438 50.7925 43.3438 50.1875C43.3438 49.5825 43.5841 49.0022 44.0119 48.5744C44.4397 48.1466 45.02 47.9062 45.625 47.9062H50.1875C50.7925 47.9062 51.3728 48.1466 51.8006 48.5744C52.2284 49.0022 52.4688 49.5825 52.4688 50.1875C52.4688 50.7925 52.2284 51.3728 51.8006 51.8006C51.3728 52.2284 50.7925 52.4688 50.1875 52.4688ZM50.1875 43.3438H45.625C45.02 43.3438 44.4397 43.1034 44.0119 42.6756C43.5841 42.2478 43.3438 41.6675 43.3438 41.0625C43.3438 40.4575 43.5841 39.8772 44.0119 39.4494C44.4397 39.0216 45.02 38.7812 45.625 38.7812H50.1875C50.7925 38.7812 51.3728 39.0216 51.8006 39.4494C52.2284 39.8772 52.4688 40.4575 52.4688 41.0625C52.4688 41.6675 52.2284 42.2478 51.8006 42.6756C51.3728 43.1034 50.7925 43.3438 50.1875 43.3438ZM50.1875 34.2188H45.625C45.02 34.2188 44.4397 33.9784 44.0119 33.5506C43.5841 33.1228 43.3438 32.5425 43.3438 31.9375C43.3438 31.3325 43.5841 30.7522 44.0119 30.3244C44.4397 29.8966 45.02 29.6562 45.625 29.6562H50.1875C50.7925 29.6562 51.3728 29.8966 51.8006 30.3244C52.2284 30.7522 52.4688 31.3325 52.4688 31.9375C52.4688 32.5425 52.2284 33.1228 51.8006 33.5506C51.3728 33.9784 50.7925 34.2188 50.1875 34.2188ZM52.4688 20.5312C52.4651 21.7402 51.9833 22.8986 51.1284 23.7534C50.2736 24.6083 49.1152 25.0901 47.9062 25.0938H25.0938C23.8848 25.0901 22.7264 24.6083 21.8716 23.7534C21.0167 22.8986 20.5349 21.7402 20.5312 20.5312V15.9688C20.5349 14.7598 21.0167 13.6014 21.8716 12.7466C22.7264 11.8917 23.8848 11.4099 25.0938 11.4062H47.9062C49.1152 11.4099 50.2736 11.8917 51.1284 12.7466C51.9833 13.6014 52.4651 14.7598 52.4688 15.9688V20.5312ZM47.9062 15.9688V20.5312H25.0938V15.9688H47.9062Z" fill="#4856BE" fill-opacity="0.96"/>
</svg>
