<svg width="75" height="75" viewBox="0 0 75 75" fill="none" xmlns="http://www.w3.org/2000/svg">
<path d="M49.2188 11.7188H25.7812C24.538 11.7188 23.3458 12.2126 22.4667 13.0917C21.5876 13.9708 21.0938 15.163 21.0938 16.4062V21.0938C21.0938 22.337 21.5876 23.5292 22.4667 24.4083C23.3458 25.2874 24.538 25.7812 25.7812 25.7812H49.2188C50.462 25.7812 51.6542 25.2874 52.5333 24.4083C53.4124 23.5292 53.9062 22.337 53.9062 21.0938V16.4062C53.9062 15.163 53.4124 13.9708 52.5333 13.0917C51.6542 12.2126 50.462 11.7188 49.2188 11.7188ZM25.7812 21.0938V16.4062H49.2188V21.0938H25.7812ZM42.1875 51.5625C42.1875 52.1841 41.9406 52.7802 41.501 53.2198C41.0615 53.6593 40.4654 53.9062 39.8438 53.9062H35.1562C34.5346 53.9062 33.9385 53.6593 33.499 53.2198C33.0594 52.7802 32.8125 52.1841 32.8125 51.5625C32.8125 50.9409 33.0594 50.3448 33.499 49.9052C33.9385 49.4657 34.5346 49.2188 35.1562 49.2188H39.8438C40.4654 49.2188 41.0615 49.4657 41.501 49.9052C41.9406 50.3448 42.1875 50.9409 42.1875 51.5625ZM30.4688 32.8125C30.4688 33.4341 30.2218 34.0302 29.7823 34.4698C29.3427 34.9093 28.7466 35.1562 28.125 35.1562H23.4375C22.8159 35.1562 22.2198 34.9093 21.7802 34.4698C21.3407 34.0302 21.0938 33.4341 21.0938 32.8125C21.0938 32.1909 21.3407 31.5948 21.7802 31.1552C22.2198 30.7157 22.8159 30.4688 23.4375 30.4688H28.125C28.7466 30.4688 29.3427 30.7157 29.7823 31.1552C30.2218 31.5948 30.4688 32.1909 30.4688 32.8125ZM42.1875 60.9375C42.1875 61.5591 41.9406 62.1552 41.501 62.5948C41.0615 63.0343 40.4654 63.2812 39.8438 63.2812H35.1562C34.5346 63.2812 33.9385 63.0343 33.499 62.5948C33.0594 62.1552 32.8125 61.5591 32.8125 60.9375C32.8125 60.3159 33.0594 59.7198 33.499 59.2802C33.9385 58.8407 34.5346 58.5938 35.1562 58.5938H39.8438C40.4654 58.5938 41.0615 58.8407 41.501 59.2802C41.9406 59.7198 42.1875 60.3159 42.1875 60.9375ZM30.4688 42.1875C30.4688 42.8091 30.2218 43.4052 29.7823 43.8448C29.3427 44.2843 28.7466 44.5312 28.125 44.5312H23.4375C22.8159 44.5312 22.2198 44.2843 21.7802 43.8448C21.3407 43.4052 21.0938 42.8091 21.0938 42.1875C21.0938 41.5659 21.3407 40.9698 21.7802 40.5302C22.2198 40.0907 22.8159 39.8438 23.4375 39.8438H28.125C28.7466 39.8438 29.3427 40.0907 29.7823 40.5302C30.2218 40.9698 30.4688 41.5659 30.4688 42.1875ZM30.4688 51.5625C30.4688 52.1841 30.2218 52.7802 29.7823 53.2198C29.3427 53.6593 28.7466 53.9062 28.125 53.9062H23.4375C22.8159 53.9062 22.2198 53.6593 21.7802 53.2198C21.3407 52.7802 21.0938 52.1841 21.0938 51.5625C21.0938 50.9409 21.3407 50.3448 21.7802 49.9052C22.2198 49.4657 22.8159 49.2188 23.4375 49.2188H28.125C28.7466 49.2188 29.3427 49.4657 29.7823 49.9052C30.2218 50.3448 30.4688 50.9409 30.4688 51.5625ZM30.4688 60.9375C30.4688 61.5591 30.2218 62.1552 29.7823 62.5948C29.3427 63.0343 28.7466 63.2812 28.125 63.2812H23.4375C22.8159 63.2812 22.2198 63.0343 21.7802 62.5948C21.3407 62.1552 21.0938 61.5591 21.0938 60.9375C21.0938 60.3159 21.3407 59.7198 21.7802 59.2802C22.2198 58.8407 22.8159 58.5938 23.4375 58.5938H28.125C28.7466 58.5938 29.3427 58.8407 29.7823 59.2802C30.2218 59.7198 30.4688 60.3159 30.4688 60.9375ZM53.9062 42.1875C53.9062 42.8091 53.6593 43.4052 53.2198 43.8448C52.7802 44.2843 52.1841 44.5312 51.5625 44.5312H46.875C46.2534 44.5312 45.6573 44.2843 45.2177 43.8448C44.7782 43.4052 44.5312 42.8091 44.5312 42.1875C44.5312 41.5659 44.7782 40.9698 45.2177 40.5302C45.6573 40.0907 46.2534 39.8438 46.875 39.8438H51.5625C52.1841 39.8438 52.7802 40.0907 53.2198 40.5302C53.6593 40.9698 53.9062 41.5659 53.9062 42.1875ZM42.1875 42.1875C42.1875 42.8091 41.9406 43.4052 41.501 43.8448C41.0615 44.2843 40.4654 44.5312 39.8438 44.5312H35.1562C34.5346 44.5312 33.9385 44.2843 33.499 43.8448C33.0594 43.4052 32.8125 42.8091 32.8125 42.1875C32.8125 41.5659 33.0594 40.9698 33.499 40.5302C33.9385 40.0907 34.5346 39.8438 35.1562 39.8438H39.8438C40.4654 39.8438 41.0615 40.0907 41.501 40.5302C41.9406 40.9698 42.1875 41.5659 42.1875 42.1875ZM53.9062 2.34375H21.0938C19.2289 2.34375 17.4405 3.08454 16.1219 4.40316C14.8033 5.72177 14.0625 7.5102 14.0625 9.375V65.625C14.0625 67.4898 14.8033 69.2782 16.1219 70.5968C17.4405 71.9155 19.2289 72.6562 21.0938 72.6562H53.9062C55.7711 72.6562 57.5595 71.9155 58.8781 70.5968C60.1967 69.2782 60.9375 67.4898 60.9375 65.625V9.375C60.9375 7.5102 60.1967 5.72177 58.8781 4.40316C57.5595 3.08454 55.7711 2.34375 53.9062 2.34375ZM56.25 65.625C56.25 66.2466 56.0031 66.8427 55.5635 67.2823C55.124 67.7218 54.5279 67.9688 53.9062 67.9688H21.0938C20.4721 67.9688 19.876 67.7218 19.4365 67.2823C18.9969 66.8427 18.75 66.2466 18.75 65.625V9.375C18.75 8.7534 18.9969 8.15726 19.4365 7.71772C19.876 7.27818 20.4721 7.03125 21.0938 7.03125H53.9062C54.5279 7.03125 55.124 7.27818 55.5635 7.71772C56.0031 8.15726 56.25 8.7534 56.25 9.375V65.625ZM53.9062 51.5625C53.9062 52.1841 53.6593 52.7802 53.2198 53.2198C52.7802 53.6593 52.1841 53.9062 51.5625 53.9062H46.875C46.2534 53.9062 45.6573 53.6593 45.2177 53.2198C44.7782 52.7802 44.5312 52.1841 44.5312 51.5625C44.5312 50.9409 44.7782 50.3448 45.2177 49.9052C45.6573 49.4657 46.2534 49.2188 46.875 49.2188H51.5625C52.1841 49.2188 52.7802 49.4657 53.2198 49.9052C53.6593 50.3448 53.9062 50.9409 53.9062 51.5625ZM53.9062 32.8125C53.9062 33.4341 53.6593 34.0302 53.2198 34.4698C52.7802 34.9093 52.1841 35.1562 51.5625 35.1562H46.875C46.2534 35.1562 45.6573 34.9093 45.2177 34.4698C44.7782 34.0302 44.5312 33.4341 44.5312 32.8125C44.5312 32.1909 44.7782 31.5948 45.2177 31.1552C45.6573 30.7157 46.2534 30.4688 46.875 30.4688H51.5625C52.1841 30.4688 52.7802 30.7157 53.2198 31.1552C53.6593 31.5948 53.9062 32.1909 53.9062 32.8125ZM42.1875 32.8125C42.1875 33.4341 41.9406 34.0302 41.501 34.4698C41.0615 34.9093 40.4654 35.1562 39.8438 35.1562H35.1562C34.5346 35.1562 33.9385 34.9093 33.499 34.4698C33.0594 34.0302 32.8125 33.4341 32.8125 32.8125C32.8125 32.1909 33.0594 31.5948 33.499 31.1552C33.9385 30.7157 34.5346 30.4688 35.1562 30.4688H39.8438C40.4654 30.4688 41.0615 30.7157 41.501 31.1552C41.9406 31.5948 42.1875 32.1909 42.1875 32.8125ZM53.9062 60.9375C53.9062 61.5591 53.6593 62.1552 53.2198 62.5948C52.7802 63.0343 52.1841 63.2812 51.5625 63.2812H46.875C46.2534 63.2812 45.6573 63.0343 45.2177 62.5948C44.7782 62.1552 44.5312 61.5591 44.5312 60.9375C44.5312 60.3159 44.7782 59.7198 45.2177 59.2802C45.6573 58.8407 46.2534 58.5938 46.875 58.5938H51.5625C52.1841 58.5938 52.7802 58.8407 53.2198 59.2802C53.6593 59.7198 53.9062 60.3159 53.9062 60.9375Z" fill="black"/>
</svg>
