<svg width="105" height="104" viewBox="0 0 105 104" fill="none" xmlns="http://www.w3.org/2000/svg">
<path d="M31.6298 19.4753C31.2002 19.4753 30.7882 19.6461 30.4844 19.9499C30.1806 20.2537 30.0099 20.6656 30.0099 21.0952V34.0545C30.0099 34.4841 30.1806 34.8964 30.4844 35.2002C30.7882 35.504 31.2002 35.6744 31.6298 35.6744H86.7065C87.1362 35.6744 87.5482 35.504 87.852 35.2002C88.1557 34.8964 88.3264 34.4841 88.3264 34.0545V21.0952C88.3264 20.6656 88.1557 20.2537 87.852 19.9499C87.5482 19.6461 87.1362 19.4753 86.7065 19.4753H31.6298ZM33.2497 22.7151H85.0866V32.4346H33.2497V22.7151Z" fill="#1C1C1C"/>
<path fill-rule="evenodd" clip-rule="evenodd" d="M39.7307 25.9553V29.1951H62.4094V25.9553H39.7307Z" fill="#1C1C1C"/>
<path d="M78.6119 27.5786C78.6119 28.0083 78.4412 28.4203 78.1374 28.7241C77.8336 29.0279 77.4216 29.1985 76.992 29.1985C76.5623 29.1985 76.1503 29.0279 75.8465 28.7241C75.5427 28.4203 75.3721 28.0083 75.3721 27.5786C75.3721 27.149 75.5427 26.737 75.8465 26.4332C76.1503 26.1294 76.5623 25.9587 76.992 25.9587C77.4216 25.9587 77.8336 26.1294 78.1374 26.4332C78.4412 26.737 78.6119 27.149 78.6119 27.5786Z" fill="#1C1C1C"/>
<path d="M31.6298 42.1545C31.2002 42.1545 30.7882 42.3253 30.4844 42.6291C30.1806 42.9329 30.0099 43.3448 30.0099 43.7744V56.7337C30.0099 57.1633 30.1806 57.5756 30.4844 57.8794C30.7882 58.1832 31.2002 58.3536 31.6298 58.3536H86.7065C87.1362 58.3536 87.5482 58.1832 87.852 57.8794C88.1557 57.5756 88.3264 57.1633 88.3264 56.7337V43.7744C88.3264 43.3448 88.1557 42.9329 87.852 42.6291C87.5482 42.3253 87.1362 42.1545 86.7065 42.1545H31.6298ZM33.2497 45.3943H85.0866V55.1138H33.2497V45.3943Z" fill="#1C1C1C"/>
<path fill-rule="evenodd" clip-rule="evenodd" d="M39.7307 48.6343V51.8741H62.4094V48.6343H39.7307Z" fill="#1C1C1C"/>
<path d="M78.6119 50.2578C78.6119 50.6875 78.4412 51.0995 78.1374 51.4033C77.8336 51.7071 77.4216 51.8777 76.992 51.8777C76.5623 51.8777 76.1503 51.7071 75.8465 51.4033C75.5427 51.0995 75.3721 50.6875 75.3721 50.2578C75.3721 49.8282 75.5427 49.4162 75.8465 49.1124C76.1503 48.8086 76.5623 48.6379 76.992 48.6379C77.4216 48.6379 77.8336 48.8086 78.1374 49.1124C78.4412 49.4162 78.6119 49.8282 78.6119 50.2578Z" fill="#1C1C1C"/>
<path d="M31.6298 64.834C31.2002 64.834 30.7882 65.0048 30.4844 65.3086C30.1806 65.6124 30.0099 66.0243 30.0099 66.4539V79.4131C30.0099 79.8427 30.1806 80.255 30.4844 80.5588C30.7882 80.8626 31.2002 81.033 31.6298 81.033H86.7065C87.1362 81.033 87.5482 80.8626 87.852 80.5588C88.1557 80.255 88.3264 79.8427 88.3264 79.4131V66.4539C88.3264 66.0243 88.1557 65.6124 87.852 65.3086C87.5482 65.0048 87.1362 64.834 86.7065 64.834H31.6298ZM33.2497 68.0738H85.0866V77.7932H33.2497V68.0738Z" fill="#1C1C1C"/>
<path fill-rule="evenodd" clip-rule="evenodd" d="M39.7307 71.314V74.5538H62.4094V71.314H39.7307Z" fill="#1C1C1C"/>
<path d="M78.6119 72.9373C78.6119 73.3669 78.4412 73.7789 78.1374 74.0827C77.8336 74.3865 77.4216 74.5572 76.992 74.5572C76.5623 74.5572 76.1503 74.3865 75.8465 74.0827C75.5427 73.7789 75.3721 73.3669 75.3721 72.9373C75.3721 72.5077 75.5427 72.0956 75.8465 71.7918C76.1503 71.488 76.5623 71.3174 76.992 71.3174C77.4216 71.3174 77.8336 71.488 78.1374 71.7918C78.4412 72.0956 78.6119 72.5077 78.6119 72.9373Z" fill="#1C1C1C"/>
<path fill-rule="evenodd" clip-rule="evenodd" d="M17.05 25.9553V74.5524H20.2899V25.9553H17.05Z" fill="#1C1C1C"/>
<path fill-rule="evenodd" clip-rule="evenodd" d="M17.05 25.9553V29.1951H30.0093V25.9553H17.05ZM17.05 71.3126V74.5524H30.0093V71.3126H17.05ZM17.05 48.634V51.8738H30.0093V48.634H17.05Z" fill="#1C1C1C"/>
</svg>
