<svg width="104" height="104" viewBox="0 0 104 104" fill="none" xmlns="http://www.w3.org/2000/svg">
<path d="M21.4511 7.96094C20.8396 7.96094 20.2532 8.20343 19.8208 8.63477C19.3884 9.0661 19.1455 9.65094 19.1455 10.2609V28.6609C19.1455 29.2709 19.3884 29.8563 19.8208 30.2877C20.2532 30.719 20.8396 30.9609 21.4511 30.9609H99.84C100.451 30.9609 101.038 30.719 101.47 30.2877C101.903 29.8563 102.146 29.2709 102.146 28.6609V10.2609C102.146 9.65094 101.903 9.0661 101.47 8.63477C101.038 8.20343 100.451 7.96094 99.84 7.96094H21.4511ZM23.7566 12.5609H97.5344V26.3609H23.7566V12.5609Z" fill="#4654B7"/>
<path fill-rule="evenodd" clip-rule="evenodd" d="M34.1455 16.9609V20.9609H63.1455V16.9609H34.1455Z" fill="#4654B7"/>
<path d="M89.1455 18.9609C89.1455 19.4914 88.8821 20.0001 88.4133 20.3752C87.9444 20.7502 87.3085 20.9609 86.6455 20.9609C85.9825 20.9609 85.3466 20.7502 84.8777 20.3752C84.4089 20.0001 84.1455 19.4914 84.1455 18.9609C84.1455 18.4305 84.4089 17.9218 84.8777 17.5467C85.3466 17.1716 85.9825 16.9609 86.6455 16.9609C87.3085 16.9609 87.9444 17.1716 88.4133 17.5467C88.8821 17.9218 89.1455 18.4305 89.1455 18.9609Z" fill="#4654B7"/>
<path d="M21.4511 40.9609C20.8396 40.9609 20.2532 41.1929 19.8208 41.6055C19.3884 42.018 19.1455 42.5775 19.1455 43.1609V60.7609C19.1455 61.3444 19.3884 61.9044 19.8208 62.3169C20.2532 62.7295 20.8396 62.9609 21.4511 62.9609H99.84C100.451 62.9609 101.038 62.7295 101.47 62.3169C101.903 61.9044 102.146 61.3444 102.146 60.7609V43.1609C102.146 42.5775 101.903 42.018 101.47 41.6055C101.038 41.1929 100.451 40.9609 99.84 40.9609H21.4511ZM23.7566 45.3609H97.5344V58.5609H23.7566V45.3609Z" fill="#4654B7"/>
<path fill-rule="evenodd" clip-rule="evenodd" d="M34.1455 49.9609V53.9609H63.1455V49.9609H34.1455Z" fill="#4654B7"/>
<path d="M89.1455 51.9609C89.1455 52.4914 88.8821 53.0001 88.4133 53.3752C87.9444 53.7502 87.3085 53.9609 86.6455 53.9609C85.9825 53.9609 85.3466 53.7502 84.8777 53.3752C84.4089 53.0001 84.1455 52.4914 84.1455 51.9609C84.1455 51.4305 84.4089 50.9218 84.8777 50.5467C85.3466 50.1716 85.9825 49.9609 86.6455 49.9609C87.3085 49.9609 87.9444 50.1716 88.4133 50.5467C88.8821 50.9218 89.1455 51.4305 89.1455 51.9609Z" fill="#4654B7"/>
<path d="M21.4511 72.9609C20.8396 72.9609 20.2532 73.2034 19.8208 73.6348C19.3884 74.0661 19.1455 74.6509 19.1455 75.2609V93.6609C19.1455 94.2709 19.3884 94.8563 19.8208 95.2877C20.2532 95.719 20.8396 95.9609 21.4511 95.9609H99.84C100.451 95.9609 101.038 95.719 101.47 95.2877C101.903 94.8563 102.146 94.2709 102.146 93.6609V75.2609C102.146 74.6509 101.903 74.0661 101.47 73.6348C101.038 73.2034 100.451 72.9609 99.84 72.9609H21.4511ZM23.7566 77.5609H97.5344V91.3609H23.7566V77.5609Z" fill="#4654B7"/>
<path fill-rule="evenodd" clip-rule="evenodd" d="M34.1455 82.9609V86.9609H63.1455V82.9609H34.1455Z" fill="#4654B7"/>
<path d="M89.1455 84.9609C89.1455 85.4914 88.8821 86.0001 88.4133 86.3752C87.9444 86.7502 87.3085 86.9609 86.6455 86.9609C85.9825 86.9609 85.3466 86.7502 84.8777 86.3752C84.4089 86.0001 84.1455 85.4914 84.1455 84.9609C84.1455 84.4305 84.4089 83.9218 84.8777 83.5467C85.3466 83.1716 85.9825 82.9609 86.6455 82.9609C87.3085 82.9609 87.9444 83.1716 88.4133 83.5467C88.8821 83.9218 89.1455 84.4305 89.1455 84.9609Z" fill="#4654B7"/>
<path fill-rule="evenodd" clip-rule="evenodd" d="M1.14551 16.9609V87.9609H6.14551V16.9609H1.14551Z" fill="#4654B7"/>
<path fill-rule="evenodd" clip-rule="evenodd" d="M1.14551 16.9609V21.6943H20.1455V16.9609H1.14551ZM1.14551 83.2276V87.9609H20.1455V83.2276H1.14551ZM1.14551 50.0943V54.8276H20.1455V50.0943H1.14551Z" fill="#4654B7"/>
</svg>
