<svg width="105" height="104" viewBox="0 0 105 104" fill="none" xmlns="http://www.w3.org/2000/svg">
<path d="M22.3056 8C21.6941 8 21.1077 8.24249 20.6753 8.67383C20.2429 9.10516 20 9.69 20 10.3V28.7C20 29.31 20.2429 29.8954 20.6753 30.3267C21.1077 30.7581 21.6941 31 22.3056 31H100.694C101.306 31 101.892 30.7581 102.325 30.3267C102.757 29.8954 103 29.31 103 28.7V10.3C103 9.69 102.757 9.10516 102.325 8.67383C101.892 8.24249 101.306 8 100.694 8H22.3056ZM24.6111 12.6H98.3889V26.4H24.6111V12.6Z" fill="#1C1C1C"/>
<path fill-rule="evenodd" clip-rule="evenodd" d="M35 17V21H64V17H35Z" fill="#1C1C1C"/>
<path d="M90 19C90 19.5304 89.7366 20.0391 89.2678 20.4142C88.7989 20.7893 88.163 21 87.5 21C86.837 21 86.2011 20.7893 85.7322 20.4142C85.2634 20.0391 85 19.5304 85 19C85 18.4696 85.2634 17.9609 85.7322 17.5858C86.2011 17.2107 86.837 17 87.5 17C88.163 17 88.7989 17.2107 89.2678 17.5858C89.7366 17.9609 90 18.4696 90 19Z" fill="#1C1C1C"/>
<path d="M22.3056 41C21.6941 41 21.1077 41.232 20.6753 41.6445C20.2429 42.0571 20 42.6165 20 43.2V60.8C20 61.3835 20.2429 61.9434 20.6753 62.356C21.1077 62.7686 21.6941 63 22.3056 63H100.694C101.306 63 101.892 62.7686 102.325 62.356C102.757 61.9434 103 61.3835 103 60.8V43.2C103 42.6165 102.757 42.0571 102.325 41.6445C101.892 41.232 101.306 41 100.694 41H22.3056ZM24.6111 45.4H98.3889V58.6H24.6111V45.4Z" fill="#1C1C1C"/>
<path fill-rule="evenodd" clip-rule="evenodd" d="M35 50V54H64V50H35Z" fill="#1C1C1C"/>
<path d="M90 52C90 52.5304 89.7366 53.0391 89.2678 53.4142C88.7989 53.7893 88.163 54 87.5 54C86.837 54 86.2011 53.7893 85.7322 53.4142C85.2634 53.0391 85 52.5304 85 52C85 51.4696 85.2634 50.9609 85.7322 50.5858C86.2011 50.2107 86.837 50 87.5 50C88.163 50 88.7989 50.2107 89.2678 50.5858C89.7366 50.9609 90 51.4696 90 52Z" fill="#1C1C1C"/>
<path d="M22.3056 73C21.6941 73 21.1077 73.2425 20.6753 73.6738C20.2429 74.1052 20 74.69 20 75.3V93.7C20 94.31 20.2429 94.8954 20.6753 95.3267C21.1077 95.7581 21.6941 96 22.3056 96H100.694C101.306 96 101.892 95.7581 102.325 95.3267C102.757 94.8954 103 94.31 103 93.7V75.3C103 74.69 102.757 74.1052 102.325 73.6738C101.892 73.2425 101.306 73 100.694 73H22.3056ZM24.6111 77.6H98.3889V91.4H24.6111V77.6Z" fill="#1C1C1C"/>
<path fill-rule="evenodd" clip-rule="evenodd" d="M35 83V87H64V83H35Z" fill="#1C1C1C"/>
<path d="M90 85C90 85.5304 89.7366 86.0391 89.2678 86.4142C88.7989 86.7893 88.163 87 87.5 87C86.837 87 86.2011 86.7893 85.7322 86.4142C85.2634 86.0391 85 85.5304 85 85C85 84.4696 85.2634 83.9609 85.7322 83.5858C86.2011 83.2107 86.837 83 87.5 83C88.163 83 88.7989 83.2107 89.2678 83.5858C89.7366 83.9609 90 84.4696 90 85Z" fill="#1C1C1C"/>
<path fill-rule="evenodd" clip-rule="evenodd" d="M2 17V88H7V17H2Z" fill="#1C1C1C"/>
<path fill-rule="evenodd" clip-rule="evenodd" d="M2 17V21.7333H21V17H2ZM2 83.2667V88H21V83.2667H2ZM2 50.1333V54.8667H21V50.1333H2Z" fill="#1C1C1C"/>
</svg>
