<svg width="105" height="105" viewBox="0 0 105 105" fill="none" xmlns="http://www.w3.org/2000/svg">
<path d="M31.2085 20.3491C30.7789 20.3491 30.3669 20.5199 30.0631 20.8237C29.7593 21.1275 29.5886 21.5394 29.5886 21.969V34.9283C29.5886 35.3579 29.7593 35.7702 30.0631 36.074C30.3669 36.3778 30.7789 36.5482 31.2085 36.5482H86.2853C86.7149 36.5482 87.1269 36.3778 87.4307 36.074C87.7345 35.7702 87.9052 35.3579 87.9052 34.9283V21.969C87.9052 21.5394 87.7345 21.1275 87.4307 20.8237C87.1269 20.5199 86.7149 20.3491 86.2853 20.3491H31.2085ZM32.8284 23.5889H84.6654V33.3084H32.8284V23.5889Z" fill="#4654B7"/>
<path fill-rule="evenodd" clip-rule="evenodd" d="M39.3094 26.8291V30.0689H61.9881V26.8291H39.3094Z" fill="#4654B7"/>
<path d="M78.1907 28.4524C78.1907 28.882 78.0201 29.2941 77.7163 29.5979C77.4125 29.9017 77.0005 30.0723 76.5708 30.0723C76.1412 30.0723 75.7292 29.9017 75.4254 29.5979C75.1216 29.2941 74.9509 28.882 74.9509 28.4524C74.9509 28.0228 75.1216 27.6108 75.4254 27.307C75.7292 27.0032 76.1412 26.8325 76.5708 26.8325C77.0005 26.8325 77.4125 27.0032 77.7163 27.307C78.0201 27.6108 78.1907 28.0228 78.1907 28.4524Z" fill="#4654B7"/>
<path d="M31.2085 43.0288C30.7789 43.0288 30.3669 43.1996 30.0631 43.5034C29.7593 43.8072 29.5886 44.2191 29.5886 44.6487V57.6079C29.5886 58.0376 29.7593 58.4499 30.0631 58.7537C30.3669 59.0575 30.7789 59.2278 31.2085 59.2278H86.2853C86.7149 59.2278 87.1269 59.0575 87.4307 58.7537C87.7345 58.4499 87.9052 58.0376 87.9052 57.6079V44.6487C87.9052 44.2191 87.7345 43.8072 87.4307 43.5034C87.1269 43.1996 86.7149 43.0288 86.2853 43.0288H31.2085ZM32.8284 46.2686H84.6654V55.988H32.8284V46.2686Z" fill="#4654B7"/>
<path fill-rule="evenodd" clip-rule="evenodd" d="M39.3094 49.5083V52.7481H61.9881V49.5083H39.3094Z" fill="#4654B7"/>
<path d="M78.1907 51.1321C78.1907 51.5617 78.0201 51.9738 77.7163 52.2776C77.4125 52.5813 77.0005 52.752 76.5708 52.752C76.1412 52.752 75.7292 52.5813 75.4254 52.2776C75.1216 51.9738 74.9509 51.5617 74.9509 51.1321C74.9509 50.7025 75.1216 50.2905 75.4254 49.9867C75.7292 49.6829 76.1412 49.5122 76.5708 49.5122C77.0005 49.5122 77.4125 49.6829 77.7163 49.9867C78.0201 50.2905 78.1907 50.7025 78.1907 51.1321Z" fill="#4654B7"/>
<path d="M31.2085 65.708C30.7789 65.708 30.3669 65.8788 30.0631 66.1826C29.7593 66.4864 29.5886 66.8983 29.5886 67.3279V80.2871C29.5886 80.7168 29.7593 81.1291 30.0631 81.4329C30.3669 81.7367 30.7789 81.907 31.2085 81.907H86.2853C86.7149 81.907 87.1269 81.7367 87.4307 81.4329C87.7345 81.1291 87.9052 80.7168 87.9052 80.2871V67.3279C87.9052 66.8983 87.7345 66.4864 87.4307 66.1826C87.1269 65.8788 86.7149 65.708 86.2853 65.708H31.2085ZM32.8284 68.9478H84.6654V78.6672H32.8284V68.9478Z" fill="#4654B7"/>
<path fill-rule="evenodd" clip-rule="evenodd" d="M39.3094 72.188V75.4278H61.9881V72.188H39.3094Z" fill="#4654B7"/>
<path d="M78.1907 73.8113C78.1907 74.2409 78.0201 74.653 77.7163 74.9568C77.4125 75.2605 77.0005 75.4312 76.5708 75.4312C76.1412 75.4312 75.7292 75.2605 75.4254 74.9568C75.1216 74.653 74.9509 74.2409 74.9509 73.8113C74.9509 73.3817 75.1216 72.9697 75.4254 72.6659C75.7292 72.3621 76.1412 72.1914 76.5708 72.1914C77.0005 72.1914 77.4125 72.3621 77.7163 72.6659C78.0201 72.9697 78.1907 73.3817 78.1907 73.8113Z" fill="#4654B7"/>
<path fill-rule="evenodd" clip-rule="evenodd" d="M16.6288 26.8291V75.4262H19.8686V26.8291H16.6288Z" fill="#4654B7"/>
<path fill-rule="evenodd" clip-rule="evenodd" d="M16.6288 26.8291V30.0689H29.588V26.8291H16.6288ZM16.6288 72.1864V75.4262H29.588V72.1864H16.6288ZM16.6288 49.5078V52.7476H29.588V49.5078H16.6288Z" fill="#4654B7"/>
</svg>
