<svg width="56" height="56" viewBox="0 0 56 56" fill="none" xmlns="http://www.w3.org/2000/svg">
<path d="M11.5866 4.30005C11.2563 4.30005 10.9396 4.43103 10.7061 4.66401C10.4725 4.89699 10.3413 5.21288 10.3413 5.54237V15.4809C10.3413 15.8104 10.4725 16.1266 10.7061 16.3596C10.9396 16.5926 11.2563 16.7232 11.5866 16.7232H53.9275C54.2577 16.7232 54.5745 16.5926 54.808 16.3596C55.0416 16.1266 55.1728 15.8104 55.1728 15.4809V5.54237C55.1728 5.21288 55.0416 4.89699 54.808 4.66401C54.5745 4.43103 54.2577 4.30005 53.9275 4.30005H11.5866ZM12.8319 10.5116C12.8319 8.4533 14.5006 6.78468 16.5589 6.78468H48.9552C51.0135 6.78468 52.6821 8.4533 52.6821 10.5116C52.6821 12.57 51.0135 14.2386 48.9552 14.2386H16.5589C14.5006 14.2386 12.8319 12.57 12.8319 10.5116Z" fill="#1C1C1C"/>
<path fill-rule="evenodd" clip-rule="evenodd" d="M19.5236 9.16113C18.927 9.16113 18.4434 9.64479 18.4434 10.2414C18.4434 10.838 18.927 11.3217 19.5236 11.3217H33.0271C33.6237 11.3217 34.1074 10.838 34.1074 10.2414C34.1074 9.64479 33.6237 9.16113 33.0271 9.16113H19.5236Z" fill="#1C1C1C"/>
<path d="M48.1509 10.2414C48.1509 10.5279 48.0086 10.8027 47.7554 11.0053C47.5021 11.2079 47.1587 11.3217 46.8005 11.3217C46.4424 11.3217 46.0989 11.2079 45.8457 11.0053C45.5925 10.8027 45.4502 10.5279 45.4502 10.2414C45.4502 9.9549 45.5925 9.68013 45.8457 9.47754C46.0989 9.27495 46.4424 9.16113 46.8005 9.16113C47.1587 9.16113 47.5021 9.27495 47.7554 9.47754C48.0086 9.68013 48.1509 9.9549 48.1509 10.2414Z" fill="#1C1C1C"/>
<path d="M11.5866 22.1245C11.2563 22.1245 10.9396 22.2498 10.7061 22.4726C10.4725 22.6955 10.3413 22.9977 10.3413 23.3128V32.8192C10.3413 33.1344 10.4725 33.4369 10.7061 33.6597C10.9396 33.8826 11.2563 34.0076 11.5866 34.0076H53.9275C54.2577 34.0076 54.5745 33.8826 54.808 33.6597C55.0416 33.4369 55.1728 33.1344 55.1728 32.8192V23.3128C55.1728 22.9977 55.0416 22.6955 54.808 22.4726C54.5745 22.2498 54.2577 22.1245 53.9275 22.1245H11.5866ZM12.8319 28.066C12.8319 26.0972 14.428 24.5011 16.3969 24.5011H49.1172C51.0861 24.5011 52.6821 26.0972 52.6821 28.066C52.6821 30.0349 51.0861 31.6309 49.1172 31.6309H16.3969C14.428 31.6309 12.8319 30.0349 12.8319 28.066Z" fill="#1C1C1C"/>
<path fill-rule="evenodd" clip-rule="evenodd" d="M19.5236 26.9858C18.927 26.9858 18.4434 27.4695 18.4434 28.0661C18.4434 28.6627 18.927 29.1464 19.5236 29.1464H33.0271C33.6237 29.1464 34.1074 28.6627 34.1074 28.0661C34.1074 27.4695 33.6237 26.9858 33.0271 26.9858H19.5236Z" fill="#1C1C1C"/>
<path d="M48.1509 28.0661C48.1509 28.3526 48.0086 28.6274 47.7554 28.83C47.5021 29.0326 47.1587 29.1464 46.8005 29.1464C46.4424 29.1464 46.0989 29.0326 45.8457 28.83C45.5925 28.6274 45.4502 28.3526 45.4502 28.0661C45.4502 27.7796 45.5925 27.5048 45.8457 27.3022C46.0989 27.0997 46.4424 26.9858 46.8005 26.9858C47.1587 26.9858 47.5021 27.0997 47.7554 27.3022C48.0086 27.5048 48.1509 27.7796 48.1509 28.0661Z" fill="#1C1C1C"/>
<path d="M11.5866 39.4089C11.2563 39.4089 10.9396 39.5399 10.7061 39.7729C10.4725 40.0059 10.3413 40.3218 10.3413 40.6513V50.5898C10.3413 50.9193 10.4725 51.2355 10.7061 51.4685C10.9396 51.7014 11.2563 51.8321 11.5866 51.8321H53.9275C54.2577 51.8321 54.5745 51.7014 54.808 51.4685C55.0416 51.2355 55.1728 50.9193 55.1728 50.5898V40.6513C55.1728 40.3218 55.0416 40.0059 54.808 39.7729C54.5745 39.5399 54.2577 39.4089 53.9275 39.4089H11.5866ZM12.8319 45.6205C12.8319 43.5622 14.5006 41.8936 16.5589 41.8936H48.9552C51.0135 41.8936 52.6821 43.5622 52.6821 45.6205C52.6821 47.6789 51.0135 49.3475 48.9552 49.3475H16.5589C14.5006 49.3475 12.8319 47.6789 12.8319 45.6205Z" fill="#1C1C1C"/>
<path fill-rule="evenodd" clip-rule="evenodd" d="M19.5236 44.8103C18.927 44.8103 18.4434 45.294 18.4434 45.8906C18.4434 46.4872 18.927 46.9709 19.5236 46.9709H33.0271C33.6237 46.9709 34.1074 46.4872 34.1074 45.8906C34.1074 45.294 33.6237 44.8103 33.0271 44.8103H19.5236Z" fill="#1C1C1C"/>
<path d="M48.1509 45.8906C48.1509 46.1771 48.0086 46.4519 47.7554 46.6545C47.5021 46.857 47.1587 46.9709 46.8005 46.9709C46.4424 46.9709 46.0989 46.857 45.8457 46.6545C45.5925 46.4519 45.4502 46.1771 45.4502 45.8906C45.4502 45.6041 45.5925 45.3293 45.8457 45.1267C46.0989 44.9241 46.4424 44.8103 46.8005 44.8103C47.1587 44.8103 47.5021 44.9241 47.7554 45.1267C48.0086 45.3293 48.1509 45.6041 48.1509 45.8906Z" fill="#1C1C1C"/>
</svg>
