<svg width="14" height="19" viewBox="0 0 14 19" fill="none" xmlns="http://www.w3.org/2000/svg">
<path id="Vector" d="M13.0275 6.96488L12.7334 15.76C12.7084 16.5133 12.3873 17.2273 11.8383 17.7504C11.2893 18.2735 10.5556 18.5646 9.79302 18.562H4.20625C3.44411 18.5647 2.71087 18.2739 2.16196 17.7514C1.61306 17.2289 1.29164 16.5157 1.26584 15.7629L0.971804 6.96488C0.96537 6.77221 1.03665 6.58491 1.16996 6.44417C1.30327 6.30344 1.48769 6.22081 1.68265 6.21445C1.87761 6.20809 2.06714 6.27853 2.20955 6.41027C2.35195 6.54201 2.43557 6.72426 2.44201 6.91693L2.73605 15.7143C2.75069 16.0898 2.91202 16.4452 3.18617 16.7057C3.46031 16.9661 3.82594 17.1115 4.20625 17.1112H9.79302C10.1738 17.1115 10.5399 16.9657 10.8141 16.7046C11.0883 16.4435 11.2493 16.0874 11.2632 15.7114L11.5573 6.91693C11.5637 6.72426 11.6473 6.54201 11.7897 6.41027C11.9321 6.27853 12.1217 6.20809 12.3166 6.21445C12.5116 6.22081 12.696 6.30344 12.8293 6.44417C12.9626 6.58491 13.0339 6.77221 13.0275 6.96488ZM14 4.038C14 4.23067 13.9226 4.41544 13.7847 4.55168C13.6468 4.68791 13.4599 4.76445 13.2649 4.76445H0.735101C0.54014 4.76445 0.353164 4.68791 0.215306 4.55168C0.0774477 4.41544 0 4.23067 0 4.038C0 3.84533 0.0774477 3.66056 0.215306 3.52432C0.353164 3.38808 0.54014 3.31155 0.735101 3.31155H3.01391C3.24683 3.31217 3.47165 3.22713 3.64462 3.07298C3.81759 2.91883 3.92633 2.70659 3.9497 2.47758C4.00394 1.94036 4.25863 1.44233 4.66414 1.08054C5.06965 0.718753 5.59692 0.519111 6.14324 0.520515H7.85603C8.40234 0.519111 8.92962 0.718753 9.33512 1.08054C9.74063 1.44233 9.99532 1.94036 10.0496 2.47758C10.0729 2.70659 10.1817 2.91883 10.3546 3.07298C10.5276 3.22713 10.7524 3.31217 10.9854 3.31155H13.2642C13.4591 3.31155 13.6461 3.38808 13.784 3.52432C13.9218 3.66056 13.9993 3.84533 13.9993 4.038H14ZM5.22583 3.31155H8.7749C8.6783 3.09342 8.61513 2.8623 8.58745 2.62577C8.56924 2.44671 8.48442 2.2807 8.34942 2.15991C8.21443 2.03912 8.03887 1.97215 7.85676 1.97197H6.14397C5.96187 1.97215 5.78631 2.03912 5.65131 2.15991C5.51631 2.2807 5.43149 2.44671 5.41328 2.62577C5.38537 2.86233 5.32268 3.09346 5.22583 3.31155ZM5.96608 14.318V8.13229C5.96608 7.93962 5.88863 7.75484 5.75077 7.61861C5.61292 7.48237 5.42594 7.40583 5.23098 7.40583C5.03602 7.40583 4.84904 7.48237 4.71118 7.61861C4.57333 7.75484 4.49588 7.93962 4.49588 8.13229V14.3209C4.49588 14.5136 4.57333 14.6984 4.71118 14.8346C4.84904 14.9709 5.03602 15.0474 5.23098 15.0474C5.42594 15.0474 5.61292 14.9709 5.75077 14.8346C5.88863 14.6984 5.96608 14.5136 5.96608 14.3209V14.318ZM9.50486 14.318V8.13229C9.50486 7.93962 9.42741 7.75484 9.28955 7.61861C9.15169 7.48237 8.96472 7.40583 8.76976 7.40583C8.57479 7.40583 8.38782 7.48237 8.24996 7.61861C8.1121 7.75484 8.03465 7.93962 8.03465 8.13229V14.3209C8.03465 14.5136 8.1121 14.6984 8.24996 14.8346C8.38782 14.9709 8.57479 15.0474 8.76976 15.0474C8.96472 15.0474 9.15169 14.9709 9.28955 14.8346C9.42741 14.6984 9.50486 14.5136 9.50486 14.3209V14.318Z" fill="black"/>
</svg>
