<svg width="63" height="67" viewBox="0 0 63 67" fill="none" xmlns="http://www.w3.org/2000/svg">
<path d="M58.6236 23.9322L57.3004 56.5945C57.1877 59.3918 55.7428 62.0433 53.2723 63.986C50.8019 65.9287 47.5004 67.0099 44.0686 66.9999H18.9281C15.4985 67.0099 12.1989 65.9303 9.72884 63.9899C7.25876 62.0494 5.81237 59.4007 5.6963 56.6053L4.37312 23.9322C4.34416 23.2167 4.66492 22.5211 5.2648 21.9985C5.8647 21.4759 6.69458 21.169 7.57191 21.1454C8.44923 21.1218 9.30212 21.3834 9.94296 21.8726C10.5838 22.3619 10.9601 23.0387 10.989 23.7542L12.3122 56.4245C12.3781 57.8192 13.1041 59.1389 14.3378 60.1062C15.5714 61.0736 17.2167 61.6135 18.9281 61.6124H44.0686C45.7822 61.6134 47.4294 61.072 48.6634 60.1023C49.8974 59.1327 50.6219 57.8104 50.6845 56.4138L52.0077 23.7542C52.0366 23.0387 52.4129 22.3619 53.0537 21.8726C53.6946 21.3834 54.5475 21.1218 55.4248 21.1454C56.3021 21.169 57.132 21.4759 57.7319 21.9985C58.3318 22.5211 58.6525 23.2167 58.6236 23.9322ZM63 13.0628C63 13.7783 62.6515 14.4645 62.0311 14.9704C61.4108 15.4764 60.5694 15.7606 59.692 15.7606H3.30795C2.43063 15.7606 1.58924 15.4764 0.968877 14.9704C0.348515 14.4645 0 13.7783 0 13.0628C0 12.3473 0.348515 11.6611 0.968877 11.1551C1.58924 10.6492 2.43063 10.365 3.30795 10.365H13.5626C14.6107 10.3673 15.6224 10.0515 16.4008 9.47901C17.1791 8.90655 17.6685 8.11839 17.7736 7.2679C18.0177 5.27284 19.1638 3.42335 20.9886 2.07978C22.8134 0.736214 25.1862 -0.00518871 27.6446 2.73365e-05H35.3521C37.8105 -0.00518871 40.1833 0.736214 42.0081 2.07978C43.8328 3.42335 44.9789 5.27284 45.223 7.2679C45.3282 8.11839 45.8176 8.90655 46.5959 9.47901C47.3743 10.0515 48.386 10.3673 49.4341 10.365H59.6887C60.5661 10.365 61.4075 10.6492 62.0278 11.1551C62.6482 11.6611 62.9967 12.3473 62.9967 13.0628H63ZM23.5163 10.365H39.4871C39.0524 9.55495 38.7681 8.69662 38.6435 7.81826C38.5616 7.15327 38.1799 6.53676 37.5724 6.08819C36.9649 5.63961 36.1749 5.3909 35.3554 5.39024H27.6479C26.8284 5.3909 26.0384 5.63961 25.4309 6.08819C24.8234 6.53676 24.4417 7.15327 24.3598 7.81826C24.2342 8.69676 23.9521 9.55509 23.5163 10.365ZM26.8474 51.2394V28.2676C26.8474 27.5521 26.4988 26.8659 25.8785 26.36C25.2581 25.854 24.4167 25.5698 23.5394 25.5698C22.6621 25.5698 21.8207 25.854 21.2003 26.36C20.58 26.8659 20.2315 27.5521 20.2315 28.2676V51.2502C20.2315 51.9657 20.58 52.6519 21.2003 53.1578C21.8207 53.6637 22.6621 53.948 23.5394 53.948C24.4167 53.948 25.2581 53.6637 25.8785 53.1578C26.4988 52.6519 26.8474 51.9657 26.8474 51.2502V51.2394ZM42.7719 51.2394V28.2676C42.7719 27.5521 42.4233 26.8659 41.803 26.36C41.1826 25.854 40.3412 25.5698 39.4639 25.5698C38.5866 25.5698 37.7452 25.854 37.1248 26.36C36.5045 26.8659 36.1559 27.5521 36.1559 28.2676V51.2502C36.1559 51.9657 36.5045 52.6519 37.1248 53.1578C37.7452 53.6637 38.5866 53.948 39.4639 53.948C40.3412 53.948 41.1826 53.6637 41.803 53.1578C42.4233 52.6519 42.7719 51.9657 42.7719 51.2502V51.2394Z" fill="#EB3636"/>
</svg>
