<svg width="95" height="95" viewBox="0 0 95 95" fill="none" xmlns="http://www.w3.org/2000/svg">
<path d="M28.7957 52.1323H28.7166C27.9451 52.1401 27.1828 52.3009 26.4738 52.6053C25.7649 52.9097 25.1234 53.3517 24.5864 53.9057C23.4901 55.0299 22.8995 56.5116 22.9185 58.0799C22.9376 59.6481 23.5678 61.1152 24.6919 62.21C25.7849 63.2822 27.2558 63.8813 28.7869 63.8779H28.8661C29.6376 63.8701 30.3998 63.7094 31.1088 63.405C31.8177 63.1005 32.4593 62.6585 32.9962 62.1045C34.0925 60.9803 34.6831 59.4986 34.6641 57.9304C34.645 56.3621 34.0148 54.895 32.8907 53.8002C31.7977 52.728 30.3268 52.1289 28.7957 52.1323ZM30.8989 60.0585C30.6298 60.3359 30.3083 60.5573 29.9531 60.7098C29.5979 60.8622 29.2159 60.9427 28.8294 60.9466H28.7898C28.0236 60.9481 27.2876 60.648 26.7409 60.1112C26.1766 59.5616 25.8615 58.8288 25.8527 58.0418C25.8439 57.2547 26.1385 56.5131 26.6867 55.9503C26.9558 55.6728 27.2772 55.4514 27.6325 55.299C27.9877 55.1465 28.3696 55.066 28.7561 55.0621H28.7957C29.5619 55.0607 30.2979 55.3607 30.8447 55.8975C31.4089 56.4471 31.724 57.18 31.7328 57.967C31.7416 58.754 31.447 59.4957 30.8989 60.0585Z" fill="#1C1C1C"/>
<path d="M42.0345 62.004C42.2269 62.0015 42.4171 61.9611 42.5939 61.8851C42.7708 61.8092 42.931 61.6991 43.0653 61.5612C43.1996 61.4234 43.3055 61.2604 43.3768 61.0816C43.4482 60.9028 43.4836 60.7117 43.4811 60.5192L43.4137 55.256C43.4087 54.8706 43.252 54.5027 42.9777 54.2319C42.7034 53.9612 42.3334 53.8094 41.948 53.8094H41.9289L40.0309 53.8343C39.9064 53.5078 39.7686 53.1865 39.6176 52.8714L40.9411 51.5127C41.0756 51.3749 41.1816 51.2121 41.2531 51.0333C41.3246 50.8546 41.3601 50.6635 41.3577 50.471C41.3552 50.2785 41.3148 50.0884 41.2388 49.9115C41.1628 49.7346 41.0527 49.5745 40.9147 49.4402L37.1464 45.7672C36.8681 45.4959 36.4934 45.3463 36.1047 45.3512C35.7161 45.3562 35.3453 45.5153 35.074 45.7936L33.7505 47.1523C33.4313 47.0089 33.1061 46.8793 32.7758 46.7639L32.7524 44.8658C32.75 44.6734 32.7097 44.4834 32.6337 44.3066C32.5577 44.1297 32.4477 43.9697 32.3097 43.8355C32.1726 43.7 32.0098 43.5933 31.8308 43.5218C31.6518 43.4503 31.4603 43.4155 31.2676 43.4192L26.0044 43.4866C25.8119 43.4891 25.6218 43.5295 25.4449 43.6055C25.2681 43.6814 25.1079 43.7915 24.9735 43.9294C24.8392 44.0672 24.7334 44.2302 24.662 44.409C24.5907 44.5878 24.5553 44.7789 24.5578 44.9714L24.5827 46.8694C24.2558 46.9925 23.9345 47.1299 23.6197 47.2813L22.2611 45.9578C21.9775 45.6944 21.606 45.546 21.219 45.5415C21.0265 45.5436 20.8363 45.5838 20.6595 45.6597C20.4826 45.7357 20.3226 45.846 20.1886 45.9842L16.5141 49.7539C16.3796 49.8917 16.2735 50.0547 16.202 50.2336C16.1305 50.4125 16.095 50.6037 16.0974 50.7963C16.0999 50.9889 16.1403 51.1792 16.2163 51.3562C16.2923 51.5331 16.4025 51.6934 16.5405 51.8278L17.9007 53.1513C17.7566 53.4697 17.627 53.7944 17.5123 54.1245L15.6142 54.1465C15.4217 54.149 15.2316 54.1894 15.0548 54.2653C14.8779 54.3413 14.7177 54.4513 14.5834 54.5892C14.449 54.7271 14.3432 54.8901 14.2718 55.0689C14.2005 55.2476 14.1651 55.4387 14.1676 55.6312L14.235 60.893C14.2453 61.702 14.9415 62.322 15.7198 62.3396L17.6178 62.3147C17.7424 62.6415 17.8802 62.9625 18.0311 63.2776L16.7076 64.6363C16.5731 64.774 16.4671 64.9369 16.3956 65.1157C16.3241 65.2944 16.2886 65.4855 16.291 65.678C16.2935 65.8705 16.3339 66.0606 16.4099 66.2375C16.4859 66.4144 16.596 66.5745 16.734 66.7088L20.5022 70.3818C20.7807 70.6529 21.1677 70.7951 21.5443 70.798C21.7368 70.796 21.927 70.7558 22.1038 70.6798C22.2807 70.6038 22.4407 70.4936 22.5747 70.3554L23.8982 68.9967C24.2177 69.1403 24.5416 69.2693 24.8729 69.3851L24.8963 71.2832C24.8987 71.4756 24.939 71.6656 25.015 71.8424C25.091 72.0192 25.201 72.1793 25.339 72.3135C25.6116 72.5812 25.9785 72.7312 26.3605 72.7312H26.3796L31.6428 72.6638C31.8353 72.6613 32.0254 72.621 32.2023 72.545C32.3792 72.469 32.5393 72.359 32.6737 72.2211C32.808 72.0832 32.9139 71.9202 32.9852 71.7414C33.0566 71.5627 33.092 71.3716 33.0895 71.1791L33.0645 69.281C33.3929 69.1579 33.7124 69.0202 34.0275 68.8692L35.3862 70.1927C35.6632 70.4638 36.0032 70.6031 36.4283 70.6089C36.6207 70.6069 36.8109 70.5667 36.9877 70.4907C37.1646 70.4148 37.3246 70.3045 37.4586 70.1663L41.1331 66.3966C41.2676 66.2587 41.3737 66.0957 41.4452 65.9169C41.5167 65.738 41.5522 65.5468 41.5498 65.3542C41.5473 65.1615 41.507 64.9713 41.4309 64.7943C41.3549 64.6173 41.2447 64.457 41.1067 64.3227L39.7466 62.9992C39.8902 62.6811 40.0206 62.3557 40.135 62.026L42.0345 62.004ZM39.0196 59.1107C38.6942 59.1146 38.3793 59.2268 38.1248 59.4296C37.8703 59.6324 37.6905 59.9142 37.614 60.2305C37.4147 61.0504 37.1004 61.8379 36.6804 62.5697C36.5189 62.8518 36.4558 63.1794 36.5009 63.5013C36.546 63.8231 36.6968 64.1208 36.9295 64.3476L38.0112 65.4014L36.3843 67.0723L35.3026 66.017C35.0692 65.7903 34.7672 65.6475 34.4438 65.6109C34.1205 65.5742 33.7942 65.6459 33.516 65.8147C32.7947 66.2523 32.0157 66.5868 31.2017 66.8084C30.8882 66.8939 30.612 67.081 30.4165 67.3405C30.221 67.5999 30.1172 67.917 30.1215 68.2419L30.1405 69.753L27.8086 69.7838L27.7896 68.2727C27.7855 67.9475 27.6734 67.633 27.471 67.3785C27.2685 67.124 26.9872 66.9441 26.6713 66.8671C25.8511 66.6674 25.0631 66.3531 24.3306 65.9334C24.0484 65.772 23.7206 65.7087 23.3986 65.7535C23.0766 65.7983 22.7786 65.9487 22.5513 66.1811L21.496 67.2628L19.8266 65.6359L20.8804 64.5542C21.1073 64.3216 21.2504 64.0201 21.2873 63.6972C21.3242 63.3743 21.2527 63.0483 21.0841 62.7705C20.6463 62.0488 20.3118 61.2693 20.0904 60.4548C20.0057 60.1408 19.8188 59.864 19.5592 59.6681C19.2996 59.4722 18.9821 59.3684 18.657 59.3731L17.1459 59.3921L17.1151 57.0602L18.6262 57.0412C18.9516 57.0373 19.2664 56.9251 19.521 56.7223C19.7755 56.5195 19.9552 56.2377 20.0318 55.9214C20.2311 55.1021 20.5448 54.315 20.9654 53.5822C21.1268 53.3002 21.19 52.9725 21.1449 52.6507C21.0998 52.3288 20.949 52.0311 20.7162 51.8043L19.6346 50.7505L21.2615 49.0797L22.3431 50.1349C22.5762 50.3623 22.8783 50.5056 23.2018 50.5422C23.5253 50.5789 23.8518 50.5067 24.1298 50.3372C24.8511 49.8996 25.6301 49.5651 26.4441 49.3435C26.7576 49.2581 27.0337 49.0709 27.2293 48.8114C27.4248 48.552 27.5286 48.2349 27.5243 47.91L27.5052 46.3989L29.8371 46.3682L29.8562 47.8793C29.8603 48.2044 29.9723 48.519 30.1748 48.7734C30.3772 49.0279 30.6586 49.2078 30.9745 49.2848C31.7947 49.4846 32.5827 49.7989 33.3152 50.2185C33.8956 50.5497 34.627 50.4501 35.0945 49.9708L36.1498 48.8891L37.8192 50.516L36.7654 51.5977C36.5385 51.8303 36.3953 52.1318 36.3584 52.4547C36.3216 52.7776 36.393 53.1036 36.5616 53.3814C36.9999 54.1025 37.3326 54.8808 37.5554 55.6972C37.7298 56.3406 38.3483 56.7847 38.9888 56.7788L40.4999 56.7598L40.5307 59.0917L39.0196 59.1107ZM66.8263 52.1327C66.0548 52.1404 65.2925 52.3012 64.5835 52.6056C63.8746 52.91 63.233 53.3521 62.6961 53.9061C61.5998 55.0303 61.0091 56.5121 61.0281 58.0804C61.0472 59.6486 61.6774 61.1158 62.8016 62.2106C63.8946 63.2829 65.3656 63.882 66.8967 63.8786H66.9758C67.7474 63.8708 68.5097 63.7101 69.2187 63.4056C69.9276 63.1012 70.5692 62.6592 71.1061 62.1051C72.2024 60.9809 72.7931 59.4991 72.7741 57.9309C72.755 56.3626 72.1248 54.8955 71.0006 53.8006C69.8749 52.7043 68.3199 52.1341 66.8263 52.1327ZM69.0073 60.059C68.7381 60.3365 68.4167 60.5579 68.0614 60.7104C67.7062 60.8628 67.3243 60.9433 66.9377 60.9472H66.8982C66.1319 60.9487 65.3959 60.6486 64.8491 60.1118C64.2849 59.5622 63.9697 58.8293 63.961 58.0423C63.9522 57.2552 64.2468 56.5136 64.7949 55.9507C65.064 55.6732 65.3855 55.4519 65.7407 55.2994C66.096 55.1469 66.4779 55.0664 66.8644 55.0625H66.904C67.6702 55.0611 68.4063 55.3612 68.953 55.898C69.5173 56.4476 69.8324 57.1804 69.8412 57.9675C69.85 58.7546 69.5554 59.4962 69.0073 60.059Z" fill="#1C1C1C"/>
<path d="M74.534 70.6071C74.7264 70.605 74.9166 70.5649 75.0934 70.4889C75.2703 70.4129 75.4303 70.3027 75.5643 70.1645L79.2386 66.3949C79.3732 66.257 79.4792 66.094 79.5507 65.9152C79.6222 65.7363 79.6578 65.5451 79.6553 65.3525C79.6529 65.1599 79.6125 64.9696 79.5365 64.7927C79.4604 64.6157 79.3503 64.4554 79.2123 64.321L77.8521 62.9976C77.9958 62.6795 78.1262 62.3542 78.2405 62.0244L80.1385 61.9995C80.331 61.997 80.5211 61.9566 80.698 61.8806C80.8748 61.8047 81.035 61.6946 81.1693 61.5568C81.3037 61.4189 81.4095 61.2559 81.4809 61.0771C81.5522 60.8983 81.5876 60.7073 81.5851 60.5148L81.5177 55.2532C81.5127 54.8678 81.356 54.4999 81.0817 54.2291C80.8074 53.9584 80.4375 53.8066 80.0521 53.8066H80.033L78.135 53.8315C78.0106 53.505 77.8727 53.1838 77.7217 52.8686L79.0452 51.51C79.1797 51.3723 79.2857 51.2094 79.3572 51.0306C79.4287 50.8519 79.4642 50.6608 79.4618 50.4683C79.4593 50.2758 79.4189 50.0857 79.3429 49.9088C79.2669 49.732 79.1568 49.5718 79.0188 49.4376L75.2507 45.7647C75.113 45.63 74.9502 45.5238 74.7714 45.4523C74.5927 45.3807 74.4015 45.3451 74.209 45.3475C74.0164 45.35 73.8263 45.3904 73.6494 45.4665C73.4725 45.5427 73.3124 45.653 73.1783 45.7911L71.8548 47.1497C71.5357 47.0063 71.2105 46.8767 70.8802 46.7613L70.8567 44.8633C70.8543 44.6709 70.814 44.4809 70.7381 44.3041C70.6621 44.1273 70.552 43.9672 70.4141 43.833C70.2772 43.6973 70.1144 43.5904 69.9354 43.5189C69.7564 43.4474 69.5648 43.4127 69.372 43.4168L64.109 43.4842C63.9165 43.4867 63.7264 43.5271 63.5495 43.603C63.3727 43.679 63.2125 43.789 63.0782 43.9269C62.9438 44.0648 62.838 44.2278 62.7666 44.4065C62.6953 44.5853 62.6599 44.7764 62.6624 44.9689L62.6873 46.8669C62.3604 46.9899 62.0392 47.1273 61.7244 47.2787L60.3657 45.9552C60.0824 45.6915 59.7108 45.5431 59.3237 45.539C59.1312 45.5411 58.9411 45.5812 58.7642 45.6572C58.5874 45.7332 58.4273 45.8434 58.2934 45.9816L54.619 49.7512C54.4845 49.8891 54.3784 50.0521 54.3069 50.2309C54.2354 50.4098 54.1999 50.601 54.2023 50.7936C54.2048 50.9862 54.2452 51.1765 54.3212 51.3535C54.3972 51.5304 54.5074 51.6907 54.6454 51.8251L56.0055 53.1485C55.8615 53.4669 55.7319 53.7916 55.6171 54.1217L53.7191 54.1466C53.5267 54.1491 53.3366 54.1895 53.1597 54.2655C52.9828 54.3414 52.8226 54.4515 52.6883 54.5893C52.554 54.7272 52.4481 54.8902 52.3768 55.069C52.3055 55.2478 52.27 55.4388 52.2726 55.6313L52.34 60.8944C52.345 61.2798 52.5016 61.6477 52.7759 61.9184C53.0502 62.1892 53.4202 62.341 53.8056 62.341H53.8247L55.7226 62.316C55.8472 62.6429 55.985 62.9639 56.1359 63.279L54.8125 64.6376C54.678 64.7753 54.572 64.9382 54.5005 65.117C54.429 65.2957 54.3935 65.4868 54.3959 65.6793C54.3984 65.8718 54.4387 66.0619 54.5148 66.2387C54.5908 66.4156 54.7009 66.5757 54.8389 66.71L58.607 70.3829C58.8855 70.654 59.2753 70.7962 59.6491 70.7991C59.8415 70.797 60.0317 70.7569 60.2085 70.6809C60.3854 70.6049 60.5454 70.4947 60.6794 70.3565L62.0029 68.9978C62.3224 69.1415 62.6463 69.2705 62.9775 69.3862L63.0009 71.2842C63.0056 71.6696 63.1621 72.0376 63.4366 72.3082C63.711 72.5788 64.0812 72.7301 64.4666 72.7293H64.4856L69.7487 72.6619C69.9412 72.6594 70.1313 72.619 70.3081 72.5431C70.485 72.4671 70.6452 72.3571 70.7795 72.2192C70.9138 72.0813 71.0197 71.9184 71.091 71.7396C71.1624 71.5608 71.1978 71.3697 71.1953 71.1772L71.1704 69.2792C71.4987 69.1561 71.8182 69.0184 72.1333 68.8674L73.4919 70.1909C73.7704 70.462 74.1119 70.6012 74.534 70.6071ZM71.6218 65.813C70.9005 66.2506 70.1215 66.5851 69.3075 66.8067C68.9941 66.8921 68.7179 67.0793 68.5224 67.3387C68.3269 67.5982 68.2231 67.9153 68.2274 68.2401L68.2464 69.7512L65.9146 69.782L65.8956 68.2709C65.8915 67.9458 65.7794 67.6312 65.577 67.3768C65.3745 67.1223 65.0932 66.9424 64.7773 66.8654C63.9571 66.6657 63.1691 66.3514 62.4367 65.9317C62.1545 65.7703 61.8268 65.707 61.5048 65.7518C61.1828 65.7966 60.8847 65.947 60.6574 66.1794L59.6022 67.2611L57.9328 65.6342L58.9866 64.5526C59.2135 64.3199 59.3566 64.0185 59.3935 63.6956C59.4304 63.3727 59.3589 63.0467 59.1903 62.7689C58.7525 62.0473 58.418 61.2678 58.1966 60.4532C58.1123 60.1427 57.9281 59.8685 57.6725 59.673C57.4169 59.4776 57.1041 59.3716 56.7823 59.3716H56.7632L55.2522 59.3907L55.2214 57.0588L56.7325 57.0398C57.0579 57.0359 57.3727 56.9237 57.6272 56.7209C57.8817 56.5181 58.0615 56.2363 58.138 55.92C58.3373 55.1008 58.651 54.3137 59.0716 53.5809C59.233 53.2989 59.2962 52.9712 59.2511 52.6494C59.206 52.3276 59.0552 52.0299 58.8224 51.8031L57.7408 50.7493L59.3677 49.0785L60.4493 50.1337C60.6823 50.3611 60.9844 50.5044 61.3079 50.541C61.6314 50.5777 61.9579 50.5055 62.2359 50.336C62.9572 49.8984 63.7361 49.564 64.5501 49.3423C64.8636 49.2569 65.1398 49.0698 65.3353 48.8103C65.5308 48.5508 65.6346 48.2338 65.6303 47.9089L65.6112 46.3979L67.943 46.3671L67.9621 47.8781C67.9662 48.2033 68.0783 48.5178 68.2807 48.7723C68.4831 49.0267 68.7645 49.2066 69.0804 49.2837C69.9006 49.4834 70.6885 49.7977 71.421 50.2173C72.0014 50.5485 72.7327 50.4489 73.2002 49.9696L74.2555 48.888L75.9249 50.5148L74.8711 51.5964C74.6442 51.8291 74.501 52.1306 74.4641 52.4534C74.4273 52.7763 74.4987 53.1023 74.6673 53.3801C75.1056 54.1012 75.4383 54.8794 75.661 55.6958C75.8354 56.3392 76.3645 56.7833 77.0944 56.7774L78.6055 56.7584L78.6363 59.0902L77.1252 59.1093C76.7998 59.1132 76.485 59.2254 76.2304 59.4281C75.9759 59.6309 75.7962 59.9127 75.7197 60.229C75.5204 61.0488 75.206 61.8364 74.7861 62.5681C74.6246 62.8502 74.5615 63.1778 74.6066 63.4996C74.6517 63.8215 74.8025 64.1192 75.0352 64.3459L76.1169 65.3997L74.49 67.0705L73.4084 66.0153C73.1753 65.7879 72.8732 65.6446 72.5497 65.608C72.2262 65.5714 71.8997 65.6435 71.6218 65.813ZM51.9443 24.4853C50.8201 23.389 49.2812 22.835 47.7701 22.8188C46.9986 22.8266 46.2364 22.9874 45.5274 23.2918C44.8185 23.5962 44.1769 24.0382 43.64 24.5923C42.5437 25.7164 41.9531 27.1981 41.9721 28.7664C41.9912 30.3346 42.6214 31.8017 43.7455 32.8965C44.8385 33.9687 46.3094 34.5678 47.8405 34.5644H47.9196C48.6911 34.5566 49.4534 34.3959 50.1624 34.0915C50.8713 33.7871 51.5128 33.345 52.0498 32.791C53.1461 31.6668 53.7367 30.1851 53.7177 28.6169C53.6986 27.0486 53.0684 25.5816 51.9443 24.4853ZM49.9525 30.745C49.6834 31.0225 49.3619 31.2438 49.0067 31.3963C48.6515 31.5487 48.2695 31.6292 47.883 31.6331C47.1473 31.6024 46.3558 31.3473 45.793 30.7992C45.2287 30.2496 44.9136 29.5168 44.9048 28.7297C44.8961 27.9427 45.1906 27.2011 45.7388 26.6383C46.0079 26.3608 46.3294 26.1394 46.6846 25.987C47.0398 25.8345 47.4217 25.754 47.8083 25.7501H47.8478C48.614 25.7486 49.35 26.0487 49.8968 26.5855C50.461 27.1351 50.7762 27.8679 50.7849 28.655C50.7937 29.442 50.5006 30.1822 49.9525 30.745Z" fill="#1C1C1C"/>
<path d="M54.4414 40.8794C54.7198 41.1505 55.1082 41.2693 55.4835 41.2956C55.6759 41.2936 55.8661 41.2534 56.0429 41.1774C56.2198 41.1015 56.3798 40.9912 56.5138 40.853L60.1883 37.0833C60.3228 36.9454 60.4289 36.7824 60.5004 36.6035C60.5719 36.4247 60.6074 36.2335 60.605 36.0409C60.6025 35.8482 60.5621 35.658 60.4861 35.481C60.4101 35.304 60.2999 35.1437 60.1619 35.0094L58.8017 33.6859C58.9454 33.3678 59.0758 33.0424 59.1901 32.7126L61.0882 32.6877C61.2807 32.6852 61.4708 32.6449 61.6477 32.5689C61.8245 32.4929 61.9847 32.3829 62.119 32.245C62.2534 32.1071 62.3592 31.9442 62.4306 31.7654C62.5019 31.5866 62.5373 31.3955 62.5348 31.203L62.4674 25.9412C62.4586 25.5537 62.2981 25.1852 62.0205 24.9147C61.7429 24.6442 61.3703 24.4934 60.9827 24.4946L59.0846 24.5195C58.9602 24.193 58.8223 23.8717 58.6713 23.5566L59.9948 22.1979C60.1293 22.0602 60.2353 21.8973 60.3068 21.7185C60.3783 21.5398 60.4138 21.3487 60.4114 21.1562C60.4089 20.9637 60.3686 20.7736 60.2925 20.5967C60.2165 20.4198 60.1064 20.2597 59.9684 20.1254L56.2002 16.4525C55.9217 16.1813 55.4952 16.0084 55.1581 16.0362C54.9656 16.0383 54.7754 16.0784 54.5986 16.1544C54.4217 16.2304 54.2617 16.3407 54.1277 16.4788L52.8042 17.8375C52.4851 17.6941 52.1599 17.5645 51.8295 17.4491L51.8061 15.5511C51.804 15.3586 51.7639 15.1684 51.6882 14.9915C51.6124 14.8145 51.5025 14.6543 51.3647 14.5199C51.2269 14.3855 51.064 14.2796 50.8852 14.2083C50.7064 14.137 50.5153 14.1017 50.3228 14.1044L45.0596 14.1719C44.8671 14.1744 44.677 14.2147 44.5001 14.2907C44.3232 14.3667 44.1631 14.4767 44.0287 14.6146C43.8944 14.7525 43.7885 14.9154 43.7172 15.0942C43.6459 15.273 43.6104 15.4641 43.613 15.6566L43.6379 17.5546C43.311 17.6777 42.9897 17.8151 42.6749 17.9665L41.3162 16.643C41.1811 16.5049 41.0186 16.3965 40.8391 16.3249C40.6597 16.2532 40.4673 16.2198 40.2742 16.2267C40.0817 16.2288 39.8915 16.269 39.7147 16.3449C39.5378 16.4209 39.3778 16.5312 39.2438 16.6694L35.5693 20.4391C35.4348 20.5769 35.3287 20.74 35.2572 20.9188C35.1857 21.0977 35.1502 21.2889 35.1526 21.4815C35.1551 21.6741 35.1955 21.8644 35.2715 22.0414C35.3475 22.2184 35.4577 22.3786 35.5957 22.513L36.9559 23.8365C36.8118 24.1549 36.6822 24.4796 36.5675 24.8097L34.6694 24.8346C34.4769 24.8371 34.2868 24.8775 34.11 24.9535C33.9331 25.0294 33.7729 25.1395 33.6386 25.2774C33.5042 25.4152 33.3984 25.5782 33.327 25.757C33.2557 25.9358 33.2203 26.1269 33.2228 26.3194L33.2902 31.5826C33.2952 31.968 33.4519 32.3359 33.7262 32.6067C34.0005 32.8775 34.3704 33.0293 34.7559 33.0292H34.7749L36.673 33.0043C36.7976 33.3312 36.9353 33.6521 37.0863 33.9673L35.7628 35.3259C35.6283 35.4637 35.5223 35.6266 35.4508 35.8053C35.3793 35.9841 35.3438 36.1752 35.3462 36.3676C35.3487 36.5601 35.389 36.7503 35.4651 36.9271C35.5411 37.104 35.6512 37.2642 35.7892 37.3984L39.5574 41.0714C39.8344 41.3425 40.176 41.4642 40.5995 41.4876C40.792 41.4856 40.9822 41.4454 41.159 41.3694C41.3359 41.2935 41.4959 41.1832 41.6299 41.045L42.9534 39.6863C43.2729 39.83 43.5968 39.9589 43.9281 40.0747L43.9515 41.9728C43.9562 42.3577 44.1123 42.7252 44.3861 42.9957C44.6599 43.2663 45.0294 43.418 45.4143 43.4179H45.4333L50.6966 43.3505C50.889 43.348 51.0791 43.3076 51.256 43.2317C51.4329 43.1557 51.5931 43.0457 51.7274 42.9078C51.8617 42.7699 51.9676 42.6069 52.0389 42.4281C52.1103 42.2494 52.1457 42.0583 52.1432 41.8658L52.1183 39.9677C52.4466 39.8446 52.7661 39.7068 53.0812 39.5559L54.4414 40.8794ZM50.2554 37.4937C49.9419 37.5791 49.6657 37.7662 49.4702 38.0257C49.2747 38.2852 49.1709 38.6022 49.1752 38.9271L49.1942 40.4382L46.8624 40.469L46.8433 38.9579C46.8392 38.6327 46.7271 38.3182 46.5247 38.0637C46.3222 37.8093 46.0409 37.6293 45.725 37.5523C44.9048 37.3526 44.1168 37.0383 43.3843 36.6187C43.1021 36.4572 42.7744 36.3939 42.4524 36.4387C42.1304 36.4835 41.8323 36.634 41.605 36.8664L40.5497 37.948L38.8803 36.3211L39.9341 35.2395C40.161 35.0068 40.3042 34.7053 40.341 34.3825C40.3779 34.0596 40.3064 33.7336 40.1378 33.4557C39.7 32.7341 39.3655 31.9546 39.1441 31.14C38.9697 30.4951 38.3483 30.0217 37.7107 30.0583L36.1996 30.0774L36.1688 27.7455L37.6799 27.7264C38.0053 27.7225 38.3202 27.6103 38.5747 27.4075C38.8292 27.2048 39.009 26.923 39.0855 26.6066C39.2848 25.7873 39.5985 25.0003 40.0191 24.2674C40.1806 23.9854 40.2437 23.6577 40.1986 23.3359C40.1535 23.0141 40.0027 22.7164 39.77 22.4896L38.6883 21.4357L40.3152 19.7649L41.3969 20.8202C41.8761 21.2863 42.6119 21.3698 43.1835 21.0224C43.9048 20.5849 44.6838 20.2504 45.4978 20.0287C45.8113 19.9433 46.0875 19.7561 46.283 19.4967C46.4785 19.2372 46.5823 18.9201 46.578 18.5953L46.559 17.0842L48.8909 17.0534L48.9099 18.5645C48.914 18.8896 49.0261 19.2042 49.2285 19.4587C49.431 19.7131 49.7123 19.893 50.0282 19.9701C50.8484 20.1698 51.6364 20.4841 52.3689 20.9037C52.9493 21.235 53.6807 21.1353 54.1482 20.656L55.2035 19.5743L56.8729 21.2012L55.8191 22.2829C55.5922 22.5156 55.449 22.817 55.4122 23.1399C55.3753 23.4628 55.4468 23.7888 55.6154 24.0666C56.0536 24.7877 56.3863 25.566 56.6091 26.3824C56.782 27.0273 57.3581 27.4362 58.0425 27.4641L59.5536 27.445L59.5844 29.7769L58.0733 29.796C57.7479 29.7999 57.4331 29.9121 57.1785 30.1148C56.924 30.3176 56.7443 30.5994 56.6677 30.9157C56.4684 31.7356 56.1541 32.5232 55.7341 33.2549C55.5726 33.537 55.5095 33.8647 55.5546 34.1865C55.5997 34.5083 55.7505 34.806 55.9832 35.0328L57.0649 36.0866L55.438 37.7575L54.3563 36.7022C54.1233 36.4748 53.8212 36.3315 53.4977 36.2949C53.1742 36.2583 52.8477 36.3304 52.5697 36.5C51.8492 36.939 51.07 37.2736 50.2554 37.4937ZM8.37522 58.9717C8.12226 58.0727 7.89984 57.1654 7.70834 56.2514L4.84001 56.8523C5.04374 57.827 5.28411 58.806 5.55233 59.7646L8.37522 58.9717ZM10.2571 64.2378C9.88383 63.3831 9.53969 62.5159 9.22531 61.6377L6.46544 62.6271C6.80108 63.5636 7.1719 64.5002 7.5691 65.4104L10.2571 64.2378ZM12.8411 69.1947C12.355 68.399 11.896 67.5871 11.4649 66.7603L8.86475 68.1145C9.32204 68.9939 9.81744 69.8719 10.3422 70.7264L12.8411 69.1947ZM7.22759 53.493C7.09966 52.5683 7.00385 51.6395 6.94032 50.7082L4.01484 50.9119C4.08519 51.9042 4.18779 52.9082 4.32556 53.896L7.22759 53.493ZM16.0788 73.7603C15.4881 73.0376 14.922 72.295 14.3816 71.534L11.991 73.2283C12.5641 74.0359 13.1753 74.8391 13.8085 75.6144L16.0788 73.7603ZM30.2387 7.5265C29.3285 7.92516 28.4198 8.36193 27.536 8.82362L28.8932 11.4208C29.72 10.9887 30.5613 10.5849 31.4156 10.2101L30.2387 7.5265ZM3.90784 47.815V47.9088L6.83919 47.815C6.83919 46.9048 6.8685 46.0005 6.92713 45.1049L4.00165 44.9144C3.93865 45.88 3.90736 46.8473 3.90784 47.815ZM26.4602 12.8015L24.9256 10.304C24.0726 10.8272 23.2313 11.3842 22.4252 11.9572L24.1224 14.3463C24.8772 13.8113 25.6628 13.291 26.4602 12.8015ZM36.0691 90.1803C37.0321 90.4485 38.0141 90.6845 38.9858 90.8838L39.575 88.0125C38.6606 87.8243 37.7529 87.6053 36.8533 87.3559L36.0691 90.1803ZM7.49435 30.391L10.1853 31.5533C10.5517 30.7047 10.9548 29.8531 11.3842 29.0191L8.77974 27.6766C8.32075 28.5666 7.89204 29.472 7.49435 30.391ZM20.1739 81.9608C20.9478 82.591 21.7539 83.2007 22.5659 83.7723L24.2543 81.376C23.4911 80.8373 22.7461 80.2732 22.0206 79.6846L20.1739 81.9608ZM27.6943 86.8898L29.0427 84.2868C28.2121 83.8585 27.3971 83.4004 26.5994 82.9135L25.0766 85.4183C25.9252 85.9357 26.8075 86.4296 27.6943 86.8898ZM30.4087 88.1782C31.3189 88.5739 32.2598 88.9432 33.2052 89.2774L34.1843 86.5132C33.3024 86.2018 32.4318 85.8596 31.5739 85.4872L30.4087 88.1782ZM13.7029 20.1474L15.9791 21.9942C16.5683 21.2672 17.1869 20.5563 17.8171 19.8792L15.6699 17.883C14.9876 18.6143 14.3316 19.3696 13.7029 20.1474ZM61.4839 9.08598C62.356 9.3923 63.2339 9.73527 64.0972 10.1061L65.2536 7.41218C64.3342 7.01643 63.4015 6.65225 62.4571 6.32025L61.4839 9.08598ZM21.8961 16.045L20.0376 13.7761C19.2666 14.4093 18.506 15.0747 17.7834 15.7548L19.7899 17.8903C20.467 17.2556 21.175 16.6357 21.8961 16.045ZM4.29771 41.9303L7.20268 42.3187C7.32433 41.4026 7.48116 40.4749 7.6673 39.5573L4.79604 38.9725C4.59671 39.9545 4.42816 40.9483 4.29771 41.9303ZM5.49956 36.0529L8.32538 36.8341C8.57015 35.9474 8.85303 35.0475 9.16375 34.1622L6.39802 33.1905C6.06685 34.1344 5.76719 35.0891 5.49956 36.0529ZM10.2483 25.056L12.7561 26.5759C13.2398 25.7756 13.7572 24.9871 14.2892 24.2308L11.8928 22.5423C11.3227 23.3529 10.7687 24.1985 10.2483 25.056ZM19.9071 77.8466C19.2239 77.2093 18.562 76.5493 17.9226 75.868L15.7842 77.8715C16.4628 78.597 17.1781 79.3094 17.908 79.9894L19.9071 77.8466ZM91.4452 53.7978L88.5403 53.4006C88.4149 54.3258 88.2574 55.2463 88.0683 56.1605L90.9396 56.7541C91.1389 55.7853 91.3089 54.7901 91.4452 53.7978ZM90.2302 59.6708L87.4073 58.8808C87.1557 59.7798 86.8736 60.6699 86.5616 61.5498L89.3244 62.5303C89.6542 61.5982 89.959 60.6352 90.2302 59.6708ZM85.4565 70.656L82.9517 69.1317C82.4666 69.9291 81.9538 70.7094 81.4142 71.4709L83.8047 73.1667C84.3839 72.349 84.9348 71.5116 85.4565 70.656ZM91.8483 47.7812L91.8468 47.6273H88.9155L88.917 47.815C88.917 48.7559 88.8862 49.6896 88.8232 50.6159L91.7486 50.8123C91.8154 49.8033 91.8486 48.7924 91.8483 47.7812ZM88.2222 65.3268L85.5342 64.1602C85.1623 65.0172 84.7604 65.861 84.3294 66.6899L86.931 68.0413C87.3912 67.156 87.8265 66.2429 88.2222 65.3268ZM85.4638 31.3115C85.8434 32.1747 86.1908 33.0483 86.4986 33.9057L89.2585 32.9178C88.9205 31.9763 88.5495 31.047 88.146 30.1316L85.4638 31.3115ZM88.5154 42.0475C88.6443 42.9665 88.7411 43.8957 88.81 44.8338L91.7325 44.6213C91.6612 43.6242 91.5561 42.63 91.4174 41.6401L88.5154 42.0475ZM81.9931 75.5587L79.7198 73.7076C79.1262 74.436 78.5077 75.1454 77.8775 75.8167L80.0188 77.8202C80.6945 77.1006 81.3585 76.3384 81.9931 75.5587ZM82.8681 26.3575C83.3547 27.1504 83.8208 27.9683 84.2502 28.789L86.846 27.4289C86.3827 26.5424 85.8879 25.6727 85.3627 24.8215L82.8681 26.3575ZM87.3604 36.5732C87.611 37.4556 87.8382 38.3701 88.0331 39.2921L90.9015 38.6838C90.6929 37.7054 90.4524 36.7342 90.1804 35.7715L87.3604 36.5732ZM33.022 6.41699L34.0128 9.17685C34.8907 8.86173 35.7863 8.57446 36.6774 8.32236L35.8815 5.50094C34.9259 5.77209 33.963 6.07988 33.022 6.41699ZM44.9423 6.88014C45.8741 6.81442 46.8077 6.77972 47.7418 6.77608L47.73 3.84473C46.7275 3.84766 45.7191 3.88577 44.7327 3.95612L44.9423 6.88014ZM42.1561 7.17181L41.7516 4.26977C40.7681 4.40608 39.7729 4.57903 38.7953 4.78569L39.3962 7.65401C40.3104 7.46179 41.2309 7.30096 42.1561 7.17181ZM59.5947 5.42179C58.6299 5.15725 57.6566 4.92457 56.6765 4.72413L56.0932 7.59685C56.999 7.78006 57.915 7.99991 58.8164 8.24761L59.5947 5.42179ZM53.3289 7.13517L53.7129 4.2302C52.7218 4.09913 51.7265 4.00136 50.7288 3.93706L50.5427 6.86255C51.4646 6.92118 52.4026 7.01205 53.3289 7.13517ZM45.1255 88.763C44.1939 88.7017 43.2646 88.6088 42.3393 88.4845L41.9465 91.3895C42.927 91.5214 43.931 91.6225 44.9306 91.6899L45.1255 88.763ZM77.8995 79.9411L75.8988 77.7997C75.2169 78.4371 74.5134 79.051 73.7897 79.6406L75.6423 81.9139C76.4167 81.2819 77.1695 80.6239 77.8995 79.9411ZM77.7764 15.5731L75.7816 17.7217C76.466 18.3564 77.1344 19.0203 77.769 19.696L79.9045 17.6866C79.2187 16.9587 78.5089 16.2538 77.7764 15.5731ZM75.5075 13.609C74.7292 12.9788 73.9295 12.3756 73.1097 11.8004L71.4271 14.2012C72.1921 14.7391 72.9455 15.3048 73.6607 15.8867L75.5075 13.609ZM67.9754 8.69611L66.6328 11.3021C67.458 11.7271 68.2817 12.1873 69.079 12.6696L70.596 10.1603C69.739 9.64324 68.865 9.1549 67.9754 8.69611ZM79.6187 21.7992C80.2138 22.5247 80.7869 23.2722 81.3204 24.0227L83.7079 22.3225C83.1278 21.5082 82.5202 20.7138 81.8861 19.9408L79.6187 21.7992ZM65.4295 88.143C66.3457 87.7432 67.2481 87.3125 68.1352 86.8517L66.7838 84.2516C65.9572 84.6811 65.1071 85.0871 64.2584 85.4564L65.4295 88.143ZM47.9294 91.7852C48.9289 91.7838 49.928 91.749 50.9252 91.6811L50.7244 88.7571C49.7981 88.8201 48.8645 88.8524 47.9235 88.8538L47.9294 91.7852ZM69.2198 82.8754L70.7455 85.3787C71.5992 84.8573 72.4351 84.3074 73.2518 83.7298L71.5604 81.3364C70.791 81.8802 70.0039 82.3975 69.2198 82.8754ZM53.9079 91.3733C54.8913 91.2385 55.8865 91.0685 56.8656 90.8647L56.2705 87.9949C55.3574 88.184 54.4282 88.3438 53.5107 88.4698L53.9079 91.3733ZM58.9908 87.331L59.7808 90.1539C60.7449 89.8842 61.6991 89.5806 62.6418 89.2437L61.6569 86.4824C60.7819 86.796 59.8834 87.0818 58.9908 87.331Z" fill="#1C1C1C"/>
</svg>
