<svg width="95" height="95" viewBox="0 0 95 95" fill="none" xmlns="http://www.w3.org/2000/svg">
<path d="M28.5948 52.1323H28.5156C27.7441 52.1401 26.9818 52.3009 26.2729 52.6053C25.5639 52.9097 24.9224 53.3517 24.3855 53.9057C23.2892 55.0299 22.6986 56.5116 22.7176 58.0799C22.7367 59.6481 23.3669 61.1152 24.491 62.21C25.584 63.2822 27.0549 63.8813 28.586 63.8779H28.6651C29.4366 63.8701 30.1989 63.7094 30.9079 63.405C31.6168 63.1005 32.2583 62.6585 32.7953 62.1045C33.8916 60.9803 34.4822 59.4986 34.4631 57.9304C34.4441 56.3621 33.8139 54.895 32.6897 53.8002C31.5968 52.728 30.1258 52.1289 28.5948 52.1323ZM30.698 60.0585C30.4288 60.3359 30.1074 60.5573 29.7522 60.7098C29.3969 60.8622 29.015 60.9427 28.6285 60.9466H28.5889C27.8227 60.9481 27.0867 60.648 26.54 60.1112C25.9757 59.5616 25.6606 58.8288 25.6518 58.0418C25.643 57.2547 25.9376 56.5131 26.4857 55.9503C26.7549 55.6728 27.0763 55.4514 27.4315 55.299C27.7868 55.1465 28.1687 55.066 28.5552 55.0621H28.5948C29.361 55.0607 30.097 55.3607 30.6437 55.8975C31.208 56.4471 31.5231 57.18 31.5319 57.967C31.5407 58.754 31.2461 59.4957 30.698 60.0585Z" fill="#4654B7"/>
<path d="M41.8334 62.004C42.0259 62.0015 42.216 61.9611 42.3929 61.8851C42.5697 61.8092 42.7299 61.6991 42.8643 61.5612C42.9986 61.4234 43.1045 61.2604 43.1758 61.0816C43.2471 60.9028 43.2826 60.7117 43.28 60.5192L43.2126 55.256C43.2076 54.8706 43.051 54.5027 42.7767 54.2319C42.5023 53.9612 42.1324 53.8094 41.7469 53.8094H41.7279L39.8298 53.8343C39.7054 53.5078 39.5675 53.1865 39.4165 52.8714L40.74 51.5127C40.8745 51.3749 40.9806 51.2121 41.0521 51.0333C41.1235 50.8546 41.1591 50.6635 41.1566 50.471C41.1542 50.2785 41.1138 50.0884 41.0378 49.9115C40.9618 49.7346 40.8516 49.5745 40.7136 49.4402L36.9454 45.7672C36.6671 45.4959 36.2924 45.3463 35.9037 45.3512C35.515 45.3562 35.1443 45.5153 34.8729 45.7936L33.5494 47.1523C33.2303 47.0089 32.9051 46.8793 32.5748 46.7639L32.5513 44.8658C32.5489 44.6734 32.5086 44.4834 32.4327 44.3066C32.3567 44.1297 32.2466 43.9697 32.1087 43.8355C31.9716 43.7 31.8088 43.5933 31.6298 43.5218C31.4508 43.4503 31.2593 43.4155 31.0666 43.4192L25.8033 43.4866C25.6109 43.4891 25.4208 43.5295 25.2439 43.6055C25.067 43.6814 24.9068 43.7915 24.7725 43.9294C24.6382 44.0672 24.5323 44.2302 24.461 44.409C24.3896 44.5878 24.3542 44.7789 24.3567 44.9714L24.3816 46.8694C24.0548 46.9925 23.7335 47.1299 23.4187 47.2813L22.06 45.9578C21.7764 45.6944 21.4049 45.546 21.0179 45.5415C20.8254 45.5436 20.6353 45.5838 20.4584 45.6597C20.2816 45.7357 20.1215 45.846 19.9875 45.9842L16.3131 49.7539C16.1785 49.8917 16.0725 50.0547 16.001 50.2336C15.9295 50.4125 15.8939 50.6037 15.8964 50.7963C15.8988 50.9889 15.9392 51.1792 16.0153 51.3562C16.0913 51.5331 16.2015 51.6934 16.3395 51.8278L17.6996 53.1513C17.5556 53.4697 17.426 53.7944 17.3112 54.1245L15.4132 54.1465C15.2207 54.149 15.0306 54.1894 14.8537 54.2653C14.6768 54.3413 14.5167 54.4513 14.3823 54.5892C14.248 54.7271 14.1421 54.8901 14.0708 55.0689C13.9995 55.2476 13.964 55.4387 13.9666 55.6312L14.034 60.893C14.0442 61.702 14.7404 62.322 15.5187 62.3396L17.4168 62.3147C17.5413 62.6415 17.6791 62.9625 17.8301 63.2776L16.5066 64.6363C16.3721 64.774 16.266 64.9369 16.1945 65.1157C16.1231 65.2944 16.0875 65.4855 16.09 65.678C16.0924 65.8705 16.1328 66.0606 16.2088 66.2375C16.2848 66.4144 16.395 66.5745 16.533 66.7088L20.3012 70.3818C20.5797 70.6529 20.9666 70.7951 21.3433 70.798C21.5358 70.796 21.7259 70.7558 21.9028 70.6798C22.0796 70.6038 22.2397 70.4936 22.3737 70.3554L23.6972 68.9967C24.0167 69.1403 24.3406 69.2693 24.6718 69.3851L24.6953 71.2832C24.6977 71.4756 24.738 71.6656 24.8139 71.8424C24.8899 72.0192 25 72.1793 25.1379 72.3135C25.4106 72.5812 25.7774 72.7312 26.1595 72.7312H26.1786L31.4418 72.6638C31.6343 72.6613 31.8244 72.621 32.0012 72.545C32.1781 72.469 32.3383 72.359 32.4726 72.2211C32.607 72.0832 32.7128 71.9202 32.7842 71.7414C32.8555 71.5627 32.8909 71.3716 32.8884 71.1791L32.8635 69.281C33.1918 69.1579 33.5113 69.0202 33.8264 68.8692L35.1851 70.1927C35.4621 70.4638 35.8022 70.6031 36.2272 70.6089C36.4197 70.6069 36.6098 70.5667 36.7867 70.4907C36.9635 70.4148 37.1236 70.3045 37.2576 70.1663L40.932 66.3966C41.0666 66.2587 41.1726 66.0957 41.2442 65.9169C41.3157 65.738 41.3512 65.5468 41.3487 65.3542C41.3463 65.1615 41.3059 64.9713 41.2299 64.7943C41.1538 64.6173 41.0437 64.457 40.9056 64.3227L39.5455 62.9992C39.6891 62.6811 39.8196 62.3557 39.9339 62.026L41.8334 62.004ZM38.8185 59.1107C38.4931 59.1146 38.1783 59.2268 37.9237 59.4296C37.6692 59.6324 37.4895 59.9142 37.4129 60.2305C37.2136 61.0504 36.8993 61.8379 36.4793 62.5697C36.3179 62.8518 36.2547 63.1794 36.2998 63.5013C36.3449 63.8231 36.4957 64.1208 36.7285 64.3476L37.8101 65.4014L36.1832 67.0723L35.1016 66.017C34.8681 65.7903 34.5661 65.6475 34.2428 65.6109C33.9195 65.5742 33.5931 65.6459 33.3149 65.8147C32.5936 66.2523 31.8146 66.5868 31.0006 66.8084C30.6872 66.8939 30.411 67.081 30.2154 67.3405C30.0199 67.5999 29.9161 67.917 29.9204 68.2419L29.9395 69.753L27.6076 69.7838L27.5885 68.2727C27.5845 67.9475 27.4724 67.633 27.2699 67.3785C27.0675 67.124 26.7861 66.9441 26.4702 66.8671C25.65 66.6674 24.862 66.3531 24.1295 65.9334C23.8474 65.772 23.5196 65.7087 23.1976 65.7535C22.8756 65.7983 22.5775 65.9487 22.3502 66.1811L21.2949 67.2628L19.6255 65.6359L20.6793 64.5542C20.9063 64.3216 21.0494 64.0201 21.0863 63.6972C21.1232 63.3743 21.0517 63.0483 20.8831 62.7705C20.4452 62.0488 20.1107 61.2693 19.8893 60.4548C19.8047 60.1408 19.6177 59.864 19.3582 59.6681C19.0986 59.4722 18.7811 59.3684 18.4559 59.3731L16.9448 59.3921L16.914 57.0602L18.4251 57.0412C18.7505 57.0373 19.0654 56.9251 19.3199 56.7223C19.5745 56.5195 19.7542 56.2377 19.8307 55.9214C20.0301 55.1021 20.3437 54.315 20.7644 53.5822C20.9258 53.3002 20.9889 52.9725 20.9438 52.6507C20.8987 52.3288 20.7479 52.0311 20.5152 51.8043L19.4335 50.7505L21.0604 49.0797L22.1421 50.1349C22.3751 50.3623 22.6772 50.5056 23.0008 50.5422C23.3243 50.5789 23.6508 50.5067 23.9287 50.3372C24.65 49.8996 25.429 49.5651 26.243 49.3435C26.5565 49.2581 26.8327 49.0709 27.0282 48.8114C27.2238 48.552 27.3275 48.2349 27.3232 47.91L27.3042 46.3989L29.6361 46.3682L29.6551 47.8793C29.6592 48.2044 29.7713 48.519 29.9737 48.7734C30.1762 49.0279 30.4575 49.2078 30.7734 49.2848C31.5937 49.4846 32.3816 49.7989 33.1141 50.2185C33.6945 50.5497 34.4259 50.4501 34.8935 49.9708L35.9487 48.8891L37.6181 50.516L36.5643 51.5977C36.3374 51.8303 36.1943 52.1318 36.1574 52.4547C36.1205 52.7776 36.192 53.1036 36.3606 53.3814C36.7988 54.1025 37.1315 54.8808 37.3543 55.6972C37.5287 56.3406 38.1472 56.7847 38.7877 56.7788L40.2989 56.7598L40.3296 59.0917L38.8185 59.1107ZM66.6253 52.1327C65.8538 52.1404 65.0915 52.3012 64.3825 52.6056C63.6735 52.91 63.032 53.3521 62.495 53.9061C61.3987 55.0303 60.808 56.5121 60.8271 58.0804C60.8461 59.6486 61.4764 61.1158 62.6006 62.2106C63.6935 63.2829 65.1645 63.882 66.6956 63.8786H66.7748C67.5463 63.8708 68.3086 63.7101 69.0176 63.4056C69.7266 63.1012 70.3681 62.6592 70.9051 62.1051C72.0014 60.9809 72.5921 59.4991 72.573 57.9309C72.5539 56.3626 71.9237 54.8955 70.7995 53.8006C69.6739 52.7043 68.1188 52.1341 66.6253 52.1327ZM68.8062 60.059C68.5371 60.3365 68.2156 60.5579 67.8604 60.7104C67.5052 60.8628 67.1232 60.9433 66.7367 60.9472H66.6971C65.9309 60.9487 65.1949 60.6486 64.6481 60.1118C64.0838 59.5622 63.7687 58.8293 63.7599 58.0423C63.7511 57.2552 64.0457 56.5136 64.5939 55.9507C64.863 55.6732 65.1845 55.4519 65.5397 55.2994C65.8949 55.1469 66.2769 55.0664 66.6634 55.0625H66.703C67.4692 55.0611 68.2052 55.3612 68.752 55.898C69.3163 56.4476 69.6314 57.1804 69.6402 57.9675C69.649 58.7546 69.3544 59.4962 68.8062 60.059Z" fill="#4654B7"/>
<path d="M74.3334 70.6071C74.5259 70.605 74.716 70.5649 74.8929 70.4889C75.0697 70.4129 75.2298 70.3027 75.3637 70.1645L79.0381 66.3949C79.1726 66.257 79.2787 66.094 79.3502 65.9152C79.4217 65.7363 79.4572 65.5451 79.4548 65.3525C79.4523 65.1599 79.4119 64.9696 79.3359 64.7927C79.2599 64.6157 79.1497 64.4554 79.0117 64.321L77.6516 62.9976C77.7952 62.6795 77.9257 62.3542 78.04 62.0244L79.938 61.9995C80.1304 61.997 80.3205 61.9566 80.4974 61.8806C80.6743 61.8047 80.8344 61.6946 80.9688 61.5568C81.1031 61.4189 81.209 61.2559 81.2803 61.0771C81.3516 60.8983 81.3871 60.7073 81.3845 60.5148L81.3171 55.2532C81.3121 54.8678 81.1555 54.4999 80.8812 54.2291C80.6069 53.9584 80.2369 53.8066 79.8515 53.8066H79.8324L77.9345 53.8315C77.81 53.505 77.6721 53.1838 77.5211 52.8686L78.8446 51.51C78.9791 51.3723 79.0851 51.2094 79.1566 51.0306C79.2281 50.8519 79.2636 50.6608 79.2612 50.4683C79.2587 50.2758 79.2184 50.0857 79.1423 49.9088C79.0663 49.732 78.9562 49.5718 78.8182 49.4376L75.0501 45.7647C74.9125 45.63 74.7496 45.5238 74.5709 45.4523C74.3921 45.3807 74.201 45.3451 74.0084 45.3475C73.8159 45.35 73.6257 45.3904 73.4488 45.4665C73.272 45.5427 73.1119 45.653 72.9777 45.7911L71.6542 47.1497C71.3351 47.0063 71.0099 46.8767 70.6796 46.7613L70.6562 44.8633C70.6538 44.6709 70.6135 44.4809 70.5375 44.3041C70.4615 44.1273 70.3515 43.9672 70.2135 43.833C70.0767 43.6973 69.9139 43.5904 69.7348 43.5189C69.5558 43.4474 69.3642 43.4127 69.1715 43.4168L63.9084 43.4842C63.7159 43.4867 63.5258 43.5271 63.349 43.603C63.1721 43.679 63.0119 43.789 62.8776 43.9269C62.7433 44.0648 62.6374 44.2278 62.5661 44.4065C62.4947 44.5853 62.4593 44.7764 62.4618 44.9689L62.4867 46.8669C62.1599 46.9899 61.8386 47.1273 61.5238 47.2787L60.1652 45.9552C59.8818 45.6915 59.5102 45.5431 59.1231 45.539C58.9307 45.5411 58.7405 45.5812 58.5637 45.6572C58.3868 45.7332 58.2268 45.8434 58.0928 45.9816L54.4185 49.7512C54.2839 49.8891 54.1778 50.0521 54.1063 50.2309C54.0348 50.4098 53.9993 50.601 54.0018 50.7936C54.0042 50.9862 54.0446 51.1765 54.1206 51.3535C54.1967 51.5304 54.3068 51.6907 54.4448 51.8251L55.8049 53.1485C55.6609 53.4669 55.5313 53.7916 55.4166 54.1217L53.5186 54.1466C53.3261 54.1491 53.136 54.1895 52.9591 54.2655C52.7823 54.3414 52.6221 54.4515 52.4878 54.5893C52.3534 54.7272 52.2476 54.8902 52.1762 55.069C52.1049 55.2478 52.0695 55.4388 52.072 55.6313L52.1394 60.8944C52.1444 61.2798 52.301 61.6477 52.5754 61.9184C52.8497 62.1892 53.2196 62.341 53.605 62.341H53.6241L55.5221 62.316C55.6467 62.6429 55.7844 62.9639 55.9354 63.279L54.6119 64.6376C54.4774 64.7753 54.3714 64.9382 54.2999 65.117C54.2284 65.2957 54.1929 65.4868 54.1953 65.6793C54.1978 65.8718 54.2382 66.0619 54.3142 66.2387C54.3902 66.4156 54.5003 66.5757 54.6383 66.71L58.4064 70.3829C58.6849 70.654 59.0748 70.7962 59.4485 70.7991C59.641 70.797 59.8311 70.7569 60.008 70.6809C60.1848 70.6049 60.3448 70.4947 60.4788 70.3565L61.8023 68.9978C62.1218 69.1415 62.4457 69.2705 62.7769 69.3862L62.8004 71.2842C62.805 71.6696 62.9616 72.0376 63.236 72.3082C63.5105 72.5788 63.8806 72.7301 64.266 72.7293H64.2851L69.5481 72.6619C69.7406 72.6594 69.9307 72.619 70.1076 72.5431C70.2844 72.4671 70.4446 72.3571 70.5789 72.2192C70.7133 72.0813 70.8191 71.9184 70.8905 71.7396C70.9618 71.5608 70.9972 71.3697 70.9947 71.1772L70.9698 69.2792C71.2981 69.1561 71.6176 69.0184 71.9327 68.8674L73.2913 70.1909C73.5698 70.462 73.9113 70.6012 74.3334 70.6071ZM71.4212 65.813C70.6999 66.2506 69.921 66.5851 69.107 66.8067C68.7935 66.8921 68.5173 67.0793 68.3218 67.3387C68.1263 67.5982 68.0225 67.9153 68.0268 68.2401L68.0459 69.7512L65.7141 69.782L65.695 68.2709C65.6909 67.9458 65.5788 67.6312 65.3764 67.3768C65.174 67.1223 64.8926 66.9424 64.5767 66.8654C63.7565 66.6657 62.9686 66.3514 62.2361 65.9317C61.954 65.7703 61.6262 65.707 61.3042 65.7518C60.9822 65.7966 60.6842 65.947 60.4569 66.1794L59.4016 67.2611L57.7322 65.6342L58.786 64.5526C59.0129 64.3199 59.1561 64.0185 59.193 63.6956C59.2298 63.3727 59.1584 63.0467 58.9898 62.7689C58.5519 62.0473 58.2174 61.2678 57.9961 60.4532C57.9118 60.1427 57.7276 59.8685 57.472 59.673C57.2164 59.4776 56.9035 59.3716 56.5817 59.3716H56.5627L55.0516 59.3907L55.0208 57.0588L56.5319 57.0398C56.8573 57.0359 57.1721 56.9237 57.4267 56.7209C57.6812 56.5181 57.8609 56.2363 57.9374 55.92C58.1368 55.1008 58.4504 54.3137 58.871 53.5809C59.0325 53.2989 59.0956 52.9712 59.0505 52.6494C59.0054 52.3276 58.8546 52.0299 58.6219 51.8031L57.5402 50.7493L59.1671 49.0785L60.2487 50.1337C60.4818 50.3611 60.7839 50.5044 61.1074 50.541C61.4309 50.5777 61.7574 50.5055 62.0353 50.336C62.7566 49.8984 63.5356 49.564 64.3496 49.3423C64.663 49.2569 64.9392 49.0698 65.1347 48.8103C65.3302 48.5508 65.434 48.2338 65.4297 47.9089L65.4107 46.3979L67.7425 46.3671L67.7615 47.8781C67.7656 48.2033 67.8777 48.5178 68.0801 48.7723C68.2826 49.0267 68.5639 49.2066 68.8798 49.2837C69.7 49.4834 70.4879 49.7977 71.2204 50.2173C71.8008 50.5485 72.5322 50.4489 72.9997 49.9696L74.0549 48.888L75.7243 50.5148L74.6705 51.5964C74.4436 51.8291 74.3005 52.1306 74.2636 52.4534C74.2267 52.7763 74.2982 53.1023 74.4668 53.3801C74.905 54.1012 75.2377 54.8794 75.4605 55.6958C75.6349 56.3392 76.164 56.7833 76.8939 56.7774L78.4049 56.7584L78.4357 59.0902L76.9246 59.1093C76.5992 59.1132 76.2844 59.2254 76.0299 59.4281C75.7754 59.6309 75.5956 59.9127 75.5191 60.229C75.3198 61.0488 75.0055 61.8364 74.5855 62.5681C74.4241 62.8502 74.3609 63.1778 74.406 63.4996C74.4511 63.8215 74.6019 64.1192 74.8347 64.3459L75.9163 65.3997L74.2894 67.0705L73.2078 66.0153C72.9748 65.7879 72.6727 65.6446 72.3492 65.608C72.0257 65.5714 71.6992 65.6435 71.4212 65.813ZM51.7437 24.4853C50.6196 23.389 49.0806 22.835 47.5696 22.8188C46.7981 22.8266 46.0358 22.9874 45.3268 23.2918C44.6179 23.5962 43.9764 24.0382 43.4394 24.5923C42.3432 25.7164 41.7525 27.1981 41.7716 28.7664C41.7906 30.3346 42.4208 31.8017 43.545 32.8965C44.6379 33.9687 46.1089 34.5678 47.6399 34.5644H47.7191C48.4906 34.5566 49.2529 34.3959 49.9618 34.0915C50.6708 33.7871 51.3123 33.345 51.8492 32.791C52.9455 31.6668 53.5362 30.1851 53.5171 28.6169C53.4981 27.0486 52.8678 25.5816 51.7437 24.4853ZM49.7519 30.745C49.4828 31.0225 49.1613 31.2438 48.8061 31.3963C48.4509 31.5487 48.069 31.6292 47.6824 31.6331C46.9467 31.6024 46.1553 31.3473 45.5925 30.7992C45.0282 30.2496 44.7131 29.5168 44.7043 28.7297C44.6955 27.9427 44.9901 27.2011 45.5382 26.6383C45.8073 26.3608 46.1288 26.1394 46.484 25.987C46.8392 25.8345 47.2212 25.754 47.6077 25.7501H47.6473C48.4135 25.7486 49.1495 26.0487 49.6962 26.5855C50.2605 27.1351 50.5756 27.8679 50.5844 28.655C50.5932 29.442 50.3001 30.1822 49.7519 30.745Z" fill="#4654B7"/>
<path d="M54.2404 40.8794C54.5189 41.1505 54.9073 41.2693 55.2825 41.2956C55.475 41.2936 55.6652 41.2534 55.842 41.1774C56.0189 41.1015 56.1789 40.9912 56.3129 40.853L59.9873 37.0833C60.1219 36.9454 60.228 36.7824 60.2995 36.6035C60.371 36.4247 60.4065 36.2335 60.4041 36.0409C60.4016 35.8482 60.3612 35.658 60.2852 35.481C60.2092 35.304 60.099 35.1437 59.961 35.0094L58.6008 33.6859C58.7444 33.3678 58.8749 33.0424 58.9892 32.7126L60.8873 32.6877C61.0797 32.6852 61.2698 32.6449 61.4467 32.5689C61.6236 32.4929 61.7838 32.3829 61.9181 32.245C62.0524 32.1071 62.1583 31.9442 62.2296 31.7654C62.301 31.5866 62.3364 31.3955 62.3339 31.203L62.2665 25.9412C62.2576 25.5537 62.0972 25.1852 61.8196 24.9147C61.542 24.6442 61.1693 24.4934 60.7817 24.4946L58.8837 24.5195C58.7592 24.193 58.6213 23.8717 58.4704 23.5566L59.7939 22.1979C59.9284 22.0602 60.0344 21.8973 60.1059 21.7185C60.1774 21.5398 60.2129 21.3487 60.2105 21.1562C60.208 20.9637 60.1676 20.7736 60.0916 20.5967C60.0156 20.4198 59.9055 20.2597 59.7675 20.1254L55.9992 16.4525C55.7208 16.1813 55.2943 16.0084 54.9571 16.0362C54.7647 16.0383 54.5745 16.0784 54.3977 16.1544C54.2208 16.2304 54.0608 16.3407 53.9268 16.4788L52.6033 17.8375C52.2841 17.6941 51.9589 17.5645 51.6286 17.4491L51.6052 15.5511C51.603 15.3586 51.563 15.1684 51.4872 14.9915C51.4115 14.8145 51.3016 14.6543 51.1638 14.5199C51.026 14.3855 50.863 14.2796 50.6842 14.2083C50.5055 14.137 50.3143 14.1017 50.1219 14.1044L44.8587 14.1719C44.6662 14.1744 44.4761 14.2147 44.2992 14.2907C44.1223 14.3667 43.9621 14.4767 43.8278 14.6146C43.6935 14.7525 43.5876 14.9154 43.5163 15.0942C43.4449 15.273 43.4095 15.4641 43.412 15.6566L43.4369 17.5546C43.1101 17.6777 42.7888 17.8151 42.474 17.9665L41.1153 16.643C40.9802 16.5049 40.8177 16.3965 40.6382 16.3249C40.4588 16.2532 40.2663 16.2198 40.0732 16.2267C39.8808 16.2288 39.6906 16.269 39.5137 16.3449C39.3369 16.4209 39.1768 16.5312 39.0429 16.6694L35.3684 20.4391C35.2339 20.5769 35.1278 20.74 35.0563 20.9188C34.9848 21.0977 34.9492 21.2889 34.9517 21.4815C34.9541 21.6741 34.9945 21.8644 35.0706 22.0414C35.1466 22.2184 35.2568 22.3786 35.3948 22.513L36.7549 23.8365C36.6109 24.1549 36.4813 24.4796 36.3665 24.8097L34.4685 24.8346C34.276 24.8371 34.0859 24.8775 33.909 24.9535C33.7322 25.0294 33.572 25.1395 33.4376 25.2774C33.3033 25.4152 33.1974 25.5782 33.1261 25.757C33.0548 25.9358 33.0193 26.1269 33.0219 26.3194L33.0893 31.5826C33.0943 31.968 33.2509 32.3359 33.5253 32.6067C33.7996 32.8775 34.1695 33.0293 34.555 33.0292H34.574L36.4721 33.0043C36.5966 33.3312 36.7344 33.6521 36.8854 33.9673L35.5619 35.3259C35.4274 35.4637 35.3213 35.6266 35.2499 35.8053C35.1784 35.9841 35.1428 36.1752 35.1453 36.3676C35.1477 36.5601 35.1881 36.7503 35.2641 36.9271C35.3401 37.104 35.4503 37.2642 35.5883 37.3984L39.3565 41.0714C39.6335 41.3425 39.975 41.4642 40.3986 41.4876C40.5911 41.4856 40.7812 41.4454 40.9581 41.3694C41.1349 41.2935 41.295 41.1832 41.429 41.045L42.7525 39.6863C43.072 39.83 43.3959 39.9589 43.7271 40.0747L43.7506 41.9728C43.7552 42.3577 43.9114 42.7252 44.1852 42.9957C44.459 43.2663 44.8284 43.418 45.2133 43.4179H45.2324L50.4956 43.3505C50.6881 43.348 50.8782 43.3076 51.0551 43.2317C51.232 43.1557 51.3921 43.0457 51.5265 42.9078C51.6608 42.7699 51.7667 42.6069 51.838 42.4281C51.9094 42.2494 51.9448 42.0583 51.9423 41.8658L51.9173 39.9677C52.2457 39.8446 52.5652 39.7068 52.8803 39.5559L54.2404 40.8794ZM50.0545 37.4937C49.741 37.5791 49.4648 37.7662 49.2693 38.0257C49.0738 38.2852 48.97 38.6022 48.9743 38.9271L48.9933 40.4382L46.6614 40.469L46.6424 38.9579C46.6383 38.6327 46.5262 38.3182 46.3238 38.0637C46.1213 37.8093 45.84 37.6293 45.5241 37.5523C44.7039 37.3526 43.9159 37.0383 43.1834 36.6187C42.9012 36.4572 42.5734 36.3939 42.2514 36.4387C41.9294 36.4835 41.6314 36.634 41.4041 36.8664L40.3488 37.948L38.6794 36.3211L39.7332 35.2395C39.9601 35.0068 40.1032 34.7053 40.1401 34.3825C40.177 34.0596 40.1055 33.7336 39.9369 33.4557C39.4991 32.7341 39.1646 31.9546 38.9432 31.14C38.7688 30.4951 38.1473 30.0217 37.5098 30.0583L35.9986 30.0774L35.9679 27.7455L37.479 27.7264C37.8044 27.7225 38.1192 27.6103 38.3738 27.4075C38.6283 27.2048 38.808 26.923 38.8846 26.6066C39.0839 25.7873 39.3975 25.0003 39.8182 24.2674C39.9796 23.9854 40.0428 23.6577 39.9977 23.3359C39.9526 23.0141 39.8018 22.7164 39.569 22.4896L38.4874 21.4357L40.1143 19.7649L41.1959 20.8202C41.6752 21.2863 42.411 21.3698 42.9826 21.0224C43.7039 20.5849 44.4829 20.2504 45.2969 20.0287C45.6103 19.9433 45.8865 19.7561 46.0821 19.4967C46.2776 19.2372 46.3814 18.9201 46.3771 18.5953L46.358 17.0842L48.6899 17.0534L48.709 18.5645C48.7131 18.8896 48.8251 19.2042 49.0276 19.4587C49.23 19.7131 49.5114 19.893 49.8273 19.9701C50.6475 20.1698 51.4355 20.4841 52.168 20.9037C52.7484 21.235 53.4797 21.1353 53.9473 20.656L55.0026 19.5743L56.672 21.2012L55.6182 22.2829C55.3913 22.5156 55.2481 22.817 55.2112 23.1399C55.1744 23.4628 55.2458 23.7888 55.4144 24.0666C55.8527 24.7877 56.1854 25.566 56.4082 26.3824C56.5811 27.0273 57.1571 27.4362 57.8416 27.4641L59.3527 27.445L59.3835 29.7769L57.8724 29.796C57.547 29.7999 57.2321 29.9121 56.9776 30.1148C56.723 30.3176 56.5433 30.5994 56.4668 30.9157C56.2675 31.7356 55.9532 32.5232 55.5332 33.2549C55.3717 33.537 55.3086 33.8647 55.3537 34.1865C55.3988 34.5083 55.5496 34.806 55.7823 35.0328L56.864 36.0866L55.2371 37.7575L54.1554 36.7022C53.9224 36.4748 53.6203 36.3315 53.2968 36.2949C52.9732 36.2583 52.6467 36.3304 52.3688 36.5C51.6482 36.939 50.869 37.2736 50.0545 37.4937ZM8.17429 58.9717C7.92133 58.0727 7.69891 57.1654 7.50741 56.2514L4.63908 56.8523C4.84281 57.827 5.08318 58.806 5.3514 59.7646L8.17429 58.9717ZM10.0562 64.2378C9.6829 63.3831 9.33876 62.5159 9.02438 61.6377L6.26452 62.6271C6.60016 63.5636 6.97097 64.5002 7.36817 65.4104L10.0562 64.2378ZM12.6402 69.1947C12.1541 68.399 11.6951 67.5871 11.2639 66.7603L8.66383 68.1145C9.12112 68.9939 9.61651 69.8719 10.1412 70.7264L12.6402 69.1947ZM7.02667 53.493C6.89873 52.5683 6.80292 51.6395 6.73939 50.7082L3.81391 50.9119C3.88426 51.9042 3.98686 52.9082 4.12463 53.896L7.02667 53.493ZM15.8779 73.7603C15.2871 73.0376 14.7211 72.295 14.1806 71.534L11.7901 73.2283C12.3632 74.0359 12.9744 74.8391 13.6075 75.6144L15.8779 73.7603ZM30.0378 7.5265C29.1276 7.92516 28.2189 8.36193 27.3351 8.82362L28.6923 11.4208C29.5191 10.9887 30.3604 10.5849 31.2147 10.2101L30.0378 7.5265ZM3.70691 47.815V47.9088L6.63826 47.815C6.63826 46.9048 6.66758 46.0005 6.7262 45.1049L3.80072 44.9144C3.73772 45.88 3.70643 46.8473 3.70691 47.815ZM26.2592 12.8015L24.7247 10.304C23.8717 10.8272 23.0304 11.3842 22.2242 11.9572L23.9215 14.3463C24.6763 13.8113 25.4619 13.291 26.2592 12.8015ZM35.8682 90.1803C36.8312 90.4485 37.8132 90.6845 38.7849 90.8838L39.3741 88.0125C38.4597 87.8243 37.552 87.6053 36.6523 87.3559L35.8682 90.1803ZM7.29342 30.391L9.9844 31.5533C10.3508 30.7047 10.7539 29.8531 11.1833 29.0191L8.57882 27.6766C8.11982 28.5666 7.69111 29.472 7.29342 30.391ZM19.973 81.9608C20.7468 82.591 21.553 83.2007 22.3649 83.7723L24.0534 81.376C23.2901 80.8373 22.5451 80.2732 21.8197 79.6846L19.973 81.9608ZM27.4933 86.8898L28.8418 84.2868C28.0111 83.8585 27.1962 83.4004 26.3985 82.9135L24.8757 85.4183C25.7243 85.9357 26.6066 86.4296 27.4933 86.8898ZM30.2078 88.1782C31.118 88.5739 32.0589 88.9432 33.0043 89.2774L33.9833 86.5132C33.1015 86.2018 32.2309 85.8596 31.373 85.4872L30.2078 88.1782ZM13.502 20.1474L15.7782 21.9942C16.3674 21.2672 16.9859 20.5563 17.6162 19.8792L15.469 17.883C14.7867 18.6143 14.1307 19.3696 13.502 20.1474ZM61.283 9.08598C62.1551 9.3923 63.033 9.73527 63.8963 10.1061L65.0527 7.41218C64.1333 7.01643 63.2005 6.65225 62.2562 6.32025L61.283 9.08598ZM21.6951 16.045L19.8367 13.7761C19.0657 14.4093 18.305 15.0747 17.5825 15.7548L19.589 17.8903C20.2661 17.2556 20.974 16.6357 21.6951 16.045ZM4.09678 41.9303L7.00175 42.3187C7.1234 41.4026 7.28023 40.4749 7.46637 39.5573L4.59511 38.9725C4.39578 39.9545 4.22723 40.9483 4.09678 41.9303ZM5.29864 36.0529L8.12446 36.8341C8.36922 35.9474 8.6521 35.0475 8.96282 34.1622L6.19709 33.1905C5.86592 34.1344 5.56627 35.0891 5.29864 36.0529ZM10.0474 25.056L12.5552 26.5759C13.0389 25.7756 13.5562 24.9871 14.0883 24.2308L11.6919 22.5423C11.1218 23.3529 10.5677 24.1985 10.0474 25.056ZM19.7062 77.8466C19.0229 77.2093 18.3611 76.5493 17.7217 75.868L15.5833 77.8715C16.2619 78.597 16.9771 79.3094 17.707 79.9894L19.7062 77.8466ZM91.2443 53.7978L88.3393 53.4006C88.2139 54.3258 88.0565 55.2463 87.8674 56.1605L90.7387 56.7541C90.938 55.7853 91.108 54.7901 91.2443 53.7978ZM90.0293 59.6708L87.2064 58.8808C86.9548 59.7798 86.6727 60.6699 86.3607 61.5498L89.1235 62.5303C89.4533 61.5982 89.7581 60.6352 90.0293 59.6708ZM85.2556 70.656L82.7507 69.1317C82.2657 69.9291 81.7529 70.7094 81.2132 71.4709L83.6038 73.1667C84.183 72.349 84.7339 71.5116 85.2556 70.656ZM91.6474 47.7812L91.6459 47.6273H88.7146L88.716 47.815C88.716 48.7559 88.6852 49.6896 88.6222 50.6159L91.5477 50.8123C91.6144 49.8033 91.6477 48.7924 91.6474 47.7812ZM88.0213 65.3268L85.3333 64.1602C84.9614 65.0172 84.5595 65.861 84.1285 66.6899L86.73 68.0413C87.1903 67.156 87.6256 66.2429 88.0213 65.3268ZM85.2629 31.3115C85.6425 32.1747 85.9899 33.0483 86.2977 33.9057L89.0575 32.9178C88.7196 31.9763 88.3485 31.047 87.9451 30.1316L85.2629 31.3115ZM88.3144 42.0475C88.4434 42.9665 88.5401 43.8957 88.609 44.8338L91.5316 44.6213C91.4603 43.6242 91.3552 42.63 91.2165 41.6401L88.3144 42.0475ZM81.7922 75.5587L79.5189 73.7076C78.9253 74.436 78.3068 75.1454 77.6766 75.8167L79.8179 77.8202C80.4936 77.1006 81.1575 76.3384 81.7922 75.5587ZM82.6672 26.3575C83.1538 27.1504 83.6199 27.9683 84.0493 28.789L86.645 27.4289C86.1817 26.5424 85.687 25.6727 85.1618 24.8215L82.6672 26.3575ZM87.1595 36.5732C87.4101 37.4556 87.6373 38.3701 87.8322 39.2921L90.7005 38.6838C90.492 37.7054 90.2515 36.7342 89.9794 35.7715L87.1595 36.5732ZM32.8211 6.41699L33.8119 9.17685C34.6898 8.86173 35.5853 8.57446 36.4765 8.32236L35.6806 5.50094C34.725 5.77209 33.762 6.07988 32.8211 6.41699ZM44.7414 6.88014C45.6731 6.81442 46.6068 6.77972 47.5408 6.77608L47.5291 3.84473C46.5266 3.84766 45.5182 3.88577 44.5318 3.95612L44.7414 6.88014ZM41.9552 7.17181L41.5506 4.26977C40.5672 4.40608 39.572 4.57903 38.5944 4.78569L39.1953 7.65401C40.1095 7.46179 41.03 7.30096 41.9552 7.17181ZM59.3937 5.42179C58.429 5.15725 57.4557 4.92457 56.4756 4.72413L55.8922 7.59685C56.798 7.78006 57.7141 7.99991 58.6155 8.24761L59.3937 5.42179ZM53.128 7.13517L53.512 4.2302C52.5208 4.09913 51.5256 4.00136 50.5279 3.93706L50.3417 6.86255C51.2636 6.92118 52.2017 7.01205 53.128 7.13517ZM44.9246 88.763C43.993 88.7017 43.0637 88.6088 42.1384 88.4845L41.7456 91.3895C42.7261 91.5214 43.7301 91.6225 44.7297 91.6899L44.9246 88.763ZM77.6986 79.9411L75.6979 77.7997C75.0159 78.4371 74.3125 79.051 73.5888 79.6406L75.4414 81.9139C76.2158 81.2819 76.9686 80.6239 77.6986 79.9411ZM77.5754 15.5731L75.5807 17.7217C76.2651 18.3564 76.9335 19.0203 77.5681 19.696L79.7036 17.6866C79.0178 16.9587 78.308 16.2538 77.5754 15.5731ZM75.3066 13.609C74.5283 12.9788 73.7285 12.3756 72.9087 11.8004L71.2261 14.2012C71.9912 14.7391 72.7446 15.3048 73.4598 15.8867L75.3066 13.609ZM67.7745 8.69611L66.4319 11.3021C67.2571 11.7271 68.0808 12.1873 68.8781 12.6696L70.3951 10.1603C69.5381 9.64324 68.664 9.1549 67.7745 8.69611ZM79.4178 21.7992C80.0128 22.5247 80.5859 23.2722 81.1194 24.0227L83.507 22.3225C82.9269 21.5082 82.3192 20.7138 81.6852 19.9408L79.4178 21.7992ZM65.2286 88.143C66.1448 87.7432 67.0472 87.3125 67.9342 86.8517L66.5829 84.2516C65.7562 84.6811 64.9061 85.0871 64.0575 85.4564L65.2286 88.143ZM47.7284 91.7852C48.7279 91.7838 49.7271 91.749 50.7243 91.6811L50.5235 88.7571C49.5972 88.8201 48.6635 88.8524 47.7226 88.8538L47.7284 91.7852ZM69.0188 82.8754L70.5446 85.3787C71.3983 84.8573 72.2342 84.3074 73.0509 83.7298L71.3595 81.3364C70.59 81.8802 69.803 82.3975 69.0188 82.8754ZM53.7069 91.3733C54.6904 91.2385 55.6856 91.0685 56.6647 90.8647L56.0696 87.9949C55.1565 88.184 54.2272 88.3438 53.3097 88.4698L53.7069 91.3733ZM58.7899 87.331L59.5799 90.1539C60.5439 89.8842 61.4982 89.5806 62.4409 89.2437L61.4559 86.4824C60.5809 86.796 59.6825 87.0818 58.7899 87.331Z" fill="#4654B7"/>
</svg>
