<svg width="16" height="14" viewBox="0 0 16 14" fill="none" xmlns="http://www.w3.org/2000/svg">
<path id="Vector" d="M15.9332 6.71657C14.3178 2.89717 11.2789 0.527344 8 0.527344C4.72114 0.527344 1.6822 2.89717 0.0667645 6.71657C0.0227292 6.81932 0 6.93022 0 7.04232C0 7.15443 0.0227292 7.26532 0.0667645 7.36807C1.6822 11.1875 4.72114 13.5573 8 13.5573C11.2789 13.5573 14.3178 11.1875 15.9332 7.36807C15.9773 7.26532 16 7.15443 16 7.04232C16 6.93022 15.9773 6.81932 15.9332 6.71657ZM8 11.9286C5.46488 11.9286 3.06572 10.0636 1.6822 7.04232C3.06572 4.021 5.46488 2.15609 8 2.15609C10.5351 2.15609 12.9343 4.021 14.3178 7.04232C12.9343 10.0636 10.5351 11.9286 8 11.9286ZM8 3.78483C7.36732 3.78483 6.74885 3.97588 6.22279 4.33382C5.69674 4.69176 5.28673 5.20051 5.04461 5.79573C4.8025 6.39096 4.73915 7.04593 4.86258 7.67782C4.98601 8.30972 5.29067 8.89015 5.73805 9.34571C6.18542 9.80128 6.75541 10.1115 7.37593 10.2372C7.99645 10.3629 8.63964 10.2984 9.22416 10.0518C9.80868 9.8053 10.3083 9.38778 10.6598 8.85208C11.0113 8.31639 11.1989 7.68659 11.1989 7.04232C11.1989 6.17838 10.8619 5.34983 10.262 4.73893C9.66205 4.12803 8.8484 3.78483 8 3.78483ZM8 8.67107C7.68366 8.67107 7.37442 8.57554 7.1114 8.39657C6.84837 8.2176 6.64337 7.96323 6.52231 7.66561C6.40125 7.368 6.36958 7.04051 6.43129 6.72457C6.493 6.40862 6.64534 6.11841 6.86902 5.89062C7.09271 5.66284 7.3777 5.50772 7.68796 5.44487C7.99823 5.38203 8.31982 5.41428 8.61208 5.53756C8.90434 5.66083 9.15414 5.86959 9.32989 6.13744C9.50564 6.40528 9.59944 6.72019 9.59944 7.04232C9.59944 7.47429 9.43093 7.88857 9.13098 8.19402C8.83102 8.49947 8.4242 8.67107 8 8.67107Z" fill="black"/>
</svg>
