<svg width="928" height="55" viewBox="0 0 928 55" fill="none" xmlns="http://www.w3.org/2000/svg">
<path d="M0 11.13C0 7.27566 0 5.3485 0.738187 3.87115C1.41574 2.51515 2.51515 1.41574 3.87115 0.738187C5.3485 0 7.27566 0 11.13 0H916.87C920.724 0 922.651 0 924.129 0.738187C925.485 1.41574 926.584 2.51515 927.262 3.87115C928 5.3485 928 7.27566 928 11.13V55H0V11.13Z" fill="#4856BE" fill-opacity="0.96"/>
<path d="M0.175 11.13C0.175 9.19999 0.175132 7.76284 0.266711 6.62322C0.35813 5.4856 0.539838 4.65963 0.894733 3.94937C1.55535 2.62728 2.62728 1.55535 3.94937 0.894733C4.65963 0.539838 5.4856 0.35813 6.62322 0.266711C7.76284 0.175132 9.19999 0.175 11.13 0.175H916.87C918.8 0.175 920.237 0.175132 921.377 0.266711C922.514 0.35813 923.34 0.539838 924.051 0.894733C925.373 1.55535 926.445 2.62728 927.105 3.94937C927.46 4.65963 927.642 5.4856 927.733 6.62322C927.825 7.76284 927.825 9.19999 927.825 11.13V54.825H0.175V11.13Z" stroke="#424040" stroke-opacity="0.42" stroke-width="0.35"/>
</svg>
