<svg width="72" height="69" viewBox="0 0 72 69" fill="none" xmlns="http://www.w3.org/2000/svg">
<g clip-path="url(#clip0_2128_6058)">
<path d="M46.7891 68.0734H50.975H53.3379L53.3214 65.4995L52.6274 65.1538L46.7891 68.0734Z" fill="#4654B7"/>
<path d="M51.6417 34.6235L46.4536 44.6314L34.849 46.2267C34.6446 46.2545 34.4523 46.3372 34.2942 46.4653C34.1361 46.5935 34.0184 46.762 33.9547 46.9516C33.8909 47.1412 33.8837 47.3443 33.9337 47.5377C33.9838 47.7311 34.0891 47.907 34.2377 48.0454L42.6313 55.8411L40.8083 65.9447L40.6485 66.8275C40.6132 67.0227 40.6351 67.2236 40.7117 67.4074C40.7883 67.5913 40.9166 67.7508 41.0821 67.868C41.2476 67.9852 41.4437 68.0555 41.6484 68.0708C41.853 68.0861 42.058 68.046 42.2402 67.9548L52.6276 62.7541L53.4592 63.1742L63.015 67.9602C63.1972 68.0513 63.4022 68.0915 63.6068 68.0761C63.8115 68.0608 64.0076 67.9905 64.1731 67.8733C64.3386 67.7561 64.4669 67.5966 64.5435 67.4127C64.6201 67.2289 64.642 67.028 64.6067 66.8328L62.6239 55.8411L71.0175 48.056C71.1661 47.9176 71.2714 47.7417 71.3215 47.5483C71.3715 47.3549 71.3643 47.1518 71.3005 46.9622C71.2368 46.7726 71.1191 46.6041 70.961 46.476C70.8029 46.3478 70.6106 46.2651 70.4062 46.2374L58.8016 44.6421L53.6135 34.6235C53.5353 34.4744 53.4198 34.3465 53.2775 34.2513C53.0912 34.113 52.8626 34.0382 52.6276 34.0386C52.4232 34.0382 52.2228 34.0927 52.0487 34.196C51.8746 34.2993 51.7337 34.4473 51.6417 34.6235ZM53.294 38.7926L57.0722 46.0832C57.1519 46.236 57.2687 46.368 57.4125 46.468C57.5563 46.568 57.723 46.633 57.8984 46.6575L67.8451 48.0347L60.6852 54.6978C60.5561 54.8185 60.4594 54.9678 60.4037 55.1328C60.348 55.2978 60.335 55.4734 60.3658 55.6444L62.0621 65.078L53.4592 60.7706L53.1453 60.6164C52.9887 60.5381 52.815 60.4972 52.6386 60.4972C52.4623 60.4972 52.2885 60.5381 52.1319 60.6164L43.2151 65.078L44.9169 55.6444C44.9477 55.4734 44.9347 55.2978 44.879 55.1328C44.8233 54.9678 44.7267 54.8185 44.5975 54.6978L37.4376 48.0347L47.3403 46.6575C47.5157 46.633 47.6824 46.568 47.8262 46.468C47.97 46.368 48.0867 46.236 48.1664 46.0832L52.6276 37.4791L53.294 38.7926Z" fill="#4654B7"/>
<path d="M48.5281 53.1414C48.4384 53.0215 48.3237 52.921 48.1915 52.8463C48.0592 52.7716 47.9123 52.7243 47.7601 52.7076C47.6079 52.6908 47.4537 52.7049 47.3075 52.7489C47.1612 52.7929 47.0261 52.8659 46.9107 52.9632C46.7953 53.0605 46.7022 53.1799 46.6373 53.314C46.5725 53.448 46.5373 53.5936 46.534 53.7414C46.5307 53.8893 46.5594 54.0362 46.6183 54.1728C46.6771 54.3094 46.7649 54.4326 46.8758 54.5346L49.7232 57.7251C49.9139 57.9387 50.1846 58.0705 50.4758 58.0914C50.7671 58.1124 51.055 58.0208 51.2763 57.8368L60.4904 50.1741C60.6747 49.9817 60.7789 49.7303 60.783 49.4682C60.7871 49.2061 60.6908 48.9518 60.5127 48.7541C60.3345 48.5563 60.0869 48.4291 59.8175 48.3967C59.5481 48.3644 59.2759 48.4292 59.053 48.5788L50.6595 55.5183L48.5281 53.1414ZM34.5335 44.144L44.9978 42.6976L46.1709 40.4216H8.40576V59.565H39.7215L40.2723 56.5925L32.7105 49.5892C32.2681 49.1743 31.9549 48.6482 31.8061 48.0703C31.6574 47.4925 31.6791 46.886 31.8688 46.3194C32.0584 45.7528 32.4085 45.2488 32.8794 44.8644C33.3504 44.4799 33.9233 44.2304 34.5335 44.144Z" fill="#4654B7"/>
<path d="M3.05745 68.0683H38.6152C38.4296 67.5565 38.3822 67.0074 38.4775 66.473L39.3367 61.687H8.46051C7.87621 61.687 7.31585 61.4629 6.90269 61.064C6.48954 60.6651 6.25743 60.124 6.25743 59.5599V40.4159C6.25743 39.8517 6.48954 39.3107 6.90269 38.9118C7.31585 38.5129 7.87621 38.2887 8.46051 38.2887H47.2733L49.6691 33.6676C49.9442 33.138 50.3667 32.6928 50.889 32.3819C51.4114 32.0711 52.0131 31.9067 52.6268 31.9074V10.6363H0.85437V65.9412C0.85437 66.5054 1.08648 67.0464 1.49964 67.4453C1.9128 67.8442 2.47316 68.0683 3.05745 68.0683ZM8.01438 14.8905H46.4086C46.7007 14.8905 46.9809 15.0026 47.1875 15.202C47.3941 15.4015 47.5101 15.672 47.5101 15.9541C47.5101 16.2361 47.3941 16.5067 47.1875 16.7061C46.9809 16.9056 46.7007 17.0176 46.4086 17.0176H8.01438C7.72224 17.0176 7.44205 16.9056 7.23548 16.7061C7.0289 16.5067 6.91284 16.2361 6.91284 15.9541C6.91284 15.672 7.0289 15.4015 7.23548 15.202C7.44205 15.0026 7.72224 14.8905 8.01438 14.8905ZM8.01438 19.1447H46.4086C46.7007 19.1447 46.9809 19.2568 47.1875 19.4562C47.3941 19.6557 47.5101 19.9262 47.5101 20.2083C47.5101 20.4904 47.3941 20.7609 47.1875 20.9603C46.9809 21.1598 46.7007 21.2719 46.4086 21.2719H8.01438C7.72224 21.2719 7.44205 21.1598 7.23548 20.9603C7.0289 20.7609 6.91284 20.4904 6.91284 20.2083C6.91284 19.9262 7.0289 19.6557 7.23548 19.4562C7.44205 19.2568 7.72224 19.1447 8.01438 19.1447ZM8.01438 23.399H46.4086C46.7007 23.399 46.9809 23.511 47.1875 23.7105C47.3941 23.9099 47.5101 24.1805 47.5101 24.4625C47.5101 24.7446 47.3941 25.0151 47.1875 25.2146C46.9809 25.414 46.7007 25.5261 46.4086 25.5261H8.01438C7.72224 25.5261 7.44205 25.414 7.23548 25.2146C7.0289 25.0151 6.91284 24.7446 6.91284 24.4625C6.91284 24.1805 7.0289 23.9099 7.23548 23.7105C7.44205 23.511 7.72224 23.399 8.01438 23.399ZM8.01438 27.6532H46.4086C46.7007 27.6532 46.9809 27.7652 47.1875 27.9647C47.3941 28.1642 47.5101 28.4347 47.5101 28.7167C47.5101 28.9988 47.3941 29.2693 47.1875 29.4688C46.9809 29.6683 46.7007 29.7803 46.4086 29.7803H8.01438C7.72224 29.7803 7.44205 29.6683 7.23548 29.4688C7.0289 29.2693 6.91284 28.9988 6.91284 28.7167C6.91284 28.4347 7.0289 28.1642 7.23548 27.9647C7.44205 27.7652 7.72224 27.6532 8.01438 27.6532ZM8.01438 31.9074H46.4086C46.7007 31.9074 46.9809 32.0195 47.1875 32.2189C47.3941 32.4184 47.5101 32.6889 47.5101 32.971C47.5101 33.253 47.3941 33.5236 47.1875 33.723C46.9809 33.9225 46.7007 34.0345 46.4086 34.0345H8.01438C7.72224 34.0345 7.44205 33.9225 7.23548 33.723C7.0289 33.5236 6.91284 33.253 6.91284 32.971C6.91284 32.6889 7.0289 32.4184 7.23548 32.2189C7.44205 32.0195 7.72224 31.9074 8.01438 31.9074ZM52.6268 3.1914C52.6268 2.3525 52.2847 1.54732 51.6745 0.950166C51.0643 0.353008 50.235 0.0119177 49.3662 0.000732422L4.11493 0.000732422C3.24615 0.0119177 2.41688 0.353008 1.80664 0.950166C1.1964 1.54732 0.854293 2.3525 0.85437 3.1914L0.85437 8.50918H52.6268V3.1914ZM39.7993 5.31851H36.4947C36.2026 5.31851 35.9224 5.20646 35.7158 5.007C35.5092 4.80755 35.3932 4.53703 35.3932 4.25496C35.3932 3.97288 35.5092 3.70236 35.7158 3.50291C35.9224 3.30345 36.2026 3.1914 36.4947 3.1914H39.7993C40.0915 3.1914 40.3717 3.30345 40.5782 3.50291C40.7848 3.70236 40.9009 3.97288 40.9009 4.25496C40.9009 4.53703 40.7848 4.80755 40.5782 5.007C40.3717 5.20646 40.0915 5.31851 39.7993 5.31851ZM47.5101 5.31851H44.2055C43.9133 5.31851 43.6332 5.20646 43.4266 5.007C43.22 4.80755 43.104 4.53703 43.104 4.25496C43.104 3.97288 43.22 3.70236 43.4266 3.50291C43.6332 3.30345 43.9133 3.1914 44.2055 3.1914H47.5101C47.8023 3.1914 48.0824 3.30345 48.289 3.50291C48.4956 3.70236 48.6117 3.97288 48.6117 4.25496C48.6117 4.53703 48.4956 4.80755 48.289 5.007C48.0824 5.20646 47.8023 5.31851 47.5101 5.31851Z" fill="#4654B7"/>
</g>
<defs>
<clipPath id="clip0_2128_6058">
<rect width="70.4986" height="68.0676" fill="white" transform="translate(0.854492)"/>
</clipPath>
</defs>
</svg>
