<svg width="73" height="69" viewBox="0 0 73 69" fill="none" xmlns="http://www.w3.org/2000/svg">
<g clip-path="url(#clip0_2128_6058)">
<path d="M47.4183 69.0059H51.6617H54.0569L54.0402 66.3968L53.3367 66.0464L47.4183 69.0059Z" fill="#4654B7"/>
<path d="M52.3374 35.0978L47.0782 45.2428L35.3146 46.86C35.1074 46.8881 34.9125 46.9719 34.7522 47.1019C34.5919 47.2318 34.4727 47.4026 34.4081 47.5948C34.3434 47.787 34.3361 47.9928 34.3868 48.1889C34.4375 48.3849 34.5443 48.5633 34.6949 48.7036L43.2035 56.6061L41.3555 66.8481L41.1936 67.7429C41.1578 67.9408 41.18 68.1444 41.2577 68.3308C41.3353 68.5172 41.4654 68.6789 41.6331 68.7977C41.8009 68.9165 41.9997 68.9877 42.2071 69.0033C42.4146 69.0188 42.6224 68.9781 42.8071 68.8857L53.3368 63.6138L54.1798 64.0396L63.8664 68.8911C64.0512 68.9835 64.259 69.0242 64.4664 69.0087C64.6738 68.9931 64.8726 68.9219 65.0404 68.8031C65.2082 68.6843 65.3382 68.5226 65.4159 68.3362C65.4935 68.1498 65.5157 67.9462 65.4799 67.7483L63.47 56.6061L71.9786 48.7143C72.1292 48.5741 72.236 48.3957 72.2867 48.1997C72.3374 48.0036 72.3301 47.7978 72.2655 47.6056C72.2009 47.4134 72.0816 47.2426 71.9213 47.1126C71.761 46.9827 71.5661 46.8989 71.3589 46.8708L59.5954 45.2536L54.3361 35.0978C54.2569 34.9467 54.1398 34.817 53.9956 34.7205C53.8067 34.5803 53.575 34.5045 53.3368 34.5049C53.1296 34.5045 52.9264 34.5597 52.7499 34.6645C52.5735 34.7692 52.4306 34.9192 52.3374 35.0978ZM54.0123 39.324L57.8423 46.7145C57.9231 46.8694 58.0414 47.0032 58.1872 47.1046C58.333 47.2059 58.5019 47.2718 58.6797 47.2966L68.7627 48.6928L61.5048 55.4471C61.3738 55.5694 61.2759 55.7208 61.2194 55.888C61.163 56.0553 61.1498 56.2333 61.181 56.4066L62.9005 65.9695L54.1798 61.6031L53.8616 61.4468C53.7028 61.3674 53.5267 61.326 53.3479 61.326C53.1692 61.326 52.993 61.3674 52.8343 61.4468L43.7953 65.9695L45.5205 56.4066C45.5517 56.2333 45.5385 56.0553 45.482 55.888C45.4256 55.7208 45.3276 55.5694 45.1967 55.4471L37.9387 48.6928L47.977 47.2966C48.1548 47.2718 48.3238 47.2059 48.4696 47.1046C48.6154 47.0032 48.7337 46.8694 48.8145 46.7145L53.3368 37.9926L54.0123 39.324Z" fill="#4654B7"/>
<path d="M49.1811 53.8693C49.0901 53.7478 48.9739 53.6459 48.8399 53.5702C48.7058 53.4944 48.5569 53.4466 48.4026 53.4296C48.2483 53.4126 48.092 53.4268 47.9438 53.4714C47.7955 53.5161 47.6585 53.5901 47.5415 53.6887C47.4246 53.7873 47.3302 53.9084 47.2644 54.0443C47.1987 54.1801 47.163 54.3277 47.1597 54.4776C47.1564 54.6275 47.1855 54.7765 47.2451 54.9149C47.3048 55.0533 47.3937 55.1782 47.5062 55.2816L50.3926 58.5159C50.5859 58.7324 50.8603 58.866 51.1555 58.8872C51.4507 58.9084 51.7426 58.8156 51.967 58.6291L61.3073 50.8614C61.4941 50.6663 61.5997 50.4115 61.6039 50.1458C61.608 49.8802 61.5105 49.6224 61.3298 49.4219C61.1492 49.2215 60.8983 49.0925 60.6252 49.0597C60.3521 49.0269 60.0761 49.0926 59.8501 49.2443L51.3417 56.2788L49.1811 53.8693ZM34.9948 44.7487L45.6024 43.2825L46.7916 40.9753H8.50916V60.381H40.2539L40.8122 57.3677L33.1468 50.2685C32.6984 49.8479 32.3809 49.3146 32.2301 48.7288C32.0793 48.143 32.1013 47.5282 32.2936 46.9539C32.4858 46.3796 32.8407 45.8687 33.3181 45.479C33.7955 45.0892 34.3762 44.8363 34.9948 44.7487Z" fill="#4654B7"/>
<path d="M3.08763 69.0007H39.1324C38.9443 68.4819 38.8963 67.9253 38.9929 67.3835L39.8638 62.532H8.5647C7.9724 62.532 7.40436 62.3048 6.98554 61.9004C6.56673 61.4961 6.33144 60.9476 6.33144 60.3757V40.9695C6.33144 40.3976 6.56673 39.8492 6.98554 39.4448C7.40436 39.0404 7.9724 38.8132 8.5647 38.8132H47.9091L50.3378 34.1288C50.6167 33.5919 51.0449 33.1406 51.5744 32.8255C52.104 32.5104 52.7139 32.3438 53.336 32.3445V10.782H0.85437V66.8445C0.85437 67.4164 1.08966 67.9648 1.50848 68.3692C1.92729 68.7736 2.49533 69.0007 3.08763 69.0007ZM8.11246 15.0945H47.0326C47.3287 15.0945 47.6128 15.2081 47.8222 15.4103C48.0316 15.6124 48.1492 15.8867 48.1492 16.1726C48.1492 16.4585 48.0316 16.7328 47.8222 16.935C47.6128 17.1371 47.3287 17.2507 47.0326 17.2507H8.11246C7.81631 17.2507 7.5323 17.1371 7.32289 16.935C7.11348 16.7328 6.99583 16.4585 6.99583 16.1726C6.99583 15.8867 7.11348 15.6124 7.32289 15.4103C7.5323 15.2081 7.81631 15.0945 8.11246 15.0945ZM8.11246 19.407H47.0326C47.3287 19.407 47.6128 19.5206 47.8222 19.7228C48.0316 19.9249 48.1492 20.1992 48.1492 20.4851C48.1492 20.771 48.0316 21.0453 47.8222 21.2475C47.6128 21.4496 47.3287 21.5632 47.0326 21.5632H8.11246C7.81631 21.5632 7.5323 21.4496 7.32289 21.2475C7.11348 21.0453 6.99583 20.771 6.99583 20.4851C6.99583 20.1992 7.11348 19.9249 7.32289 19.7228C7.5323 19.5206 7.81631 19.407 8.11246 19.407ZM8.11246 23.7195H47.0326C47.3287 23.7195 47.6128 23.8331 47.8222 24.0353C48.0316 24.2374 48.1492 24.5117 48.1492 24.7976C48.1492 25.0835 48.0316 25.3578 47.8222 25.56C47.6128 25.7621 47.3287 25.8757 47.0326 25.8757H8.11246C7.81631 25.8757 7.5323 25.7621 7.32289 25.56C7.11348 25.3578 6.99583 25.0835 6.99583 24.7976C6.99583 24.5117 7.11348 24.2374 7.32289 24.0353C7.5323 23.8331 7.81631 23.7195 8.11246 23.7195ZM8.11246 28.032H47.0326C47.3287 28.032 47.6128 28.1456 47.8222 28.3478C48.0316 28.5499 48.1492 28.8242 48.1492 29.1101C48.1492 29.396 48.0316 29.6703 47.8222 29.8725C47.6128 30.0746 47.3287 30.1882 47.0326 30.1882H8.11246C7.81631 30.1882 7.5323 30.0746 7.32289 29.8725C7.11348 29.6703 6.99583 29.396 6.99583 29.1101C6.99583 28.8242 7.11348 28.5499 7.32289 28.3478C7.5323 28.1456 7.81631 28.032 8.11246 28.032ZM8.11246 32.3445H47.0326C47.3287 32.3445 47.6128 32.4581 47.8222 32.6603C48.0316 32.8624 48.1492 33.1367 48.1492 33.4226C48.1492 33.7085 48.0316 33.9828 47.8222 34.185C47.6128 34.3871 47.3287 34.5007 47.0326 34.5007H8.11246C7.81631 34.5007 7.5323 34.3871 7.32289 34.185C7.11348 33.9828 6.99583 33.7085 6.99583 33.4226C6.99583 33.1367 7.11348 32.8624 7.32289 32.6603C7.5323 32.4581 7.81631 32.3445 8.11246 32.3445ZM53.336 3.23511C53.336 2.38472 52.9892 1.56851 52.3706 0.963172C51.752 0.357833 50.9114 0.0120709 50.0307 0.000732422L4.15959 0.000732422C3.27891 0.0120709 2.43828 0.357833 1.81969 0.963172C1.20109 1.56851 0.854292 2.38472 0.85437 3.23511L0.85437 8.62573H53.336V3.23511ZM40.3328 5.39136H36.9829C36.6868 5.39136 36.4028 5.27777 36.1933 5.07558C35.9839 4.87339 35.8663 4.59917 35.8663 4.31323C35.8663 4.0273 35.9839 3.75307 36.1933 3.55088C36.4028 3.3487 36.6868 3.23511 36.9829 3.23511H40.3328C40.629 3.23511 40.913 3.3487 41.1224 3.55088C41.3318 3.75307 41.4494 4.0273 41.4494 4.31323C41.4494 4.59917 41.3318 4.87339 41.1224 5.07558C40.913 5.27777 40.629 5.39136 40.3328 5.39136ZM48.1492 5.39136H44.7993C44.5032 5.39136 44.2192 5.27777 44.0098 5.07558C43.8003 4.87339 43.6827 4.59917 43.6827 4.31323C43.6827 4.0273 43.8003 3.75307 44.0098 3.55088C44.2192 3.3487 44.5032 3.23511 44.7993 3.23511H48.1492C48.4454 3.23511 48.7294 3.3487 48.9388 3.55088C49.1482 3.75307 49.2658 4.0273 49.2658 4.31323C49.2658 4.59917 49.1482 4.87339 48.9388 5.07558C48.7294 5.27777 48.4454 5.39136 48.1492 5.39136Z" fill="#4654B7"/>
</g>
<defs>
<clipPath id="clip0_2128_6058">
<rect width="71.4643" height="69" fill="white" transform="translate(0.854492)"/>
</clipPath>
</defs>
</svg>
