<svg width="72" height="69" viewBox="0 0 72 69" fill="none" xmlns="http://www.w3.org/2000/svg">
<g clip-path="url(#clip0_2128_6063)">
<path d="M46.809 69.0106H50.9949H53.3578L53.3413 66.4367L52.6473 66.0911L46.809 69.0106Z" fill="#1C1C1C"/>
<path d="M51.661 35.5603L46.4729 45.5682L34.8683 47.1635C34.6639 47.1913 34.4716 47.2739 34.3135 47.4021C34.1553 47.5303 34.0377 47.6988 33.974 47.8884C33.9102 48.078 33.903 48.281 33.953 48.4744C34.003 48.6678 34.1084 48.8438 34.257 48.9822L42.6506 56.7779L40.8275 66.8815L40.6678 67.7643C40.6325 67.9595 40.6544 68.1603 40.731 68.3442C40.8076 68.528 40.9359 68.6875 41.1014 68.8048C41.2669 68.922 41.463 68.9922 41.6676 69.0076C41.8723 69.0229 42.0773 68.9827 42.2595 68.8916L52.6469 63.6909L53.4785 64.111L63.0342 68.8969C63.2165 68.9881 63.4215 69.0282 63.6261 69.0129C63.8308 68.9975 64.0269 68.9273 64.1924 68.8101C64.3579 68.6929 64.4862 68.5333 64.5628 68.3495C64.6394 68.1656 64.6613 67.9648 64.6259 67.7696L62.6432 56.7779L71.0368 48.9928C71.1854 48.8544 71.2907 48.6785 71.3408 48.4851C71.3908 48.2917 71.3835 48.0886 71.3198 47.899C71.2561 47.7094 71.1384 47.5409 70.9803 47.4127C70.8222 47.2846 70.6299 47.2019 70.4255 47.1741L58.8209 45.5788L53.6327 35.5603C53.5546 35.4112 53.4391 35.2832 53.2968 35.1881C53.1105 35.0497 52.8819 34.9749 52.6469 34.9753C52.4425 34.975 52.2421 35.0295 52.068 35.1328C51.8939 35.2361 51.753 35.3841 51.661 35.5603ZM53.3133 39.7294L57.0915 47.0199C57.1712 47.1728 57.2879 47.3048 57.4318 47.4047C57.5756 47.5047 57.7423 47.5697 57.9177 47.5942L67.8644 48.9715L60.7045 55.6346C60.5753 55.7552 60.4787 55.9046 60.423 56.0695C60.3673 56.2345 60.3543 56.4102 60.3851 56.5811L62.0814 66.0147L53.4785 61.7074L53.1646 61.5532C53.008 61.4749 52.8342 61.434 52.6579 61.434C52.4816 61.434 52.3078 61.4749 52.1512 61.5532L43.2344 66.0147L44.9362 56.5811C44.967 56.4102 44.954 56.2345 44.8983 56.0695C44.8426 55.9046 44.746 55.7552 44.6168 55.6346L37.4569 48.9715L47.3596 47.5942C47.535 47.5697 47.7017 47.5047 47.8455 47.4047C47.9893 47.3048 48.106 47.1728 48.1857 47.0199L52.6469 38.4159L53.3133 39.7294Z" fill="#1C1C1C"/>
<path d="M48.5479 54.0784C48.4581 53.9585 48.3435 53.858 48.2113 53.7833C48.079 53.7086 47.9321 53.6613 47.7799 53.6446C47.6277 53.6278 47.4735 53.6419 47.3273 53.6859C47.181 53.7299 47.0458 53.8029 46.9305 53.9002C46.8151 53.9975 46.722 54.117 46.6571 54.251C46.5922 54.385 46.5571 54.5306 46.5538 54.6785C46.5505 54.8263 46.5792 54.9733 46.6381 55.1098C46.6969 55.2464 46.7846 55.3696 46.8956 55.4716L49.743 58.6621C49.9336 58.8758 50.2044 59.0075 50.4956 59.0285C50.7868 59.0494 51.0748 58.9578 51.2961 58.7738L60.5102 51.1111C60.6945 50.9187 60.7987 50.6673 60.8028 50.4052C60.8069 50.1431 60.7106 49.8888 60.5324 49.6911C60.3543 49.4933 60.1067 49.3661 59.8373 49.3338C59.5679 49.3014 59.2956 49.3663 59.0727 49.5159L50.6793 56.4553L48.5479 54.0784ZM34.5532 45.081L45.0175 43.6346L46.1906 41.3586H8.42554V60.502H39.7413L40.2921 57.5295L32.7302 50.5262C32.2879 50.1113 31.9747 49.5852 31.8259 49.0073C31.6772 48.4295 31.6989 47.823 31.8885 47.2564C32.0782 46.6899 32.4283 46.1858 32.8992 45.8014C33.3701 45.4169 33.9431 45.1674 34.5532 45.081Z" fill="#1C1C1C"/>
<path d="M3.07723 69.0058H38.6349C38.4494 68.494 38.402 67.9449 38.4973 67.4105L39.3565 62.6245H8.48028C7.89599 62.6245 7.33563 62.4004 6.92247 62.0015C6.50931 61.6026 6.2772 61.0615 6.2772 60.4974V41.3534C6.2772 40.7892 6.50931 40.2482 6.92247 39.8493C7.33563 39.4504 7.89599 39.2262 8.48028 39.2262H47.2931L49.6889 34.6051C49.964 34.0755 50.3864 33.6303 50.9088 33.3194C51.4312 33.0086 52.0329 32.8442 52.6465 32.8449V11.5738H0.874146V66.8787C0.874146 67.4429 1.10626 67.9839 1.51941 68.3828C1.93257 68.7817 2.49293 69.0058 3.07723 69.0058ZM8.03416 15.828H46.4283C46.7205 15.828 47.0007 15.9401 47.2073 16.1395C47.4138 16.339 47.5299 16.6095 47.5299 16.8916C47.5299 17.1736 47.4138 17.4442 47.2073 17.6436C47.0007 17.8431 46.7205 17.9551 46.4283 17.9551H8.03416C7.74201 17.9551 7.46183 17.8431 7.25525 17.6436C7.04867 17.4442 6.93262 17.1736 6.93262 16.8916C6.93262 16.6095 7.04867 16.339 7.25525 16.1395C7.46183 15.9401 7.74201 15.828 8.03416 15.828ZM8.03416 20.0822H46.4283C46.7205 20.0822 47.0007 20.1943 47.2073 20.3937C47.4138 20.5932 47.5299 20.8637 47.5299 21.1458C47.5299 21.4279 47.4138 21.6984 47.2073 21.8978C47.0007 22.0973 46.7205 22.2094 46.4283 22.2094H8.03416C7.74201 22.2094 7.46183 22.0973 7.25525 21.8978C7.04867 21.6984 6.93262 21.4279 6.93262 21.1458C6.93262 20.8637 7.04867 20.5932 7.25525 20.3937C7.46183 20.1943 7.74201 20.0822 8.03416 20.0822ZM8.03416 24.3365H46.4283C46.7205 24.3365 47.0007 24.4485 47.2073 24.648C47.4138 24.8474 47.5299 25.118 47.5299 25.4C47.5299 25.6821 47.4138 25.9526 47.2073 26.1521C47.0007 26.3515 46.7205 26.4636 46.4283 26.4636H8.03416C7.74201 26.4636 7.46183 26.3515 7.25525 26.1521C7.04867 25.9526 6.93262 25.6821 6.93262 25.4C6.93262 25.118 7.04867 24.8474 7.25525 24.648C7.46183 24.4485 7.74201 24.3365 8.03416 24.3365ZM8.03416 28.5907H46.4283C46.7205 28.5907 47.0007 28.7027 47.2073 28.9022C47.4138 29.1017 47.5299 29.3722 47.5299 29.6542C47.5299 29.9363 47.4138 30.2068 47.2073 30.4063C47.0007 30.6058 46.7205 30.7178 46.4283 30.7178H8.03416C7.74201 30.7178 7.46183 30.6058 7.25525 30.4063C7.04867 30.2068 6.93262 29.9363 6.93262 29.6542C6.93262 29.3722 7.04867 29.1017 7.25525 28.9022C7.46183 28.7027 7.74201 28.5907 8.03416 28.5907ZM8.03416 32.8449H46.4283C46.7205 32.8449 47.0007 32.957 47.2073 33.1564C47.4138 33.3559 47.5299 33.6264 47.5299 33.9085C47.5299 34.1905 47.4138 34.4611 47.2073 34.6605C47.0007 34.86 46.7205 34.972 46.4283 34.972H8.03416C7.74201 34.972 7.46183 34.86 7.25525 34.6605C7.04867 34.4611 6.93262 34.1905 6.93262 33.9085C6.93262 33.6264 7.04867 33.3559 7.25525 33.1564C7.46183 32.957 7.74201 32.8449 8.03416 32.8449ZM52.6465 4.1289C52.6466 3.29 52.3045 2.48482 51.6943 1.88767C51.084 1.29051 50.2548 0.949418 49.386 0.938232L4.1347 0.938232C3.26592 0.949418 2.43666 1.29051 1.82642 1.88767C1.21618 2.48482 0.874068 3.29 0.874146 4.1289L0.874146 9.44668H52.6465V4.1289ZM39.8191 6.25601H36.5145C36.2223 6.25601 35.9422 6.14396 35.7356 5.9445C35.529 5.74505 35.4129 5.47453 35.4129 5.19246C35.4129 4.91038 35.529 4.63986 35.7356 4.44041C35.9422 4.24095 36.2223 4.1289 36.5145 4.1289H39.8191C40.1113 4.1289 40.3914 4.24095 40.598 4.44041C40.8046 4.63986 40.9206 4.91038 40.9206 5.19246C40.9206 5.47453 40.8046 5.74505 40.598 5.9445C40.3914 6.14396 40.1113 6.25601 39.8191 6.25601ZM47.5299 6.25601H44.2253C43.9331 6.25601 43.6529 6.14396 43.4464 5.9445C43.2398 5.74505 43.1237 5.47453 43.1237 5.19246C43.1237 4.91038 43.2398 4.63986 43.4464 4.44041C43.6529 4.24095 43.9331 4.1289 44.2253 4.1289H47.5299C47.822 4.1289 48.1022 4.24095 48.3088 4.44041C48.5154 4.63986 48.6314 4.91038 48.6314 5.19246C48.6314 5.47453 48.5154 5.74505 48.3088 5.9445C48.1022 6.14396 47.822 6.25601 47.5299 6.25601Z" fill="#1C1C1C"/>
</g>
<defs>
<clipPath id="clip0_2128_6063">
<rect width="70.4986" height="68.0676" fill="white" transform="translate(0.874023 0.937012)"/>
</clipPath>
</defs>
</svg>
