<svg width="48" height="48" viewBox="0 0 48 48" fill="none" xmlns="http://www.w3.org/2000/svg">
<g clip-path="url(#clip0_2164_5757)">
<path d="M46.8 2.69652e-07H1.2C1.19956 2.69652e-07 1.20059 2.69652e-07 1.2 2.69652e-07C0.537745 0.00043971 -0.00043917 0.537598 2.69652e-07 1.2V46.8C2.69652e-07 46.7996 2.69652e-07 46.8004 2.69652e-07 46.8C0.00043971 47.4624 0.537598 48.0004 1.2 48H46.8C46.7994 48 46.8004 48 46.8 48C47.4623 47.9996 48.0004 47.4624 48 46.8V1.2C48 1.19956 48 1.20059 48 1.2C47.9996 0.537745 47.4624 -0.00043917 46.8 2.69652e-07ZM22.8 45.6H2.4V32.4H22.8V45.6ZM22.8 30H2.4V18H22.8V30ZM45.6 45.6H25.2V32.4H45.6V45.6ZM45.6 30H25.2V18H45.6V30ZM45.6 15.6H2.4V2.4H45.6V15.6Z" fill="black"/>
</g>
<defs>
<clipPath id="clip0_2164_5757">
<rect width="48" height="48" fill="white"/>
</clipPath>
</defs>
</svg>
