<svg width="60" height="60" viewBox="0 0 60 60" fill="none" xmlns="http://www.w3.org/2000/svg">
<g clip-path="url(#clip0_2279_8867)">
<path d="M42.0002 0H4.66687C3.41647 0.0149489 2.22302 0.525133 1.34822 1.41869C0.47341 2.31224 -0.0113596 3.51623 0.000202161 4.76667V55.2333C-0.0113596 56.4838 0.47341 57.6878 1.34822 58.5813C2.22302 59.4749 3.41647 59.985 4.66687 60H42.0002C42.2238 59.9943 42.4466 59.972 42.6669 59.9333C38.3148 59.759 34.2045 57.8852 31.2186 54.7143C28.2326 51.5433 26.6089 47.328 26.6962 42.9733C26.7835 38.6186 28.5747 34.4717 31.6853 31.4229C34.7959 28.3741 38.978 26.6665 43.3335 26.6667C44.4525 26.6752 45.5683 26.7868 46.6669 27V4.76667C46.6784 3.51623 46.1937 2.31224 45.3189 1.41869C44.444 0.525133 43.2506 0.0149489 42.0002 0ZM16.6669 40H10.0002C9.11615 40 8.2683 39.6488 7.64318 39.0237C7.01806 38.3986 6.66687 37.5507 6.66687 36.6667C6.66687 35.7826 7.01806 34.9348 7.64318 34.3096C8.2683 33.6845 9.11615 33.3333 10.0002 33.3333H16.6669C17.5509 33.3333 18.3988 33.6845 19.0239 34.3096C19.649 34.9348 20.0002 35.7826 20.0002 36.6667C20.0002 37.5507 19.649 38.3986 19.0239 39.0237C18.3988 39.6488 17.5509 40 16.6669 40ZM26.6669 26.6667H10.0002C9.11615 26.6667 8.2683 26.3155 7.64318 25.6904C7.01806 25.0652 6.66687 24.2174 6.66687 23.3333C6.66687 22.4493 7.01806 21.6014 7.64318 20.9763C8.2683 20.3512 9.11615 20 10.0002 20H26.6669C27.5509 20 28.3988 20.3512 29.0239 20.9763C29.649 21.6014 30.0002 22.4493 30.0002 23.3333C30.0002 24.2174 29.649 25.0652 29.0239 25.6904C28.3988 26.3155 27.5509 26.6667 26.6669 26.6667ZM36.6669 13.3333H10.1002C9.21615 13.3333 8.3683 12.9821 7.74318 12.357C7.11806 11.7319 6.76687 10.8841 6.76687 10C6.76687 9.11594 7.11806 8.2681 7.74318 7.64298C8.3683 7.01786 9.21615 6.66667 10.1002 6.66667H36.6669C37.5509 6.66667 38.3988 7.01786 39.0239 7.64298C39.649 8.2681 40.0002 9.11594 40.0002 10C40.0002 10.8841 39.649 11.7319 39.0239 12.357C38.3988 12.9821 37.5509 13.3333 36.6669 13.3333Z" fill="#4856BE" fill-opacity="0.96"/>
<path d="M41.1212 43.9695C41.6408 44.5074 42.4981 44.5223 43.036 44.0027C43.5739 43.4831 43.5887 42.6259 43.0692 42.088C42.5496 41.5501 41.6924 41.5352 41.1544 42.0548C40.6165 42.5743 40.6017 43.4316 41.1212 43.9695Z" stroke="#4856BE" stroke-opacity="0.96" stroke-width="2.5" stroke-linecap="square"/>
<path d="M34.37 46.7254L34.5693 35.2371L46.0576 35.4363L57.3467 47.124C57.8457 47.6406 58.1191 48.3343 58.1066 49.0525C58.0942 49.7706 57.7969 50.4544 57.2803 50.9534L49.4886 58.4795C48.9719 58.9785 48.2782 59.2519 47.5601 59.2394C46.8419 59.2269 46.1581 58.9297 45.6591 58.4131L34.37 46.7254Z" stroke="#4856BE" stroke-opacity="0.96" stroke-width="2.5" stroke-linecap="square"/>
</g>
<defs>
<clipPath id="clip0_2279_8867">
<rect width="60" height="60" fill="white"/>
</clipPath>
</defs>
</svg>
