<svg width="46" height="60" viewBox="0 0 46 60" fill="none" xmlns="http://www.w3.org/2000/svg">
<path d="M31.6234 10.4901C30.3432 11.1455 28.8967 11.4043 27.4687 11.2335L25.1889 13.5132L26.6427 14.7605C35.0761 15.5947 41.0149 19.196 41.0149 22.4587C41.0149 24.788 37.9836 27.2907 33.1928 28.8354C31.9373 29.9587 30.2936 30.6691 28.4847 30.7021L24.9494 34.1382C24.9412 34.5182 24.8999 34.8816 24.8338 35.245C30.657 35.0055 35.7534 33.6757 39.4703 31.5776C39.5529 31.7098 39.6438 31.8337 39.7512 31.9493C40.5854 32.8497 41.0149 33.7583 41.0149 34.6421C41.0149 38.359 33.3084 42.5138 22.9918 42.5138C12.6752 42.5138 4.97694 38.3425 4.97694 34.6256C4.97694 33.783 5.36516 32.9157 6.12507 32.0567C6.26549 31.8915 6.38113 31.7181 6.47199 31.5281C7.64489 32.1971 8.97474 32.7753 10.412 33.2874C10.5854 31.5116 11.4032 29.9257 12.6174 28.7528C7.92573 27.2081 4.97694 24.7384 4.97694 22.4422C4.97694 20.4185 7.28146 18.2627 11.0397 16.7181C10.5971 15.7659 10.3688 14.7284 10.3707 13.6784C10.3707 12.9102 10.4946 12.1751 10.7093 11.4813C4.19225 13.7032 0.0209961 17.6927 0.0209961 22.4422V47.1641C0.0209961 54.4824 9.89985 59.9917 23.0001 59.9917C36.1003 59.9917 45.9791 54.4741 45.9791 47.1641V22.4422C45.9791 16.8502 40.1972 12.3155 31.6234 10.4901ZM23.0001 55.0441C12.6834 55.0441 4.97694 50.8893 4.97694 47.1724C4.97694 46.3298 5.36516 45.4626 6.12507 44.6035C6.33983 44.3557 6.49677 44.0831 6.60415 43.7858C10.7093 46.082 16.4582 47.4532 23.0001 47.4532C29.5171 47.4532 35.233 46.0903 39.3382 43.8188C39.4456 44.0501 39.5777 44.2731 39.7594 44.4714C40.5937 45.3717 41.0232 46.2803 41.0232 47.1641C41.0232 50.8893 33.3167 55.0441 23.0001 55.0441ZM28.336 19.4108C27.9395 19.4108 27.5678 19.4851 27.2126 19.5925L21.505 14.6944C21.5876 14.3722 21.6454 14.0419 21.6454 13.6867C21.6454 13.2902 21.5711 12.9185 21.4637 12.5633L26.5105 7.51652C27.0639 7.80562 27.6752 7.97907 28.336 7.97907C29.3934 7.97689 30.4069 7.55587 31.1546 6.80816C31.9023 6.06044 32.3233 5.04696 32.3255 3.98954C32.3233 2.93212 31.9023 1.91863 31.1546 1.17092C30.4069 0.423208 29.3934 0.0021825 28.336 0C27.2786 0.00218252 26.2651 0.423208 25.5174 1.17092C24.7696 1.91863 24.3486 2.93212 24.3464 3.98954C24.3464 4.06388 24.363 4.12996 24.3712 4.19604L18.7132 9.85407C18.3745 9.76322 18.0276 9.69714 17.6642 9.69714C15.467 9.69714 13.6746 11.4895 13.6746 13.6867C13.6746 15.8838 15.467 17.6762 17.6642 17.6762C18.0689 17.6762 18.4571 17.5936 18.8288 17.4862L24.5034 22.3596C24.4125 22.69 24.3464 23.0369 24.3464 23.4003C24.3464 23.7968 24.4208 24.1768 24.5364 24.5402L18.738 30.1817C18.391 30.0826 18.0359 30.0165 17.6642 30.0165C15.467 30.0165 13.6746 31.8089 13.6746 34.0061C13.6746 36.2032 15.467 37.9956 17.6642 37.9956C18.7216 37.9934 19.7351 37.5724 20.4828 36.8247C21.2305 36.077 21.6515 35.0635 21.6537 34.0061C21.6537 33.6178 21.5794 33.2544 21.4802 32.9075L27.3035 27.2412C27.6339 27.332 27.9808 27.3981 28.336 27.3981C29.3952 27.3981 30.411 26.9774 31.1599 26.2284C31.9089 25.4795 32.3296 24.4636 32.3296 23.4045C32.3296 22.3453 31.9089 21.3295 31.1599 20.5805C30.411 19.8316 29.3952 19.4108 28.336 19.4108ZM28.3442 2.65969C28.6969 2.65969 29.0352 2.7998 29.2846 3.04919C29.534 3.29859 29.6741 3.63684 29.6741 3.98954C29.6741 4.34223 29.534 4.68049 29.2846 4.92988C29.0352 5.17928 28.6969 5.31938 28.3442 5.31938C27.9915 5.31938 27.6533 5.17928 27.4039 4.92988C27.1545 4.68049 27.0144 4.34223 27.0144 3.98954C27.0144 3.63684 27.1545 3.29859 27.4039 3.04919C27.6533 2.7998 27.9915 2.65969 28.3442 2.65969ZM17.6724 15.0165C17.3197 15.0165 16.9815 14.8764 16.7321 14.627C16.4827 14.3776 16.3426 14.0394 16.3426 13.6867C16.3426 13.334 16.4827 12.9957 16.7321 12.7463C16.9815 12.4969 17.3197 12.3568 17.6724 12.3568C18.0251 12.3568 18.3634 12.4969 18.6128 12.7463C18.8622 12.9957 19.0023 13.334 19.0023 13.6867C19.0023 14.0394 18.8622 14.3776 18.6128 14.627C18.3634 14.8764 18.0251 15.0165 17.6724 15.0165ZM17.6724 35.3194C17.3197 35.3194 16.9815 35.1793 16.7321 34.9299C16.4827 34.6805 16.3426 34.3422 16.3426 33.9895C16.3426 33.6368 16.4827 33.2986 16.7321 33.0492C16.9815 32.7998 17.3197 32.6597 17.6724 32.6597C18.0251 32.6597 18.3634 32.7998 18.6128 33.0492C18.8622 33.2986 19.0023 33.6368 19.0023 33.9895C19.0023 34.3422 18.8622 34.6805 18.6128 34.9299C18.3634 35.1793 18.0251 35.3194 17.6724 35.3194ZM28.3442 24.7302C27.9915 24.7302 27.6533 24.5901 27.4039 24.3407C27.1545 24.0913 27.0144 23.753 27.0144 23.4003C27.0144 23.0476 27.1545 22.7094 27.4039 22.46C27.6533 22.2106 27.9915 22.0705 28.3442 22.0705C28.6969 22.0705 29.0352 22.2106 29.2846 22.46C29.534 22.7094 29.6741 23.0476 29.6741 23.4003C29.6741 23.753 29.534 24.0913 29.2846 24.3407C29.0352 24.5901 28.6969 24.7302 28.3442 24.7302Z" fill="black"/>
</svg>
