<svg width="30" height="41" viewBox="0 0 30 41" fill="none" xmlns="http://www.w3.org/2000/svg">
<path fill-rule="evenodd" clip-rule="evenodd" d="M6.55775 5.84915C4.3819 6.93708 3.75 8.09312 3.75 8.8125C3.75 9.53187 4.3819 10.6879 6.55775 11.7759C8.62143 12.8077 11.6035 13.5 15 13.5C18.3965 13.5 21.3785 12.8077 23.4422 11.7759C25.618 10.6879 26.25 9.53187 26.25 8.8125C26.25 8.09312 25.618 6.93708 23.4422 5.84915C21.3785 4.81733 18.3965 4.125 15 4.125C11.6035 4.125 8.62143 4.81733 6.55775 5.84915ZM26.25 14.4961C25.8838 14.726 25.5045 14.9374 25.1193 15.13C22.4328 16.4733 18.8522 17.25 15 17.25C11.1477 17.25 7.56733 16.4733 4.8807 15.13C4.49552 14.9374 4.11635 14.726 3.75 14.4961V16.9375C3.75 17.7887 4.44417 19.0142 6.58922 20.138C8.64547 21.215 11.616 21.9375 15 21.9375C18.384 21.9375 21.3545 21.215 23.4107 20.138C25.5557 19.0142 26.25 17.7887 26.25 16.9375V14.4961ZM30 8.8125V16.9375C30 17.0425 29.9972 17.1467 29.9915 17.25H30V24.4375C30 24.5425 29.9972 24.6467 29.9915 24.75H30V31.9375C30 34.883 27.756 37.0952 25.1508 38.4598C22.4568 39.871 18.8647 40.6875 15 40.6875C11.1353 40.6875 7.54328 39.871 4.8492 38.4598C2.24395 37.0952 0 34.883 0 31.9375V24.75H0.00847459C0.00284959 24.6467 0 24.5425 0 24.4375V17.25H0.00847459C0.00284959 17.1467 0 17.0425 0 16.9375V8.8125C0 5.90753 2.30623 3.7823 4.8807 2.49505C7.56733 1.15175 11.1477 0.375 15 0.375C18.8522 0.375 22.4328 1.15175 25.1193 2.49505C27.6938 3.7823 30 5.90753 30 8.8125ZM3.75 30.3167V31.9375C3.75 32.7887 4.44417 34.0142 6.58922 35.138C8.64547 36.215 11.616 36.9375 15 36.9375C18.384 36.9375 21.3545 36.215 23.4107 35.138C25.5557 34.0142 26.25 32.7887 26.25 31.9375V30.3167C25.895 30.5485 25.5265 30.763 25.1508 30.9598C22.4568 32.371 18.8647 33.1875 15 33.1875C11.1353 33.1875 7.54328 32.371 4.8492 30.9598C4.4734 30.763 4.10512 30.5485 3.75 30.3167ZM25.1508 23.4598C25.5265 23.263 25.895 23.0485 26.25 22.8167V24.4375C26.25 25.2887 25.5557 26.5142 23.4107 27.638C21.3545 28.715 18.384 29.4375 15 29.4375C11.616 29.4375 8.64547 28.715 6.58922 27.638C4.44417 26.5142 3.75 25.2887 3.75 24.4375V22.8167C4.10512 23.0485 4.4734 23.263 4.8492 23.4598C7.54328 24.871 11.1353 25.6875 15 25.6875C18.8647 25.6875 22.4568 24.871 25.1508 23.4598Z" fill="#4856BE" fill-opacity="0.96"/>
</svg>
