<svg width="56" height="56" viewBox="0 0 56 56" fill="none" xmlns="http://www.w3.org/2000/svg">
<path fill-rule="evenodd" clip-rule="evenodd" d="M0.5 5.5C0.5 4.17392 1.02678 2.90215 1.96447 1.96447C2.90215 1.02678 4.17392 0.5 5.5 0.5H21.75C23.0761 0.5 24.3479 1.02678 25.2855 1.96447C26.2232 2.90215 26.75 4.17392 26.75 5.5V21.75C26.75 23.0761 26.2232 24.3479 25.2855 25.2855C24.3479 26.2232 23.0761 26.75 21.75 26.75H15.5V36.9075C15.5 38.8875 17.11 40.5 19.095 40.5H29.25V34.25C29.25 32.9239 29.7768 31.6521 30.7145 30.7145C31.6521 29.7768 32.9239 29.25 34.25 29.25H50.5C51.8261 29.25 53.0979 29.7768 54.0355 30.7145C54.9732 31.6521 55.5 32.9239 55.5 34.25V50.5C55.5 51.8261 54.9732 53.0979 54.0355 54.0355C53.0979 54.9732 51.8261 55.5 50.5 55.5H34.25C32.9239 55.5 31.6521 54.9732 30.7145 54.0355C29.7768 53.0979 29.25 51.8261 29.25 50.5V44.25H19.0925C17.1449 44.2493 15.2773 43.4752 13.9004 42.0978C12.5235 40.7204 11.75 38.8526 11.75 36.905V26.75H5.5C4.17392 26.75 2.90215 26.2232 1.96447 25.2855C1.02678 24.3479 0.5 23.0761 0.5 21.75V5.5ZM5.5 4.25C5.16848 4.25 4.85054 4.3817 4.61612 4.61612C4.3817 4.85054 4.25 5.16848 4.25 5.5V21.75C4.25 22.0815 4.3817 22.3995 4.61612 22.6339C4.85054 22.8683 5.16848 23 5.5 23H21.75C22.0815 23 22.3995 22.8683 22.6339 22.6339C22.8683 22.3995 23 22.0815 23 21.75V5.5C23 5.16848 22.8683 4.85054 22.6339 4.61612C22.3995 4.3817 22.0815 4.25 21.75 4.25H5.5ZM34.25 33C33.9185 33 33.6005 33.1317 33.3661 33.3661C33.1317 33.6005 33 33.9185 33 34.25V50.5C33 50.8315 33.1317 51.1495 33.3661 51.3839C33.6005 51.6183 33.9185 51.75 34.25 51.75H50.5C50.8315 51.75 51.1495 51.6183 51.3839 51.3839C51.6183 51.1495 51.75 50.8315 51.75 50.5V34.25C51.75 33.9185 51.6183 33.6005 51.3839 33.3661C51.1495 33.1317 50.8315 33 50.5 33H34.25Z" fill="black"/>
</svg>
