<svg width="54" height="54" viewBox="0 0 54 54" fill="none" xmlns="http://www.w3.org/2000/svg">
<g clip-path="url(#clip0_2279_8834)">
<path d="M29.3288 39.4201H24.6713C24.3355 39.4201 24.0638 39.1484 24.0638 38.8126V36.1683L22.5974 35.5557L20.7226 37.4305C20.6095 37.5436 20.4543 37.6077 20.294 37.6077C20.132 37.6077 19.9784 37.5436 19.8653 37.4305L16.5713 34.1365C16.3334 33.8986 16.3334 33.5138 16.5713 33.2759L18.4411 31.4078L17.8386 29.938H15.1876C14.8518 29.938 14.5801 29.6663 14.5801 29.3305V24.673C14.5801 24.3372 14.8518 24.0655 15.1876 24.0655H17.8319L18.4445 22.5991L16.5713 20.7226C16.3351 20.4846 16.3351 20.1016 16.5713 19.8636L19.8636 16.5696C20.0915 16.3401 20.4948 16.3401 20.7226 16.5696L22.5923 18.4411L24.0638 17.8386V15.1876C24.0638 14.8518 24.3355 14.5801 24.6713 14.5801H29.3288C29.6646 14.5801 29.9363 14.8518 29.9363 15.1876V17.8319L31.4011 18.4445L33.2742 16.5696C33.502 16.3418 33.907 16.3401 34.1348 16.5696L37.4288 19.8636C37.5419 19.9767 37.606 20.132 37.606 20.2923C37.606 20.4543 37.5419 20.6078 37.4288 20.7209L35.5574 22.5906L36.1598 24.0621H38.8126C39.1484 24.0621 39.4201 24.3338 39.4201 24.6696V29.3271C39.4201 29.663 39.1484 29.9346 38.8126 29.9346H36.1683L35.5557 31.3994L37.4305 33.2725C37.5436 33.3856 37.6077 33.5408 37.6077 33.7028C37.6077 33.8648 37.5436 34.0201 37.4305 34.1331L34.1365 37.4271C34.0235 37.5402 33.8682 37.6043 33.7062 37.6043C33.5442 37.6043 33.389 37.5402 33.2759 37.4271L31.4078 35.5557L29.938 36.1581V38.8126C29.9363 39.1484 29.6646 39.4201 29.3288 39.4201ZM25.2788 38.2051H28.7213V35.7548C28.7213 35.5085 28.8715 35.2874 29.0993 35.1929L31.3201 34.2816C31.5462 34.1855 31.8061 34.2411 31.9816 34.4133L33.7062 36.1413L36.1413 33.7062L34.4065 31.9748C34.2327 31.7993 34.1804 31.5378 34.2766 31.31L35.2047 29.096C35.2992 28.8698 35.5203 28.7213 35.765 28.7213H38.2051V25.2788H35.7548C35.5085 25.2788 35.2874 25.1303 35.1929 24.9025L34.2816 22.6818C34.1888 22.4556 34.2411 22.1941 34.4133 22.022L36.1413 20.2956L33.7062 17.8606L31.9748 19.5936C31.7993 19.7675 31.5378 19.8215 31.31 19.7253L29.096 18.7988C28.8698 18.7043 28.7213 18.4833 28.7213 18.2386V15.7951H25.2788V18.2453C25.2788 18.4917 25.1303 18.7145 24.9025 18.8073L22.6818 19.7185C22.454 19.8096 22.1958 19.759 22.022 19.5852L20.2956 17.8589L17.8623 20.294L19.5953 22.0287C19.7691 22.2025 19.8215 22.4658 19.7253 22.6936L18.7988 24.9076C18.7043 25.1337 18.4833 25.2805 18.2386 25.2805H15.7951V28.723H18.2453C18.4917 28.723 18.7145 28.8732 18.8073 29.101L19.7185 31.3218C19.8113 31.5496 19.759 31.8095 19.5852 31.9833L17.8606 33.7079L20.294 36.143L22.0287 34.4082C22.2042 34.2327 22.4658 34.1838 22.6936 34.2783L24.9076 35.2064C25.1337 35.3009 25.2805 35.522 25.2805 35.7666L25.2788 38.2051ZM27.0001 32.6701C23.8731 32.6701 21.3301 30.1253 21.3301 27.0001C21.3301 23.8748 23.8731 21.3301 27.0001 21.3301C30.127 21.3301 32.6701 23.8731 32.6701 27.0001C32.6701 30.127 30.127 32.6701 27.0001 32.6701ZM27.0001 22.5451C24.5431 22.5451 22.5451 24.5448 22.5451 27.0001C22.5451 29.4571 24.5448 31.4551 27.0001 31.4551C29.4571 31.4551 31.4551 29.4571 31.4551 27.0001C31.4551 24.5431 29.4571 22.5451 27.0001 22.5451ZM27.0001 52.9201C19.3574 52.9201 12.2918 49.6581 7.35758 43.9122V50.6251H6.14258V41.5801H15.1876V42.7968H8.00389C12.7171 48.4735 19.5717 51.7051 27.0001 51.7051C40.6216 51.7051 51.7051 40.6233 51.7051 27.0001H52.9218C52.9201 41.2932 41.2932 52.9201 27.0001 52.9201ZM2.29508 27.0001H1.08008C1.08008 12.707 12.707 1.08008 27.0001 1.08008C34.6428 1.08008 41.7083 4.34202 46.6426 10.0863V3.37508H47.8593V12.4201H38.8126V11.2051H45.9963C41.2831 5.52664 34.4268 2.29508 27.0001 2.29508C13.3769 2.29508 2.29508 13.3769 2.29508 27.0001Z" fill="#4856BE" fill-opacity="0.96"/>
</g>
<defs>
<clipPath id="clip0_2279_8834">
<rect width="54" height="54" fill="white"/>
</clipPath>
</defs>
</svg>
