<svg width="60" height="60" viewBox="0 0 60 60" fill="none" xmlns="http://www.w3.org/2000/svg">
<g clip-path="url(#clip0_2279_8840)">
<path d="M9.375 0C7.38588 0 5.47822 0.790176 4.0717 2.1967C2.66518 3.60322 1.875 5.51088 1.875 7.5V52.5C1.875 54.4891 2.66518 56.3968 4.0717 57.8033C5.47822 59.2098 7.38588 60 9.375 60H50.625C52.6141 60 54.5218 59.2098 55.9283 57.8033C57.3348 56.3968 58.125 54.4891 58.125 52.5V7.5C58.125 5.51088 57.3348 3.60322 55.9283 2.1967C54.5218 0.790176 52.6141 0 50.625 0L9.375 0ZM28.125 7.5H31.875C32.8696 7.5 33.8234 7.89509 34.5266 8.59835C35.2299 9.30161 35.625 10.2554 35.625 11.25V22.5C35.625 23.4946 35.2299 24.4484 34.5266 25.1516C33.8234 25.8549 32.8696 26.25 31.875 26.25H28.125C27.1304 26.25 26.1766 25.8549 25.4734 25.1516C24.7701 24.4484 24.375 23.4946 24.375 22.5V11.25C24.375 10.2554 24.7701 9.30161 25.4734 8.59835C26.1766 7.89509 27.1304 7.5 28.125 7.5ZM9.375 11.25C9.375 10.2554 9.77009 9.30161 10.4733 8.59835C11.1766 7.89509 12.1304 7.5 13.125 7.5H16.875C17.8696 7.5 18.8234 7.89509 19.5266 8.59835C20.2299 9.30161 20.625 10.2554 20.625 11.25V37.5C20.625 38.4946 20.2299 39.4484 19.5266 40.1516C18.8234 40.8549 17.8696 41.25 16.875 41.25H13.125C12.1304 41.25 11.1766 40.8549 10.4733 40.1516C9.77009 39.4484 9.375 38.4946 9.375 37.5V11.25ZM43.125 7.5H46.875C47.8696 7.5 48.8234 7.89509 49.5266 8.59835C50.2299 9.30161 50.625 10.2554 50.625 11.25V48.75C50.625 49.7446 50.2299 50.6984 49.5266 51.4016C48.8234 52.1049 47.8696 52.5 46.875 52.5H43.125C42.1304 52.5 41.1766 52.1049 40.4734 51.4016C39.7701 50.6984 39.375 49.7446 39.375 48.75V11.25C39.375 10.2554 39.7701 9.30161 40.4734 8.59835C41.1766 7.89509 42.1304 7.5 43.125 7.5Z" fill="#4856BE" fill-opacity="0.96"/>
</g>
<defs>
<clipPath id="clip0_2279_8840">
<rect width="60" height="60" fill="white"/>
</clipPath>
</defs>
</svg>
