<svg width="42" height="46" viewBox="0 0 42 46" fill="none" xmlns="http://www.w3.org/2000/svg">
<path d="M15.375 4.25C15.375 3.25544 15.7701 2.30161 16.4734 1.59835C17.1766 0.895088 18.1304 0.5 19.125 0.5H22.875C23.8696 0.5 24.8234 0.895088 25.5266 1.59835C26.2299 2.30161 26.625 3.25544 26.625 4.25V15.5C26.625 16.4946 26.2299 17.4484 25.5266 18.1516C24.8234 18.8549 23.8696 19.25 22.875 19.25H19.125C18.1304 19.25 17.1766 18.8549 16.4734 18.1516C15.7701 17.4484 15.375 16.4946 15.375 15.5V4.25ZM0.375 4.25C0.375 3.25544 0.770088 2.30161 1.47335 1.59835C2.17661 0.895088 3.13044 0.5 4.125 0.5H7.875C8.86956 0.5 9.82339 0.895088 10.5266 1.59835C11.2299 2.30161 11.625 3.25544 11.625 4.25V30.5C11.625 31.4946 11.2299 32.4484 10.5266 33.1516C9.82339 33.8549 8.86956 34.25 7.875 34.25H4.125C3.13044 34.25 2.17661 33.8549 1.47335 33.1516C0.770088 32.4484 0.375 31.4946 0.375 30.5V4.25ZM30.375 4.25C30.375 3.25544 30.7701 2.30161 31.4734 1.59835C32.1766 0.895088 33.1304 0.5 34.125 0.5H37.875C38.8696 0.5 39.8234 0.895088 40.5266 1.59835C41.2299 2.30161 41.625 3.25544 41.625 4.25V41.75C41.625 42.7446 41.2299 43.6984 40.5266 44.4016C39.8234 45.1049 38.8696 45.5 37.875 45.5H34.125C33.1304 45.5 32.1766 45.1049 31.4734 44.4016C30.7701 43.6984 30.375 42.7446 30.375 41.75V4.25Z" fill="black"/>
</svg>
