<svg width="60" height="60" viewBox="0 0 60 60" fill="none" xmlns="http://www.w3.org/2000/svg">
<g clip-path="url(#clip0_2279_8846)">
<path d="M60 0H0V60H60V0Z" fill="white"/>
<path fill-rule="evenodd" clip-rule="evenodd" d="M12.5 23.75C12.5 17.5368 17.5368 12.5 23.75 12.5C29.9632 12.5 35 17.5368 35 23.75C35 29.9632 29.9632 35 23.75 35C17.5368 35 12.5 29.9632 12.5 23.75Z" fill="#323232"/>
<path d="M35.9187 30.158C35.805 30.3735 35.8532 30.6423 36.0489 30.7873C37.5029 31.8635 39.3022 32.5 41.2499 32.5C46.0824 32.5 50 28.5825 50 23.75C50 18.9175 46.0824 15 41.2499 15C39.3022 15 37.5029 15.6365 36.0489 16.7128C35.8532 16.8578 35.805 17.1265 35.9187 17.342C36.9285 19.2555 37.4999 21.436 37.4999 23.75C37.4999 26.064 36.9285 28.2445 35.9187 30.158Z" fill="#323232"/>
<path fill-rule="evenodd" clip-rule="evenodd" d="M11.6029 39.2482C14.6838 37.911 18.7261 37.5 23.7499 37.5C28.778 37.5 32.8233 37.9117 35.9053 39.252C39.2625 40.7117 41.303 43.1982 42.3725 46.709C42.8738 48.3545 41.6378 50 39.9345 50H7.57003C5.86473 50 4.62613 48.352 5.12893 46.7035C6.19985 43.1923 8.24345 40.7065 11.6029 39.2482Z" fill="#323232"/>
<path d="M37.0462 35.0909C36.0112 35.1552 35.9504 36.5457 36.9014 36.9592C39.5074 38.0924 41.4697 39.7607 42.8769 41.8899C44.0317 43.6372 45.8249 44.9999 47.9192 44.9999H52.3707C54.1387 44.9999 55.4287 43.2432 54.8067 41.5269C54.7709 41.4282 54.7337 41.3302 54.6952 41.2329C53.8392 39.0714 52.3719 37.4802 50.1994 36.4659C48.1597 35.5137 45.6062 35.1207 42.5979 35.0019L42.5484 34.9999H42.4992C40.7272 34.9999 38.8764 34.9772 37.0462 35.0909Z" fill="#323232"/>
</g>
<defs>
<clipPath id="clip0_2279_8846">
<rect width="60" height="60" fill="white"/>
</clipPath>
</defs>
</svg>
