<svg width="60" height="60" viewBox="0 0 60 60" fill="none" xmlns="http://www.w3.org/2000/svg">
<path d="M18.75 38.7501H6.25002C5.58698 38.7501 4.9511 39.0135 4.48226 39.4823C4.01342 39.9512 3.75002 40.5871 3.75002 41.2501V53.7501C3.75002 54.4131 4.01342 55.049 4.48226 55.5179C4.9511 55.9867 5.58698 56.2501 6.25002 56.2501H18.75C19.4131 56.2501 20.049 55.9867 20.5178 55.5179C20.9866 55.049 21.25 54.4131 21.25 53.7501V50.0001H30C30.6631 50.0001 31.299 49.7367 31.7678 49.2679C32.2366 48.799 32.5 48.1631 32.5 47.5001C32.5 46.8371 32.2366 46.2012 31.7678 45.7323C31.299 45.2635 30.6631 45.0001 30 45.0001H21.25V41.2501C21.25 40.5871 20.9866 39.9512 20.5178 39.4823C20.049 39.0135 19.4131 38.7501 18.75 38.7501ZM16.25 51.2501H8.75002V43.7501H16.25V51.2501ZM10 22.1451V32.5001C10 33.1631 10.2634 33.799 10.7323 34.2679C11.2011 34.7367 11.837 35.0001 12.5 35.0001C13.1631 35.0001 13.7989 34.7367 14.2678 34.2679C14.7366 33.799 15 33.1631 15 32.5001V22.1451C17.3567 21.5366 19.4105 20.0895 20.7765 18.0751C22.1426 16.0606 22.727 13.6171 22.4203 11.2026C22.1136 8.78807 20.9369 6.56827 19.1106 4.9593C17.2843 3.35033 14.934 2.46265 12.5 2.46265C10.0661 2.46265 7.71571 3.35033 5.88944 4.9593C4.06318 6.56827 2.88641 8.78807 2.57973 11.2026C2.27304 13.6171 2.85749 16.0606 4.22352 18.0751C5.58955 20.0895 7.64338 21.5366 10 22.1451ZM12.5 7.5001C13.4889 7.5001 14.4556 7.79335 15.2779 8.34276C16.1001 8.89216 16.741 9.67306 17.1194 10.5867C17.4979 11.5003 17.5969 12.5057 17.404 13.4756C17.211 14.4455 16.7348 15.3364 16.0356 16.0356C15.3363 16.7349 14.4454 17.2111 13.4755 17.404C12.5056 17.597 11.5002 17.4979 10.5866 17.1195C9.67298 16.7411 8.89208 16.1002 8.34268 15.278C7.79327 14.4557 7.50002 13.489 7.50002 12.5001C7.50002 11.174 8.02681 9.90225 8.96449 8.96457C9.90217 8.02689 11.1739 7.5001 12.5 7.5001ZM50 37.8551V30.0001C50 29.3371 49.7366 28.7012 49.2678 28.2323C48.799 27.7635 48.1631 27.5001 47.5 27.5001C46.837 27.5001 46.2011 27.7635 45.7323 28.2323C45.2634 28.7012 45 29.3371 45 30.0001V37.8551C42.6434 38.4636 40.5896 39.9107 39.2235 41.9251C37.8575 43.9396 37.273 46.3831 37.5797 48.7976C37.8864 51.2121 39.0632 53.4319 40.8894 55.0409C42.7157 56.6499 45.0661 57.5376 47.5 57.5376C49.934 57.5376 52.2843 56.6499 54.1106 55.0409C55.9369 53.4319 57.1136 51.2121 57.4203 48.7976C57.727 46.3831 57.1426 43.9396 55.7765 41.9251C54.4105 39.9107 52.3567 38.4636 50 37.8551ZM47.5 52.5001C46.5111 52.5001 45.5444 52.2069 44.7222 51.6575C43.8999 51.108 43.2591 50.3272 42.8806 49.4135C42.5022 48.4999 42.4032 47.4946 42.5961 46.5247C42.789 45.5547 43.2652 44.6638 43.9645 43.9646C44.6638 43.2653 45.5547 42.7891 46.5246 42.5962C47.4945 42.4033 48.4998 42.5023 49.4134 42.8807C50.3271 43.2591 51.108 43.9 51.6574 44.7223C52.2068 45.5445 52.5 46.5112 52.5 47.5001C52.5 48.8262 51.9732 50.098 51.0356 51.0356C50.0979 51.9733 48.8261 52.5001 47.5 52.5001ZM41.25 21.2501H53.75C54.4131 21.2501 55.049 20.9867 55.5178 20.5179C55.9866 20.049 56.25 19.4131 56.25 18.7501V6.2501C56.25 5.58706 55.9866 4.95118 55.5178 4.48234C55.049 4.0135 54.4131 3.7501 53.75 3.7501H41.25C40.587 3.7501 39.9511 4.0135 39.4823 4.48234C39.0134 4.95118 38.75 5.58706 38.75 6.2501V10.0001H30C29.337 10.0001 28.7011 10.2635 28.2323 10.7323C27.7634 11.2012 27.5 11.8371 27.5 12.5001C27.5 13.1631 27.7634 13.799 28.2323 14.2679C28.7011 14.7367 29.337 15.0001 30 15.0001H38.75V18.7501C38.75 19.4131 39.0134 20.049 39.4823 20.5179C39.9511 20.9867 40.587 21.2501 41.25 21.2501ZM43.75 8.7501H51.25V16.2501H43.75V8.7501Z" fill="black"/>
</svg>
