<svg width="60" height="60" viewBox="0 0 60 60" fill="none" xmlns="http://www.w3.org/2000/svg">
<path d="M5.00008 12.4999C4.99384 11.1196 5.36867 9.76431 6.08328 8.58332C6.79789 7.40234 7.82456 6.44148 9.05023 5.80656C10.2759 5.17164 11.653 4.88728 13.0299 4.98481C14.4068 5.08234 15.7301 5.55797 16.854 6.35932C17.978 7.16067 18.859 8.25666 19.4 9.52658C19.941 10.7965 20.121 12.1911 19.9203 13.5568C19.7195 14.9225 19.1458 16.2062 18.2622 17.2668C17.3787 18.3273 16.2196 19.1234 14.9126 19.5674C14.9556 19.7084 14.9849 19.8533 15.0001 19.9999V32.4999C15.0001 33.163 14.7367 33.7989 14.2678 34.2677C13.799 34.7365 13.1631 34.9999 12.5001 34.9999C11.837 34.9999 11.2012 34.7365 10.7323 34.2677C10.2635 33.7989 10.0001 33.163 10.0001 32.4999V19.9999C10.0152 19.8533 10.0445 19.7084 10.0876 19.5674C8.6073 19.0689 7.32046 18.119 6.40793 16.8514C5.49539 15.5837 5.00304 14.0619 5.00008 12.4999ZM49.9126 40.4324C49.9556 40.2914 49.9849 40.1466 50.0001 39.9999V29.9999C50.0001 29.3369 49.7367 28.701 49.2678 28.2322C48.799 27.7633 48.1631 27.4999 47.5001 27.4999C46.837 27.4999 46.2011 27.7633 45.7323 28.2322C45.2635 28.701 45.0001 29.3369 45.0001 29.9999V39.9999C45.0152 40.1466 45.0445 40.2914 45.0876 40.4324C43.4049 41.0041 41.9798 42.1547 41.0664 43.6792C40.153 45.2037 39.8107 47.003 40.1004 48.7564C40.3901 50.5098 41.293 52.1034 42.6482 53.2531C44.0035 54.4028 45.7229 55.0338 47.5001 55.0338C49.2773 55.0338 50.9967 54.4028 52.3519 53.2531C53.7071 52.1034 54.6101 50.5098 54.8998 48.7564C55.1895 47.003 54.8471 45.2037 53.9337 43.6792C53.0204 42.1547 51.5953 41.0041 49.9126 40.4324ZM52.5001 4.99994H42.5001C41.837 4.99994 41.2011 5.26333 40.7323 5.73217C40.2635 6.20101 40.0001 6.8369 40.0001 7.49994V9.99994H30.0001C29.337 9.99994 28.7012 10.2633 28.2323 10.7322C27.7635 11.201 27.5001 11.8369 27.5001 12.4999C27.5001 13.163 27.7635 13.7989 28.2323 14.2677C28.7012 14.7365 29.337 14.9999 30.0001 14.9999H40.0001V17.4999C40.0001 18.163 40.2635 18.7989 40.7323 19.2677C41.2011 19.7365 41.837 19.9999 42.5001 19.9999H52.5001C53.1631 19.9999 53.799 19.7365 54.2678 19.2677C54.7367 18.7989 55.0001 18.163 55.0001 17.4999V7.49994C55.0001 6.8369 54.7367 6.20101 54.2678 5.73217C53.799 5.26333 53.1631 4.99994 52.5001 4.99994ZM30.0001 44.9999H20.0001V42.4999C20.0001 41.8369 19.7367 41.201 19.2678 40.7322C18.799 40.2633 18.1631 39.9999 17.5001 39.9999H7.50008C6.83704 39.9999 6.20115 40.2633 5.73231 40.7322C5.26347 41.201 5.00008 41.8369 5.00008 42.4999V52.4999C5.00008 53.163 5.26347 53.7989 5.73231 54.2677C6.20115 54.7365 6.83704 54.9999 7.50008 54.9999H17.5001C18.1631 54.9999 18.799 54.7365 19.2678 54.2677C19.7367 53.7989 20.0001 53.163 20.0001 52.4999V49.9999H30.0001C30.6631 49.9999 31.299 49.7365 31.7678 49.2677C32.2367 48.7989 32.5001 48.163 32.5001 47.4999C32.5001 46.8369 32.2367 46.201 31.7678 45.7322C31.299 45.2633 30.6631 44.9999 30.0001 44.9999Z" fill="#4856BE"/>
</svg>
